<svg width="742" height="444" viewBox="0 0 742 444" xmlns="http://www.w3.org/2000/svg" xmlns:xlink="http://www.w3.org/1999/xlink"><title>logo-northwestern</title><defs><path id="a" d="M64.606 63.28V.135H.048V63.28h64.558z"/><path id="c" d="M.052 45H43.06V.48H.05V45z"/></defs><g fill="none" fill-rule="evenodd"><path d="M298.73 66.33c-15.852 15.862-25.65 37.752-25.658 61.944.009 24.202 9.806 46.091 25.659 61.952 15.86 15.852 37.75 25.657 61.942 25.657 24.202 0 46.093-9.805 61.943-25.657 15.852-15.86 25.659-37.75 25.659-61.952 0-24.192-9.807-46.082-25.66-61.944-15.85-15.86-37.74-25.65-61.942-25.65-24.192 0-46.082 9.79-61.942 25.65m-27.817 61.944c0-49.564 40.196-89.76 89.759-89.76 49.574 0 89.76 40.196 89.76 89.76 0 49.58-40.186 89.762-89.76 89.762-49.563 0-89.76-40.181-89.76-89.762" fill="#5C2E91"/><path d="M272.938 40.785c-22.544 22.535-36.477 53.642-36.477 88.04 0 34.397 13.932 65.496 36.476 88.047 22.536 22.526 53.65 36.46 88.04 36.476 34.39-.015 65.496-13.95 88.04-36.476 22.534-22.551 36.468-53.658 36.468-88.047 0-34.398-13.934-65.505-36.468-88.04-22.544-22.536-53.65-36.468-88.04-36.477-34.39.009-65.504 13.94-88.04 36.477m-40.787 88.04C232.15 57.673 289.817 0 360.976 0c71.151 0 128.825 57.673 128.825 128.825 0 71.15-57.673 128.833-128.825 128.833-71.16 0-128.826-57.682-128.826-128.833" fill="#5C2E91"/><path d="M317.769 86.15c-10.921 10.93-17.684 26.01-17.684 42.682 0 16.68 6.763 31.769 17.684 42.697 10.922 10.922 26.009 17.677 42.682 17.677 16.671 0 31.769-6.755 42.688-17.677 10.931-10.928 17.685-26.017 17.685-42.697 0-16.672-6.754-31.752-17.685-42.682-10.919-10.937-26.017-17.684-42.688-17.684-16.673 0-31.76 6.747-42.682 17.684m-19.851 42.682c0-34.54 28-62.525 62.533-62.525 34.54 0 62.532 27.985 62.532 62.525s-27.992 62.533-62.532 62.533c-34.533 0-62.533-27.993-62.533-62.533" fill="#5C2E91"/><path d="M382.7 158.697c-.4 0-.797-.024-1.196-.032-1.966-.088-3.95-.36-5.741-.957-.066-.024-.144-.031-.21-.055a9.18 9.18 0 0 0-1.36-.367c-1.307-.286-2.821-.437-4.398-.437-.43 0-.86.015-1.298.039h-.096c-1.896.112-3.776.423-5.305.989a.898.898 0 0 0-.135.048c-.486.198-.965.413-1.38.66-2.014-1.226-5.177-1.728-8.212-1.736-.405 0-.813.015-1.226.039-.072 0-.152 0-.232.009-1.624.095-3.138.342-4.301.756-.525.175-1.075.336-1.657.455-.71.15-1.45.262-2.207.334-.932.095-1.88.152-2.828.152-.78 0-1.552-.033-2.31-.081a38.634 38.634 0 0 1-2.47-.223 57.993 57.993 0 0 1-3.401-.51 43.856 43.856 0 0 1-1.163-.23c-1.562-.32-2.541-.581-2.55-.581l-.278 1.035c.008.008.757.207 1.977.477 1.067.232 2.508.51 4.15.734.987.143 2.062.262 3.17.342.948.08 1.904.119 2.875.119.622 0 1.243-.016 1.865-.064a21.567 21.567 0 0 0 2.81-.35 16.279 16.279 0 0 0 2.375-.59c.877-.31 2.047-.525 3.337-.636.24-.024.47-.047.718-.056.438-.024.893-.055 1.346-.055 1.33 0 2.685.119 3.936.35.103.015.207.03.302.047 1.507.296 2.82.749 3.672 1.354l.303.208.31-.208c.27-.19.59-.357.932-.517.176-.08.359-.168.543-.247 1.418-.526 3.25-.844 5.113-.94.184-.007.36-.016.55-.024.255 0 .51-.023.765-.023 1.753 0 3.427.207 4.723.548.24.064.487.12.687.2.533.183 1.074.334 1.632.462 1.696.406 3.473.58 5.2.62.225 0 .448.017.663.017 1.4 0 2.756-.088 4.006-.223a44.297 44.297 0 0 0 4.685-.733c.949-.198 1.506-.35 1.513-.36l-.287-1.034c-.01 0-.707.19-1.87.422a43.32 43.32 0 0 1-5.13.725c-.934.08-1.914.128-2.917.128" fill="#5C2E91"/><path d="M378.804 161.731l12.157 16.083-7.808-15.82a42.838 42.838 0 0 0 5.744-.47l10.761 9.686-6.937-10.403c.343-.072.525-.135.534-.135l-.27-1.044h-.01s-.325.096-.892.215a44.86 44.86 0 0 1-4.245.734 39.732 39.732 0 0 1-5.067.342c-.063 0-.11-.008-.158-.008-1.602 0-3.218-.136-4.766-.446-.779-.152-1.56-.336-2.276-.582-.215-.08-.48-.135-.718-.207-1.433-.39-3.195-.59-5.05-.598-.072 0-.144.007-.215.007-.335 0-.677.01-1.013.024-1.735.088-3.449.343-4.93.814a9.228 9.228 0 0 0-.94.342 7.93 7.93 0 0 0-1.108.551c-1.05-.639-2.413-1.077-3.895-1.355-.247-.04-.493-.08-.733-.128a26.602 26.602 0 0 0-3.576-.255 43.38 43.38 0 0 0-1.507.048c-.429.023-.835.071-1.234.111-1.13.144-2.166.344-3.026.646-.75.262-1.57.437-2.415.59a23.581 23.581 0 0 1-3.392.334c-.296.01-.598.024-.9.024-1.172 0-2.335-.063-3.466-.175a51.319 51.319 0 0 1-3.87-.494 66.975 66.975 0 0 1-3.698-.749c-.534-.135-.844-.216-.844-.216l-.279 1.044s.103.024.294.072l-8.634 9.471 11.95-8.746c1.297.247 2.85.486 4.531.653l-8.03 14.992 12.045-14.776c1.322 0 2.644-.088 3.926-.28l-6.355 20.242 11.526-21.444a16.77 16.77 0 0 1 1.745-.208l-2.852 24.91 7.735-24.743c.39.057.773.121 1.138.193l1.977 25.784 2.803-24.854a8.972 8.972 0 0 1 1.37-.54l6.708 24.55-1.983-25.33a27.43 27.43 0 0 1 1.147-.025c.111 0 .207.008.31.008l11.056 22.463-5.989-21.746a.058.058 0 0 0 .03.008 18.7 18.7 0 0 0 3.594.836M346.845 202.016s.08-1.785-2.725-3.482c-2.405-1.457-3.1-1.274-3.1-1.274s.225 1.68 1.348 2.637c2.088 1.768 4.477 2.119 4.477 2.119M339.867 200.597s.247-1.76-2.422-3.544c-2.286-1.523-3.011-1.362-3.011-1.362s.072 1.664 1.123 2.652c1.928 1.816 4.31 2.254 4.31 2.254M332.745 198.208s.31-1.753-2.277-3.61c-2.224-1.6-2.956-1.465-2.956-1.465s0 1.665 1.012 2.685c1.864 1.88 4.22 2.39 4.22 2.39M325.218 194.862s.5-1.712-1.888-3.736c-2.064-1.744-2.805-1.665-2.805-1.665s-.191 1.649.717 2.724c1.666 2 3.976 2.677 3.976 2.677M349.243 201.522c2.318 1.529 4.73 1.624 4.73 1.624s-.198-1.792-3.216-3.178c-2.606-1.187-3.26-.932-3.26-.932s.479 1.657 1.746 2.486M334.785 201.465c-3.53-.119-5.154 1.268-5.154 1.268s2 .94 5.106.653c1.68-.16 3.4-1.316 3.4-1.316s-.31-.493-3.352-.605M342.217 203.417c-3.521-.184-4.972 1.203-4.972 1.203s2.088.98 5.13.74c1.642-.135 3.219-1.274 3.219-1.274s-.366-.502-3.377-.669M350.366 204.764c-3.537-.024-5.066 1.417-5.066 1.417s2.063.877 5.137.495c1.674-.192 3.314-1.402 3.314-1.402s-.342-.487-3.385-.51" fill="#5C2E91"/><path d="M406.502 189.278c-1.824.764-2.51 1.76-2.764 2.39-14.22 7.782-27.721 11.621-39.79 12.052l-1.506.215c.543-1.035 1.849-2.908.342-3.283-1.425-.35-2.413 3.116-1.767 3.474l-.12.016c-.024 0-.04-.008-.063-.008-.319-1.386-.861-4.572-1.379-2.964-.167.48-2.5.36.08 2.908-18.195-.789-30.725-6.198-41.08-11.885-.264-.63-.94-1.625-2.79-2.39-2.5-1.02-3.178-.717-3.178-.717s.327 1.625 1.514 2.374c1.562.987 3.203 1.242 4.047 1.306 10.476 5.752 23.245 11.28 41.837 12.013-.27.892-2.517 2.302-.916 2.557 2.23.36 1.976-2.318 2.971-1.258 1.029 1.075.726 1.473 1.536 1.075.654-.327-.221-1.784-1.161-2.509l1.688-.24c12.18-.429 25.796-4.324 40.103-12.155.827-.064 2.49-.319 4.069-1.33 1.185-.758 1.514-2.382 1.514-2.382s-.686-.303-3.188.741M326.715 198.852c-2.732.296-3.186.885-3.186.885s1.123 1.243 2.549 1.323c2.644.159 4.74-1.036 4.74-1.036s-.933-1.514-4.103-1.172M320.047 195.42c-2.693-.224-3.242.27-3.242.27s.79 1.441 2.151 1.8c2.51.678 4.787-.104 4.787-.104s-.573-1.688-3.696-1.967" fill="#5C2E91"/><path d="M381.289 196.845s-.691-.207-3.138 1.187c-2.851 1.617-2.821 3.41-2.821 3.41s2.398-.287 4.534-2c1.156-.924 1.425-2.597 1.425-2.597M386.475 197.618c1.077-.948 1.187-2.612 1.187-2.612s-.718-.184-3.05 1.266c-2.7 1.704-2.509 3.482-2.509 3.482s2.39-.367 4.372-2.136M393.574 195.284c1.035-.98 1.092-2.645 1.092-2.645s-.734-.166-3.004 1.378c-2.645 1.785-2.374 3.545-2.374 3.545s2.374-.445 4.286-2.278M400.95 191.867c.93-1.06.797-2.702.797-2.702s-.74-.11-2.852 1.57c-2.446 1.967-1.983 3.688-1.983 3.688s2.326-.613 4.038-2.556M374.543 198.924s-.654-.279-3.281.83c-3.06 1.305-3.308 3.09-3.308 3.09s2.414-.024 4.78-1.49c1.284-.805 1.809-2.43 1.809-2.43M383.791 201.513s1.69 1.203 3.37 1.402c3.09.367 5.122-.51 5.122-.51s-1.584-1.44-5.122-1.41c-3.045.024-3.37.518-3.37.518M376.064 203.792s1.538 1.178 3.179 1.36c3.042.328 5.145-.604 5.145-.604s-1.411-1.418-4.922-1.33c-3.027.072-3.402.574-3.402.574M367.652 204.986s1.61 1.251 3.273 1.506c3.068.453 5.146-.359 5.146-.359s-1.48-1.489-5.026-1.562c-3.035-.055-3.393.415-3.393.415M395.047 198.064c-3.179.224-3.832 1.88-3.832 1.88s2.287.797 4.852.184c1.393-.343 2.27-1.77 2.27-1.77s-.558-.493-3.29-.294M401.81 194.662c-3.13.191-3.753 1.864-3.753 1.864s2.255.844 4.79.248c1.36-.32 2.197-1.745 2.197-1.745s-.542-.518-3.235-.367M286.646 190.48c-.788-1.099-1.147-1.793-1.569-2.365-.103-.152-.286-.264-.446-.257-.199.01-.327.105-.407.161-.143.08-.23.278-.223.43.048.581.59 1.107.575 1.721-.009.35-.144.732-.773 1.194l-9.329 6.692a1.01 1.01 0 0 1-.239.167c.024-.167.096-.374.119-.462l3.976-17.724c.095-.423.134-.718.134-.948 0-.255-.047-.454-.158-.59a.425.425 0 0 0-.35-.183c-.359.024-.622.264-1.147.613l-13.208 9.487c-.422.304-.742.391-.995.391-.55.024-.838-.462-1.443-.534a.659.659 0 0 0-.374.128.506.506 0 0 0-.223.406c0 .143.055.247.128.343.406.565 1.195 1.482 1.744 2.238.509.71.893 1.434 1.401 2.143a.545.545 0 0 0 .782.151.641.641 0 0 0 .254-.509c-.04-.614-.549-1.25-.542-2.04.009-.589.256-1.266 1.339-2.047l9.344-6.715-4.278 19.508c-.032.127-.174.44-.174.766 0 .127.031.286.119.413.278.375.629.677.836.981.247.325.398.732.685 1.138.135.16.295.295.589.32a.417.417 0 0 0 .255-.08.588.588 0 0 0 .262-.503c-.031-.582-.492-1.107-.484-1.912 0-.796.437-1.91 2.509-3.409l8.412-6.038c.948-.686 1.616-.884 2.095-.884.932-.024 1.187.765 1.943.868.135 0 .271-.04.391-.12.08-.063.255-.198.255-.454 0-.143-.056-.27-.151-.406-.145-.184-1.068-1.29-1.634-2.079M253.882 172.191a7.87 7.87 0 0 1-.597-3.003c0-3.793 2.788-7.209 6.468-8.683 1.299-.518 2.549-.766 3.712-.766 3.05.01 5.489 1.65 6.556 4.302.407 1.036.598 2.04.598 3.028.008 3.823-2.835 7.24-6.596 8.738a9.532 9.532 0 0 1-3.593.725c-2.82-.008-5.352-1.37-6.548-4.34m11.87 5.718c4.23-1.697 6.834-5.106 6.834-9.177 0-1.323-.278-2.7-.844-4.11-1.77-4.429-5.345-7.026-9.55-7.018-1.411 0-2.885.286-4.39.892-4.118 1.65-6.428 5.298-6.428 9.296 0 1.362.27 2.773.835 4.167 1.666 4.157 5.425 6.74 9.575 6.73 1.307 0 2.646-.246 3.968-.78M255.38 149.209l-7.043 1.099a1.91 1.91 0 0 1-.294.024c-.526 0-.502-.255-.677-1.211a9.177 9.177 0 0 1-.103-1.314c.024-2.151.883-3.952 3.576-4.388.31-.041.582-.065.844-.065 2.534-.007 3.211 2.039 3.394 3.083.135.829.335 1.833.335 2.413 0 .16-.017.287-.04.343l.007.016zm8.754 1.45c.71 0 1.013.326 1.29.724.28.367.36.885.95.956h.07c.28-.04.517-.247.517-.548a.224.224 0 0 0-.007-.057c-.16-1.107-.438-2.143-.605-3.178-.358-2.303-.343-2.9-.382-3.202-.033-.112.015-.622-.51-.67-.017 0-.072 0-.136.017-.78.238-.526 1.107-.66 1.776-.105.725-.257 1.299-1.324 1.48l-5.847.917c-.143.032-.262.064-.334.064-.088-.024-.135.064-.238-.43-.192-1.171-.304-1.848-.304-2.247.008-.605.176-.605 1.1-1.433l4.372-3.84c1.26-1.163 2.48-2.39 2.486-4.198a4.84 4.84 0 0 0-.055-.668c-.025-.136-.088-.575-.199-.996-.16-.415-.12-.853-.67-.99 0 .009-.008 0-.016 0s-.032-.007-.072.009c-.27.04-.438.343-.43.51-.07.566.16 1.49-1.84 3.329l-6.054 5.514c-1.035-1.546-2.788-2.645-4.692-2.645-.248 0-.5.016-.756.056-3.53.533-4.263 3.345-4.246 5.337 0 1.187.24 2.159.263 2.294.231 1.449.581 3.019.828 4.612.135.837.135 1.108.135 1.306v.065c0 .11 0 .238.033.429.071.383.277.7.661.725h.031c.837-.222.574-1.02.67-1.521.095-.558.214-1.028 1.465-1.25l14.115-2.207c.136-.033.264-.04.391-.04zM248.051 132.823c.207-.048.414-.183.454-.494l-.128-.04h.128c-.032-.605-.622-.66-.797-.741-1.465-.59-1.648-.461-1.696-1.776 0-.103.008-.215.008-.334l.191-4.525c.056-.024.223-.064.4-.055.261 0 .508.03.62.039l14.585.629c.702.033.924.446 1.131.987.224.495.16 1.172.853 1.316h.063a.623.623 0 0 0 .438-.153.619.619 0 0 0 .16-.42l-.19-.04h.19c0-.136-.024-.335-.024-1.004 0-.566.016-1.434.071-2.805.033-.796.184-1.57.215-2.27l-.055-.031h.055v-.01c-.007-.51-.58-.51-.589-.51.032-.007-.024-.007-.03-.007-.743.088-.679.829-.869 1.275-.192.494-.383.885-1.363.908h-.136l-14.298-.612c-.59-.025-.94-.033-1.052-.064l-.016-.01a.55.55 0 0 1-.024-.206c0-.144.016-.35.024-.63l.167-4.006c.096-1.378.486-1.473.925-1.57.231-.04.485-.024.748-.071.255-.024.574-.28.566-.646v-.063c-.016-.455-.494-.566-.702-.566-.079 0-.134.008-.19.008l-2.232.048c-.334 0-.605.016-.834.215-.224.2-.272.479-.288.82-.024.582-.024 3.14-.232 8.222-.158 3.6-.366 5.743-.46 7.94-.009.049 0 .049 0 .049.094.852 1.051.733 1.305.797l2.87.454.038-.048zM246.06 107.532c.055.008.088.015.127.015.598-.111.622-.644.932-1.068.271-.446.582-.796 1.17-.803.129 0 .281.024.448.064l13.852 3.814c1.522.455 1.49 1.076 1.522 1.705v.264c-.008.278.031.725.47.852.095.023.183.04.278.04h.04c.223 0 .463-.184.494-.415.056-.191.008-.414.542-2.358.39-1.425 1.043-3.361 1.139-3.728a1 1 0 0 0 .048-.31c0-.168-.056-.431-.327-.51a.448.448 0 0 0-.175-.032c-.645.08-.781.693-1.107 1.17-.303.519-.63.909-1.147.909-.112 0-.232-.016-.367-.056l-6.739-1.855c-.088-.033-.16-.048-.191-.064 0-.017.007-.032.007-.056l2.749-9.958c.079.024.239.08.414.128l6.492 1.792c.741.224.853.606.932 1.107.097.455-.103 1.068.526 1.339a.904.904 0 0 0 .2.024c.606-.057.606-.638.661-.773.151-.542.246-1.315.717-3.036.262-.947.605-1.752.812-2.508.008-.048.016-.081.023-.136-.047-.367-.253-.51-.462-.581a.32.32 0 0 0-.135-.024c-.605.088-.692.653-1.027 1.099-.311.47-.653.853-1.235.853a1.37 1.37 0 0 1-.438-.072l-14.347-3.952c-1.043-.31-1.003-.868-1.036-1.45v-.126c-.007-.24.057-.598-.358-.758a.593.593 0 0 0-.191-.031c-.319 0-.638.279-.772.86-.168.582-.168.995-.431 1.976-.143.494-.637 1.879-.892 2.78a1.447 1.447 0 0 0-.047.342c-.032.295.254.526.405.534.055.016.088.016.136.024.558-.08.637-.558.916-.9.271-.367.55-.662 1.067-.662.136 0 .295.016.478.072l5.544 1.53c.072.016.231.048.376.104.055.015.103.048.143.072l-2.709 9.82c-.023.073-.048.12-.056.144a5.759 5.759 0 0 1-.215-.047l-5.839-1.617c-1.171-.352-1.123-.964-1.155-1.594 0-.024.008-.055.008-.096-.017-.262.047-.66-.382-.82a.372.372 0 0 0-.135-.023c-.279 0-.511.238-.606.645-.239.86-.358 1.736-.589 2.549-.272.979-.646 1.928-.933 2.947a1.119 1.119 0 0 0-.047.287.572.572 0 0 0 .422.558M254.408 80.718c.71-.119.9-.86 2.023-.86a2.7 2.7 0 0 1 .423.04l16.25 2.612c1.346.206 2.142.39 2.661.39h.015c.264 0 .543-.064.686-.303.063-.127.135-.278.135-.445 0-.28-.152-.535-.398-.837l-4.995-6.62 7.886 1.147c.407.064.686.088.91.088.27.024.548-.103.667-.303a.831.831 0 0 0 .096-.398c-.008-.462-.303-.813-.494-1.083l-10.858-14.953c-.668-.915-.749-1.386-.749-1.64 0-.152.033-.248.033-.415.015-.167-.112-.398-.295-.486a.708.708 0 0 0-.35-.11c-.294.014-.406.246-.463.334-.342.573-.677 1.354-1.099 2.054-.334.551-.765 1.052-1.107 1.626a.457.457 0 0 0-.087.27c.007.271.183.462.374.581a.59.59 0 0 0 .255.073c.701-.112 1.163-.98 1.697-.933.103 0 .207.024.334.112.263.152.438.32.613.557l8.142 10.874c.27.343.454.638.51.765-.032.008-.089.008-.152.008-.136 0-.334-.016-.598-.056l-6.188-.97c-.415-.065-1.085-.24-1.243-.344-.192-.128-.352-.23-.71-.7l-2.907-4.072c-.94-1.306-1.044-1.903-1.044-2.206-.008-.135.024-.23.032-.374.016-.2-.143-.43-.35-.543a.488.488 0 0 0-.208-.055c-.183.016-.31.071-.414.24-.27.445-.334.764-.964 1.808-.295.501-.7.947-1.035 1.504-.056.104-.199.303-.207.566a.48.48 0 0 0 .222.423.626.626 0 0 0 .303.08c.67-.08 1.092-.797 1.578-.75.112 0 .222.032.382.12.168.103.494.446.661.67l2.104 2.867c.064.096.127.184.174.263a4.904 4.904 0 0 0-.343-.048l-3.91-.66c-.367-.057-.478-.073-.734-.232-.246-.159-.277-.31-.277-.558-.009-.167.023-.343.023-.55.008-.15-.023-.406-.256-.549a.766.766 0 0 0-.397-.119.374.374 0 0 0-.35.191c-.336.55-.622 1.242-1.308 2.39-.19.31-1.059 1.537-1.56 2.373-.072.112-.152.231-.152.422-.008.2.128.374.286.462.12.072.248.112.375.112.988-.19 1.06-1.545 2.35-1.514a2.3 2.3 0 0 1 .32.024l7.248 1.092c.374.064.757.143.788.174.072.033.391.351.741.813l3.154 4.326a.853.853 0 0 1 .168.263h-.047c-.136 0-.335-.024-.486-.056l-14.06-2.238c-.248-.032-.503-.12-.598-.184-.279-.175-.31-.382-.319-.677-.008-.159.016-.318.016-.494 0-.167-.007-.414-.255-.58a.892.892 0 0 0-.374-.12.471.471 0 0 0-.399.246c-.357.598-.612 1.227-.948 1.785-.405.677-.939 1.338-1.369 2.055-.096.16-.176.35-.176.582a.665.665 0 0 0 .32.582.593.593 0 0 0 .278.071M273.431 52.112c.413-.016.725-.327.868-.398.342-.248.613-.327.852-.343.614-.008 1.26.582 1.896 1.227l9.097 9.01c.773.748 1.187 1.266 1.171 1.688a.88.88 0 0 1-.055.302c-.224.71-.415.901-.438 1.275 0 .136.047.263.12.367a.565.565 0 0 0 .397.2c.24-.009.383-.152.51-.272.804-.805 1.57-1.704 2.343-2.509 1.44-1.554 3.066-2.947 4.572-4.46.78-.798 1.354-1.323 1.345-2.534 0-.096 0-.2-.007-.31-.048-1.013-.223-2.279-1.028-3.092-.072-.055-.19-.183-.462-.207a.442.442 0 0 0-.319.136c-.127.127-.103.255-.119.342.008.223.047.486.047.876-.007 1.163-.35 3.306-3.36 6.357-.717.717-1.155.956-1.403.95-.319.023-.709-.385-1.378-1.069l-3.664-3.64c-.24-.215-.415-.415-.39-.446 0-.017.007-.057.111-.169l2.916-2.939c.414-.422.732-.533 1.011-.533.685-.024 1.211.75 1.92.836a.605.605 0 0 0 .423-.183c.095-.104.182-.239.182-.399 0-.19-.096-.334-.223-.47-.55-.533-1.108-1.01-1.617-1.513-.629-.63-1.267-1.338-1.968-2.032-.159-.143-.342-.294-.62-.302a.435.435 0 0 0-.359.151.442.442 0 0 0-.15.36c.063.573.596.955.58 1.648 0 .406-.176.908-.836 1.577l-2.136 2.151c-.39.43-.573.518-.573.525-.016.01-.135-.079-.47-.429l-3.704-3.673c-.629-.606-.876-.916-.845-1.044-.047-.167.383-.66 1.442-1.696.741-.789 2.662-2.82 3.61-2.765h.078c.486.04.965.95 1.69 1.036a.556.556 0 0 0 .43-.19.463.463 0 0 0 .127-.335c-.03-.463-.39-1.068-2.104-2.797-.198-.183-.373-.358-.684-.374a.457.457 0 0 0-.342.143c-.622.622-2.359 2.541-2.74 2.932-.814.82-1.937 1.792-5.673 5.561-.398.422-.58.63-.605.955a.466.466 0 0 0 .16.36.485.485 0 0 0 .374.158M296.858 42.266c2.908-.015 6.07-1.927 8.34-1.903.957.007 1.714.294 2.335 1.195.494.717.7 1.449.7 2.166 0 1.569-1.027 3.099-2.484 4.094-1.196.813-2.35 1.092-3.378 1.092-1.633.008-2.971-.725-3.53-1.22-.334-.278-.501-.573-.923-.612a.664.664 0 0 0-.374.127.562.562 0 0 0-.255.478c.008.303.174.558.455.829l2.62 2.597c.207.159.398.167.653.175 1.019-.008 3.035-.565 4.477-1.545 3.266-2.231 4.349-4.62 4.349-6.62 0-1.266-.43-2.367-.98-3.163-1.274-1.872-2.883-2.508-4.532-2.501-2.94.017-6.062 1.88-8.27 1.864-.908-.008-1.625-.286-2.214-1.123-.405-.598-.572-1.18-.572-1.737-.01-1.338.97-2.637 2.222-3.488 1.003-.694 2.086-1.052 3.162-1.052 1.028 0 2.047.318 3.004 1.028.182.127.532.445.97.469a.582.582 0 0 0 .575-.565.75.75 0 0 0-.2-.454L300.5 29.48c-.136-.167-.32-.295-.52-.295a.538.538 0 0 0-.333.119c-.382.359-.255.662-.31.582-.057.128-1.674-.096-4.462 1.833-1.864 1.266-3.21 3.17-3.22 5.265 0 .987.313 2 .982 2.987 1.17 1.705 2.668 2.303 4.22 2.294M308.011 28.358c.112.23.28.39.565.406.057 0 .12-.008.191-.032a.665.665 0 0 0 .398-.637c0-.168-.03-.32-.048-.43a10.805 10.805 0 0 1-.079-1.06c.024-.685.111-.844 1.26-1.37l4.166-1.785.031.048c.175.192.358.718.422.869l5.743 13.43c.072.168.097.327.097.462.055.876-1.21 1.235-1.372 2.095 0 .073.017.159.05.224.063.183.238.405.493.405h.007c.12 0 .208-.023.303-.062.208-.088.59-.375 3.497-1.618.725-.311 1.483-.51 2.135-.788.192-.073.335-.288.32-.455 0-.175-.073-.286-.08-.302-.113-.296-.423-.422-.646-.406-.374.007-.773.15-1.14.15-.445-.015-.828-.12-1.21-.98l-5.632-13.16c-.263-.596-.414-.947-.398-1.002.008-.017-.008-.017.08-.057.118-.064.342-.151.67-.294l3.687-1.57c.462-.207.805-.28 1.051-.28.486.018.653.24.853.552.191.278.28.765.836.812a.775.775 0 0 0 .294-.064c.224-.088.375-.31.367-.518-.007-.247-.119-.414-.198-.55l-1.005-2c-.175-.381-.414-.708-.828-.708-.183 0-.374.064-.589.152-.526.23-2.844 1.338-7.52 3.338-3.322 1.418-5.353 2.167-7.369 3.035-.295.11-.422.422-.414.653.008.358.176.7.231.876l.781 2.62zM330.435 16.71h.397c1.173-.023 1.387 1.013 1.659 2.256l2.644 12.522c.12.582.207 1.052.207 1.41-.008.43-.104.662-.381.877-.702.58-1.093.557-1.165 1.155 0 .024.009.039.009.048.024.278.294.453.502.453h.04c.08 0 .167-.008.247-.024 1.115-.231 2.255-.557 3.338-.82 2.053-.486 4.18-.765 6.284-1.211 1.171-.222 1.983-.374 2.668-1.625.44-.74.892-1.664.892-2.613 0-.182-.014-.35-.047-.534-.04-.08-.063-.437-.517-.501-.065 0-.089.016-.103.016-.368.16-.313.358-.526.66-.528.9-1.802 2.773-6.502 3.777-.477.095-.836.135-1.106.135-.932-.016-.829-.406-1.149-1.768l-1.058-5.06c-.047-.198-.095-.38-.087-.484.023-.12-.048-.096.183-.184l4.07-.844c.182-.04.334-.056.47-.056.694.008.94.375 1.188.852.245.43.27 1.075.939 1.163.04 0 .087 0 .127-.007.248-.033.478-.288.454-.558 0-.064 0-.128-.016-.191-.158-.757-.365-1.458-.51-2.16-.183-.86-.326-1.808-.533-2.786-.063-.24-.159-.63-.628-.678a.314.314 0 0 0-.106.015c-.675.296-.358.925-.524 1.419-.144.526-.423 1.058-1.786 1.36l-2.954.623c-.358.079-.598.119-.702.119-.11.008-.055.088-.223-.63l-1.075-5.105c-.118-.518-.19-.875-.19-1.092-.05-.39.23-.437 2.198-.86.749-.158 2.27-.558 3.418-.55.54-.008.978.096 1.178.28.183.15.303.565.399.97.118.36.207.86.764.91.04 0 .087-.01.135-.016.288-.064.47-.374.454-.996 0-.518-.096-1.347-.382-2.708-.08-.295-.135-.71-.621-.765-.04 0-.072.008-.105.016-.85.183-3.36.828-3.894.932-1.14.246-2.604.43-7.798 1.529-.685.152-1.068.27-1.123.733 0 .056.014.096.024.119.166.527.66.454.923.478M350.134 12.314c0-.008.01-.008.01-.016s-.01-.024-.01-.032c.01 0 0 0 0 .048" fill="#5C2E91"/><path d="M358.204 21.101c-.525.008-1.123.031-1.624.031-.391 0-.733-.016-.956-.064a.728.728 0 0 1-.207-.079l-.088-7.113-.008-.033c.04-.868.239-.677 1.33-.748h.113c2.644.024 4.97 1.036 5.034 4.245 0 .016-.01.04-.01.08-.006 3.211-2.428 3.633-3.584 3.681zm8.835 10.818c.167-.009.629-.009 1.076-.064.325-.081.677-.033.892-.263l.167.039-.01-.318a.353.353 0 0 1-.062.143.766.766 0 0 0 .063-.166v-.009c.024-.286-.262-.518-.453-.534-.534-.151-1.483-.055-3.02-2.301l-4.604-6.772c1.873-.9 3.338-2.772 3.338-4.954h-.008c-.064-4.669-4.341-5.147-6.142-5.13-.454 0-.773.031-.844.031-1.465.016-3.06.152-4.676.167h-.28c-1.09 0-.978-.087-1.481-.087-.023 0-.047 0-.086.008-.352 0-.726.183-.765.589-.01.024-.01.056.007.096.136.741.932.605 1.402.765.526.175.987.357 1.027 1.625l.176 14.291v.031c-.016.949-.398 1.243-.86 1.498-.415.255-1.06.247-1.147.924v.031a.57.57 0 0 0 .478.551H351.298c1.092-.008 2.159-.136 3.21-.143.279-.009.55-.009.797-.009 1.578 0 2.095.064 2.374.071l.024.009.055-.009h.145c.095 0 .349-.047.477-.231h.096l-.008-.278c-.128-.836-1.02-.717-1.665-.933-.71-.214-1.243-.453-1.283-1.521l-.08-5.918c0-.12-.016-.207-.016-.279.048-.167-.11-.183.479-.247.556-.007 1.01-.016 1.37-.016 1.656.056 1.203 0 2.15 1.339l3.17 4.867c1.084 1.577 2.263 3.098 4.422 3.107h.024zM388.554 35.838a.332.332 0 0 0 .087.008c.591-.136.527-.613.733-1.347l3.418-15.884c.224-.924.582-1.091.973-1.218.35-.136.94-.033 1.13-.653 0-.048.01-.081.01-.128a.512.512 0 0 0-.44-.502c-.685-.143-1.872-.295-2.797-.493-.859-.184-1.625-.463-2.469-.638a.548.548 0 0 0-.159-.024c-.208-.024-.486.167-.518.438-.016.016-.025.072-.025.128.105.7.806.725 1.348 1.099.564.35 1.074.804 1.083 1.92 0 .278-.032.598-.112.963l-2.42 11.24-9.91-17.326c-.129-.16-.207-.741-.758-.916-.453-.095-.922-.08-1.289-.16-.39-.078-.782-.278-1.268-.39-.048-.007-.096-.015-.142-.015-.2.024-.52.024-.645.415-.018.024-.018.086-.018.134.113.725.821.694 1.354 1.116.566.383 1.116.98 1.125 2.565 0 .55-.072 1.219-.248 2.023l-2.174 10.133c-.422 1.865-1.068 2.26-1.64 2.406-.519.183-1.276-.128-1.555.669a.83.83 0 0 0-.016.159c-.024.223.207.502.51.542.231.048 1.657.239 2.614.438 1.33.287 2.055.557 2.747.709a.63.63 0 0 0 .135.015c.414-.007.542-.39.558-.51.008-.08.008-.08.008-.12-.11-.66-.724-.612-1.154-.867-.472-.24-.838-.486-.853-1.235 0-.151.024-.341.072-.55l2.422-11.224c.023-.127.047-.214.062-.278.096.135.185.335.233.422l8.938 15.813c.445.764.716 1.043 1.05 1.123M411.601 46.616c1.792 1.106 3.385 1.538 4.754 1.538 4.062-.008 6.102-3.745 6.644-4.597l4.556-7.416c.677-1.084 1.163-1.163 1.593-1.187.193 0 .4.048.614.048.208.007.501-.08.645-.327a.656.656 0 0 0 .073-.264c-.025-.253-.12-.437-.304-.572-.469-.28-.955-.447-1.378-.71-.916-.565-1.792-1.234-2.732-1.815a.509.509 0 0 0-.262-.064c-.16.007-.35.024-.502.247a.608.608 0 0 0-.12.365c.142.933 1.347 1.195 1.3 2.184 0 .294-.097.669-.392 1.154l-4.772 7.752c-1.178 1.895-2.813 3.497-5.065 3.497-1.044 0-2.255-.351-3.65-1.204-2.07-1.282-3.329-3.05-3.329-5.146 0-1.091.343-2.286 1.131-3.57l5.282-8.578c.366-.59.662-.677.955-.692.366-.01.742.239 1.163.255a.648.648 0 0 0 .542-.295c.04-.096.072-.168.072-.247-.087-.59-.692-.741-.773-.836-.757-.471-1.586-.845-2.335-1.308-.62-.373-1.163-.844-1.799-1.242a1.48 1.48 0 0 0-.646-.2c-.126 0-.302.04-.398.208a.566.566 0 0 0-.119.35c.135.877 1.283 1.29 1.227 1.952a.86.86 0 0 1-.167.486l-4.949 8.062c-1.003 1.626-1.768 3.378-1.768 5.202-.007 2.358 1.315 4.763 4.91 6.97M426.925 51.993c-.993.98-1.68 1.218-2.18 1.218-.718.017-1.092-.533-1.715-.589a.694.694 0 0 0-.462.191c-.063.072-.19.2-.19.406 0 .176.095.327.232.462.15.16 1.25 1.1 1.935 1.793.948.972 1.417 1.601 1.903 2.095a.577.577 0 0 0 .406.191.629.629 0 0 0 .456-.224.556.556 0 0 0 .158-.38c-.087-.679-.868-1.148-.844-1.866 0-.302.12-.66.597-1.132l8.166-8.06c.08-.096.15-.152.2-.2v.008c0 .192-.033.367-.033.471l-1.179 18.13c-.009.143-.009.287-.009.406 0 .59.08.9.272 1.107a.45.45 0 0 0 .295.128h.007c.405-.04.623-.335 1.124-.796l11.557-11.424c.462-.46.797-.557 1.083-.557.432-.016.757.294 1.243.327a.656.656 0 0 0 .455-.192.526.526 0 0 0 .16-.366c0-.16-.08-.288-.176-.39-.495-.494-1.41-1.276-2.072-1.937-.613-.62-1.107-1.282-1.712-1.895-.112-.104-.245-.19-.43-.19-.135-.01-.278.071-.376.166a.587.587 0 0 0-.174.422c.064.733.884 1.346.868 2.325 0 .527-.214 1.156-1.019 1.953l-8.173 8.077 1.187-19.923c.006-.103.063-.35.063-.606 0-.174-.023-.39-.199-.572-.334-.336-.725-.567-.988-.837-.278-.287-.5-.662-.844-1.02a.84.84 0 0 0-.558-.23.427.427 0 0 0-.325.134.574.574 0 0 0-.185.423c.072.71.83 1.187.821 2.254 0 .773-.406 1.864-1.975 3.426l-7.37 7.273zM442.428 70.855c-.572.383-.98.502-1.297.502-.814.032-1.053-.789-1.802-.908a.563.563 0 0 0-.342.112c-.144.08-.32.255-.32.51.01.207.096.374.248.581.24.358.638.757 1.608 2.167.671.988 1.258 2.04 1.634 2.58.191.272.328.463.621.487a.489.489 0 0 0 .303-.104.707.707 0 0 0 .28-.55c-.032-.589-.488-1.242-.47-1.824.006-.31.101-.58.516-.884l12.437-8.515c.364-.255.65-.335.883-.335.71-.032 1.005.773 1.721.884a.613.613 0 0 0 .295-.087c.102-.072.254-.207.254-.414-.007-.215-.11-.344-.248-.566-.51-.733-1.09-1.386-1.577-2.088-.564-.836-1.05-1.736-1.656-2.612-.07-.112-.185-.255-.414-.263a.673.673 0 0 0-.367.143c-.15.08-.23.287-.224.422.033.502.415 1.02.408 1.578-.009.351-.128.685-.629 1.06l-11.862 8.124zM449.598 86.899c-.366.438-1.21 1.043-1.275 1.745 0 .08.017.159.056.23.191.375.564.375.901.383.382 0 .835-.056 1.211-.056l17.946-.501h.167c1.593.024 1.18.557 1.953.725a.838.838 0 0 0 .27-.057c.208-.095.381-.326.366-.55a.826.826 0 0 0-.105-.397c-.18-.407-.435-.701-.993-1.92-.24-.533-.399-1.147-.662-1.73-.087-.205-.263-.445-.558-.445-.11 0-.215.04-.31.08-.247.088-.343.366-.327.55.007.382.175.78.175 1.099-.024.255-.056.407-.382.566-.414.303-1.363.39-1.8.406l-12.978.55c-.198.007-.388.03-.525.03-.144 0-.135-.006-.144-.006.033-.097.496-.653 1.426-1.61l8.491-9.264c.167-.184.511-.485.806-.621a.592.592 0 0 1 .302-.073c.455-.031.703.479 1.266.574a.445.445 0 0 0 .224-.055c.224-.12.28-.343.28-.51a.757.757 0 0 0-.065-.32c-.176-.381-.725-1.297-1.028-1.966-.34-.75-.588-1.586-.964-2.398-.095-.223-.31-.406-.573-.406a.713.713 0 0 0-.31.079c-.247.096-.352.374-.334.565.006.288.087.574.087.9 0 .376-.087.79-.54 1.29L449.597 86.9zM469.886 98.25l-12.474 2.836c-.613.136-1.099.231-1.458.231-.399-.007-.614-.095-.829-.35-.614-.694-.58-1.083-1.163-1.155h-.054a.532.532 0 0 0-.464.541c0 .096.017.175.032.263.257 1.108.605 2.238.877 3.314.518 2.055.83 4.174 1.315 6.27.245 1.162.405 1.975 1.664 2.644.734.414 1.65.844 2.58.852.201 0 .385-.016.582-.064.066-.04.432-.055.487-.517 0-.009 0-.048-.007-.095-.169-.375-.367-.32-.677-.527-.909-.509-2.798-1.76-3.874-6.436-.119-.5-.167-.876-.167-1.147.01-.885.423-.806 1.762-1.13l5.035-1.149c.197-.055.382-.103.492-.103.111.024.096-.04.176.2l.925 4.046c.03.183.053.358.053.501-.005.67-.366.925-.835 1.172-.438.246-1.059.286-1.148.94 0 .064.01.112.018.16.024.222.286.454.548.437a.986.986 0 0 0 .21-.024c.746-.168 1.45-.39 2.141-.54.86-.2 1.808-.352 2.78-.575.23-.079.614-.183.661-.637 0-.016 0-.047-.008-.095-.31-.694-.93-.359-1.426-.534-.525-.119-1.059-.39-1.387-1.753l-.677-2.956c-.095-.366-.134-.597-.134-.7-.015-.096-.072-.049.621-.223l5.097-1.156c.528-.127.894-.206 1.1-.206.376-.057.447.24.884 2.182.17.765.614 2.334.607 3.49.007.51-.097.915-.256 1.106-.152.176-.566.295-.964.414-.366.12-.86.208-.916.765 0 .063.025.112.032.151.055.28.366.446.932.44.526 0 1.355-.113 2.765-.43.295-.089.692-.153.755-.623 0-.016.01-.055-.006-.104-.2-.868-.886-3.369-.996-3.895-.263-1.13-.486-2.597-1.658-7.774-.167-.685-.286-1.059-.732-1.1a.515.515 0 0 0-.145.017c-.478.15-.453.62-.46.868 0 .127.007.24.007.286v.024c0 .072.008.136.008.192.01 1.131-1.01 1.37-2.23 1.656M476.147 122.563c-.03 2.596-1.026 4.85-4.166 4.946-.055.009-.117.009-.174.009-3.132-.01-3.585-2.39-3.642-3.521-.014-.605-.062-1.267-.062-1.824 0-.342.015-.645.054-.821a.823.823 0 0 1 .065-.16l7.113-.198H475.415c.813.03.63.23.732 1.314v.255m-1.767-4.301l-14.276.405h-.087c-.909-.007-1.202-.39-1.465-.851-.264-.415-.271-1.044-.932-1.125-.009 0-.016-.007-.034 0-.268.009-.548.232-.548.55v.032c.039 1.077.182 2.136.208 3.179.015.62.022 1.116.022 1.522 0 1.067-.048 1.449-.048 1.68 0 0 0 .016.009.04v.039s-.009.033-.009.08c0 .128.073.574.462.598h.032c.868-.167.742-1.036.94-1.681.209-.701.424-1.26 1.507-1.307l5.917-.174c.113 0 .209-.017.28-.017.152.056.176-.095.254.47.017.71.032 1.235.032 1.633-.039 1.354-.056 1.004-1.297 1.905l-4.829 3.258c-1.536 1.09-3.027 2.27-3.027 4.397 0 .032 0 .087.008.159 0 .095.009.558.064.996.103.406.009.844.494 1.02v.015l.033.009.024.008H458.185c.278 0 .486-.28.493-.455.152-.55.032-1.481 2.255-3.066l6.707-4.708c.916 1.847 2.772 3.266 4.922 3.266h.137c4.462-.136 4.987-4.175 4.971-6.054 0-.543-.041-.948-.041-1.004-.039-1.474-.199-3.076-.247-4.692-.007-.215-.015-.391-.015-.542 0-.79.071-.765.071-1.171v-.032c-.015-.462-.191-.844-.606-.876l-.032.008c-.007 0-.048 0-.087.016-.709.175-.557.94-.716 1.418-.16.534-.342.979-1.617 1.052M471.99 140.462a6.115 6.115 0 0 0-1.051-.095c-3.14.015-4.556 2.604-5.72 5.05-1.187 2.478-2.183 4.772-4.175 4.74-.158 0-.334-.025-.508-.056-2.335-.39-3.37-2.342-3.385-4.509 0-.374.03-.74.095-1.107a5.744 5.744 0 0 1 4.883-4.907c.5-.03 1.098.064 1.24-.589v-.112c-.022-.478-.491-.66-1.001-.66-.033 0-.066 0-.087.007l-3.681.096c-.91.198-2.127 2.5-2.558 4.651-.15.853-.215 1.634-.215 2.35-.01 4.653 2.804 6.508 4.93 6.851.409.071.79.095 1.157.095 3.272 0 4.755-2.596 5.95-5.026 1.188-2.478 2.15-4.764 4.078-4.724.152 0 .319.016.487.04 1.967.335 2.699 1.951 2.716 3.751 0 .352-.024.71-.087 1.053-.408 2.35-1.857 4.046-4.262 4.468-.256.088-.942.04-1.148.67-.015.04-.01.103-.01.127-.005.406.4.557.63.557l3.833.216h.135c.31 0 .58-.264.59-.486v-.112c-.04-.39-.247-.51-.224-.525l.009.008c-.04-.144 1.234-1.147 1.784-4.493.072-.494.119-.988.119-1.474.018-2.748-1.386-5.337-4.524-5.855M472.595 160.974a.243.243 0 0 0-.15-.03c-.567.094-.622.564-.918.93-.278.382-.573.686-1.107.694-.152 0-.325-.024-.534-.088l-13.66-4.468c-1.37-.478-1.419-1.029-1.449-1.594 0-.19.03-.398.03-.598.017-.23-.078-.605-.439-.716a.766.766 0 0 0-.269-.057c-.336 0-.542.296-.647.662-.143.415-.206.972-.733 2.597-.373 1.131-.85 2.231-1.065 2.868a1.427 1.427 0 0 0-.096.477c-.023.232.215.462.364.486a.818.818 0 0 0 .2.024c.597-.055.748-.613 1.06-1.026.294-.448.604-.798 1.084-.79.135 0 .271.016.436.072l14.332 4.684c.948.342.99.781 1.02 1.307 0 .191-.016.39-.016.573-.015.231.048.581.391.7.063.017.12.041.206.041.352-.024.471-.319.566-.629.278-.853.44-1.714.702-2.518.318-.972.74-1.895 1.067-2.9.023-.087.04-.143.048-.239 0-.27-.256-.429-.423-.462M467.473 173.896l-2.263-1.538a.7.7 0 0 0-.326-.087c-.16 0-.382.064-.494.278a.62.62 0 0 0-.087.31c.04.432.366.59.486.734.725.733 1.05 1.068 1.036 1.457 0 .255-.112.614-.407 1.18l-2.102 4.007c-.192.015-.79-.327-.925-.422h-.009l-12.926-6.772c-.528-.28-.615-.622-.624-1.083 0-.407.111-.83.12-1.203 0-.215-.048-.502-.319-.637a.75.75 0 0 0-.358-.104c-.247-.008-.414.183-.478.35-.104.19-.229.662-1.68 3.457-.369.694-.837 1.339-1.156 1.96a.454.454 0 0 0-.08.256c.024.38.351.469.366.493a.67.67 0 0 0 .295.072c.893-.176 1.035-1.33 1.945-1.282.215 0 .493.064.853.255l12.69 6.635c.39.215.67.342.812.438.135.088.12.088.126.096.018.016-.11.287-.358.74l-1.856 3.56c-.5.925-.89 1.077-1.195 1.077-.39.016-.758-.295-1.235-.327-.22-.016-.462.144-.573.374a.548.548 0 0 0-.072.294c.033.463.43.543.621.646l2.04.908c.23.105.423.184.645.184.382 0 .63-.286.804-.646.272-.51 1.364-2.835 3.713-7.344 1.68-3.202 2.781-5.058 3.8-7.01.04-.112.072-.2.072-.302-.056-.646-.7-.845-.9-1.004M456.05 195.045c-.662.103-1.012.852-1.95.844-.08 0-.17-.007-.257-.024l-8.772-1.099c-.42-.032-1.082-.095-1.375-.35l-5.276-4.303c-.414-.35-.51-.629-.51-.899-.024-.526.471-1.027.51-1.602a.589.589 0 0 0-.206-.469c-.128-.096-.256-.16-.399-.16-.287.016-.412.191-.517.32-.184.221-.718 1.051-1.506 2.023-.653.796-1.76 1.974-2.04 2.325-.173.207-.334.374-.349.67 0 .151.086.294.191.381.11.096.263.144.397.144.725-.08 1.172-.844 1.906-.812.295 0 .653.111 1.106.486l5.33 4.35c.221.166.2.35.47 1.194l2.253 6.915c.223.7.52 1.345.52 1.998 0 .104-.009.21-.025.328-.018.08-.128.342-.128.613 0 .16.048.358.215.486a.577.577 0 0 0 .39.127.576.576 0 0 0 .44-.184c.54-.652.963-1.354 1.457-1.967.406-.5.94-.972 1.385-1.52.12-.16.262-.336.262-.599a.613.613 0 0 0-.254-.502.517.517 0 0 0-.342-.127c-.717.112-1.21 1.051-1.737.996-.104 0-.223-.032-.38-.16-.502-.422-.616-.924-.735-1.315l-1.799-5.2c-.104-.255-.145-.439-.145-.519h-.007c.023-.008.071-.032.23-.024.072 0 .168.008.287.016l6.334.79c.32.031.836.071 1.074.286.104.088.137.183.143.36 0 .286-.152.66-.167 1.018 0 .151.057.351.208.47a.524.524 0 0 0 .311.12c.35-.032.501-.263.621-.39.208-.248.59-.885 1.163-1.586 1.195-1.482 1.611-1.808 2.103-2.414a.572.572 0 0 0 .128-.366.712.712 0 0 0-.256-.566.512.512 0 0 0-.302-.103M305.74 215.637l-3.417 2.143-2.853-2.31.981 3.464-3.027 1.993 3.69.414 1.154 3.536 1.33-3.385 3.608.238-2.859-2.31zM339.485 223.268c-.01 0-.04-.015-.064-.024h-.055c-.367.048-1.531.701-3.291.884-1.498.192-2.158-.088-2.485.701-.016.041-.016.096-.016.136a.58.58 0 0 0 .406.541.854.854 0 0 0 .255.025c.27 0 .678-.031 1.027-.031.2-.009.375.006.462.038.486.161.51.264.534.549 0 .256-.103.629-.231 1.094l-3.528 12.417c-.303.957-.742 1.067-1.315 1.085-.438.015-.884-.122-1.267-.128-.223-.017-.557.096-.63.414a.476.476 0 0 0-.038.192c.03.438.42.54.692.62.772.223 2.319.543 3.29.82 1.012.287 1.873.646 2.748.9.255.064.534.153.805.153h.024c.19 0 .46-.096.549-.367a.705.705 0 0 0 .017-.184c-.13-.701-.83-.669-1.355-.946-.574-.263-1.035-.567-1.043-1.412 0-.238.04-.524.135-.867l3.99-14.084c.265-.924.535-1.179.702-1.72.016-.088.04-.176.04-.272.016-.176-.095-.462-.358-.534M356.897 230.772c-.143 1.777-1.13 2.947-2.652 2.947h-.223c-1.633-.12-3.657-1.56-3.64-3.686 0-.09 0-.17.007-.24.128-1.72 1.363-2.773 3.004-2.788.095 0 .183.006.278.015 1.912.152 3.226 1.602 3.235 3.457 0 .089-.009.185-.009.295m-.318 10.236c0 .064-.008.153-.008.248-.184 2.213-1.522 3.663-3.713 3.68-.119 0-.238 0-.366-.017-2.302-.15-3.83-2.723-3.824-4.955 0-.11 0-.238.01-.348.118-2.106 2.118-3.881 3.074-3.825h.079c.67.23 4.796 2.357 4.748 5.217m2.206-10.101c.008-.183.016-.341.016-.501.017-2.837-1.967-4.501-4.77-4.684-.145-.008-.28-.023-.424-.023-2.716 0-5.13 1.998-5.329 4.826-.007.104-.007.215-.007.328 0 1.607.844 3.099 2.158 3.997-2.055.989-3.52 2.678-3.697 5.1a6.11 6.11 0 0 0-.023.525c-.008 3.328 2.421 5.56 5.346 5.768.183.015.374.024.565.024h.016c3.314 0 5.886-2.303 6.134-5.73.015-.173.015-.333.015-.5.008-2.31-1.242-4.04-3.13-5.203 1.57-.715 2.98-2.07 3.13-3.927M370.098 231.95c-.304 0-.622.033-.94.066-.67.079-1.307.263-1.92.469l.255-3.672c.04-.573.31-.557 1.114-.686l3.06-.391c.963-.125 1.578-.047 1.92-.764.183-.453.732-2.15.75-2.612v-.024c-.018-.303-.329-.438-.448-.422-.039 0-.07.008-.087.008-.773.295-.462.987-1.737 1.155l-4.668.597c-1.21.144-1.306.908-1.298 1.746l-.399 7.065c-.007.048-.007.078-.007.078.015.352.31.528.573.528h.08c.518-.08 1.378-.432 2.087-.52.326-.047.636-.07.932-.07 3.178.023 3.752 2.358 3.966 3.847.033.32.057.629.057.925-.009 3.177-2.2 5.12-4.86 5.473-.334.03-.622.048-.876.048-1.1 0-1.513-.28-1.88-.304-.048 0-.055.017-.055.008-.279 0-.455.326-.424.486 0 .064.01.112.01.135.214.566 1.074.838 2.78.9.373 0 .787-.014 1.241-.08 5.218-.653 6.596-4.94 6.581-7.773 0-.366-.015-.718-.056-1.037-.406-3.186-2.718-5.194-5.75-5.178M394.075 238.897c-.494.018-1.052.304-1.61.286-.564-.015-1.074-.19-1.512-1.384l-4.597-13.598c-.318-.9-.238-1.252-.405-1.777-.065-.183-.191-.486-.566-.51a.591.591 0 0 0-.176.033c-.318.206-.318.437-.74.939a10.196 10.196 0 0 1-1.506 1.65c-1.003.899-1.584 1.035-1.657 1.703a.8.8 0 0 0 .04.248c.095.27.342.357.543.357.039 0 .086 0 .134-.014.358-.153 1.107-.854 1.44-.956a1.23 1.23 0 0 1 .36-.072c.35-.032.518.383.798 1.227l4.068 12.005c.075.247.105.454.105.63 0 .587-.374.874-.845 1.138-.453.293-1.026.318-1.14.947 0 .08.018.145.034.175.047.215.286.4.5.4h.025c.167 0 .31-.048.47-.096.75-.256 2.176-.861 3.124-1.181.969-.334 1.87-.525 2.715-.811.366-.167.915-.182 1.012-.781 0-.04 0-.096-.023-.152-.08-.278-.384-.421-.591-.406M423.63 214.705l-2.766 2.422-3.48-2 1.53 3.712-2.765 2.422 3.591-.374 1.444 3.321 1.035-3.568 3.68-.55-3.114-1.881zM297.281 171.729c-1.02.597-2.119.916-3.179.916-1.602 0-3.075-.71-4.022-2.327a5.378 5.378 0 0 1-.757-2.756c-.008-2.286 1.45-4.5 3.553-5.735 1.123-.653 2.222-.956 3.242-.956 1.721.008 3.178.844 4.038 2.302.525.916.765 1.84.765 2.764 0 2.303-1.49 4.54-3.64 5.792m5.257-3.991c.39.182.852.278 1.338.278.454 0 .933-.096 1.354-.334.176-.103.367-.286.367-.542a.647.647 0 0 0-.096-.334.465.465 0 0 0-.422-.223c-.374.016-.796.214-1.234.214-.375-.007-.694-.111-1.02-.636-.327-.55-.438-1.538-.43-2.653 0-.995.072-2.095.072-3.1 0-1.113-.08-2.126-.479-2.827-.868-1.466-1.84-2.086-2.47-2.11a.507.507 0 0 0-.325.095.483.483 0 0 0-.247.398c0 .08.031.167.08.247.246.295.796.486 1.003.868.192.335.342.67.342 1.354 0 .08 0 .185-.007.287a42.34 42.34 0 0 0-.096 2.502c0 .152 0 .27.008.39-1.394-1.458-3.155-2.262-5.042-2.254-1.307 0-2.66.374-3.976 1.155-2.334 1.362-3.576 3.64-3.576 6.038 0 1.298.35 2.62 1.082 3.863 1.395 2.374 3.776 3.744 6.301 3.744 1.228 0 2.503-.335 3.697-1.027 2.2-1.283 3.585-3.234 3.776-5.393M284.63 157.916l6.278-1.897c2.295-.677 4.477-2.04 4.469-5.121 0-.79-.143-1.696-.454-2.733-.988-3.338-3.18-4.173-4.907-4.15-1.155 0-2.143.343-2.501.446l-5.768 1.744a2.35 2.35 0 0 1-.677.12c-.741.025-.59-.525-1.314-.694-.057 0-.112.017-.176.034-.27.103-.318.326-.325.493 0 .048.007.104.015.144.128.374.295.684.39 1.002.215.702.359 1.45.582 2.191.119.24.215.288.47.327.023 0 .055 0 .103-.007.352-.095.447-.456.43-.678 0-.207-.031-.398-.031-.597.032-.415.048-.725.907-1.011l6.03-1.817c.614-.2 1.252-.32 1.873-.31 1.498.015 2.843.66 3.592 3.059.167.573.255 1.122.255 1.656-.015 1.704-.875 3.09-3.066 3.768l-6.676 2.016a1.44 1.44 0 0 1-.366.054c-.295 0-.398-.119-.542-.334-.143-.175-.207-.534-.653-.589a.382.382 0 0 0-.151.024c-.256.08-.311.334-.303.462 0 .246.103.486.11.525.185.599.43 1.18.607 1.745.143.478.215.963.367 1.482.086.135.079.438.549.541.024 0 .056 0 .095-.016.367-.111.422-.485.414-.716 0-.175-.016-.367-.016-.525.016-.35.024-.518.39-.638M285.205 131.612c.008 0 .008-.007.016-.007a.214.214 0 0 1 .008.079l.223 3.824-4.604-1.816 4.357-2.08zm-7.728 1.76s-.015.08.057.168c.206.454.685.422 2.956 1.378l10.163 4.063c.486.199.638.446.75.693.127.199.11.58.556.669.024 0 .033.008.04.008v-.008c.2-.008.392-.104.463-.286l.039-.025-.007-.103-.008-.048c-.033-.534-.136-1.051-.16-1.554-.007-.143-.016-.295-.016-.445 0-.232.009-.463.009-.71 0-.16 0-.318-.01-.478-.006-.103.01-.238-.047-.413-.031-.176-.28-.376-.518-.352h-.007c-.01 0-.04 0-.104.017-.541.135-.374.669-.453.916-.105.295-.112.462-.678.526h-.071a2.27 2.27 0 0 1-.51-.081l-2.78-1.082c-.263-.112-.263-.263-.288-.654l-.255-4.262v-.071c.017-.334.096-.334.543-.573l1.536-.701c.527-.24 1.42-.686 1.72-.686.018-.007.025-.007.025-.007.159 0 .23.103.35.389.12.208.16.622.607.71h.008l.024.008h.055c.462-.08.429-.486.438-.606v-.096c-.04-.572-.152-1.09-.176-1.592-.047-.773-.015-1.578-.063-2.391 0-.071-.04-.51-.438-.51h-.008c-.008-.008-.04-.008-.111.016-.463.136-.407.599-.455.87-.04.34-.112.668-.453.923-.606.454-1.394.732-2.12 1.075l-9.75 4.62c-.103.112-.71.072-.853.686zM282.329 113.275c-.127-.462-.485-.605-2.461-.941-.081-.015-.16-.015-.224-.015-.167-.016-.486.063-.533.375-.088.612-.28 2.389-.327 2.772-.111.788-.343 1.792-.876 5.425-.023.167-.032.31-.032.437-.048.247.152.565.398.582l.056-.04v.04c.566-.103.534-.622.62-.71.193-.573.464-.645.973-.676.248 0 .534.055.829.096l8.77 1.29c.933.127 1.299.247 1.378.589.223.582.08.877.542 1.092a.662.662 0 0 0 .128.023c.334 0 .453-.326.462-.493.12-.78.183-1.601.27-2.367.168-1.441.503-2.883.717-4.364.048-.335.096-.614.096-.885.008-.437-.136-.852-.526-1.307-.446-.55-1.075-1.202-1.896-1.33-.031-.007-.055-.007-.088-.007-.071 0-.326 0-.437.254-.04.056-.032.104-.04.143.112.454.382.463.708 1.06.31.542.63 1.403.63 2.82 0 .502-.048 1.067-.143 1.713-.191 1.092-.296 1.083-.63 1.115-.191 0-.486-.056-.86-.12l-3.545-.51c-.351-.055-.351-.047-.343-.087v-.04l.424-2.851c.127-.701.389-.734.779-.806.343-.086.932.136 1.14-.508v-.08c.023-.247-.224-.462-.446-.471-.534-.08-1.036-.12-1.53-.191-.597-.08-1.242-.223-1.927-.32-.048-.006-.104-.006-.144-.006-.16 0-.485.032-.557.389-.01-.007-.01.04-.01.073.113.542.535.47.774.66.27.177.502.375.51 1.02 0 .128-.008.264-.032.423l-.303 2.079c-.032.23-.064.39-.08.446a3.06 3.06 0 0 1-.374-.048l-3.576-.525c-.925-.183-.853-.064-.877-.407 0-.223.064-.637.159-1.266.08-.781.383-2.804.885-2.996a.753.753 0 0 1 .286-.04c.183-.008.415.033.646.033.2.024.58-.088.637-.454l.008-.057-.008-.031zM297.074 101.047c-.048-1.29-.224-1.777-.455-2.024l-1.68-1.083a.45.45 0 0 0-.223-.063c-.184.015-.343.086-.438.301-.033.048-.033.112-.033.152a.61.61 0 0 0 .28.487c.413.318 1.194 1.664 1.178 3.4 0 .678-.11 1.427-.39 2.192-.86 2.372-2.916 3.376-5.178 3.385a8.198 8.198 0 0 1-2.765-.502c-2.589-.94-4.11-2.597-4.11-4.883 0-.653.13-1.362.4-2.128.82-2.26 2.333-3.05 4.667-3.488.016-.024.08-.024.151-.024.222.024.582.024.813-.359.008-.055.024-.096.024-.15-.215-.702-.86-.519-1.729-.869-.82-.247-1.187-.39-1.49-.39-.143-.024-.39.111-.42.278a.41.41 0 0 0-.042.2c.01.174.057.301.057.325-.04.256-1.96.972-3.17 4.39a7.308 7.308 0 0 0-.455 2.494c0 3.083 2.031 5.798 5.113 6.906a7.654 7.654 0 0 0 2.622.486h.007c2.877 0 5.338-1.808 6.405-4.788.661-1.855.861-3.25.861-4.245M298.276 94.793c1.633 0 3.314-.924 4.867-3.329.82-1.29 1.156-2.422 1.156-3.426-.009-2.796-2.54-4.254-3.123-4.628l-5.058-3.274c-.7-.47-.742-.765-.758-1.029 0-.143.04-.286.04-.469.008-.143-.064-.382-.254-.494a.379.379 0 0 0-.239-.079.61.61 0 0 0-.455.246c-.215.335-.334.67-.509.95-.414.62-.877 1.21-1.298 1.863-.08.103-.057.167-.064.23.007.113.016.271.191.407a.641.641 0 0 0 .318.095c.733-.136.892-.899 1.498-.86.183 0 .43.064.772.287l5.282 3.425c1.26.812 2.31 1.928 2.303 3.41 0 .725-.248 1.561-.869 2.532-.892 1.37-2.096 2.192-3.465 2.192-.765 0-1.594-.256-2.493-.838l-5.855-3.783c-.376-.255-.407-.422-.423-.597-.008-.224.168-.47.192-.829a.499.499 0 0 0-.24-.422.365.365 0 0 0-.215-.072c-.5.081-.58.518-.653.566-.343.526-.613 1.084-.94 1.594-.27.413-.605.78-.892 1.218-.07.12-.143.27-.159.503 0 .095.024.246.167.341a.596.596 0 0 0 .302.088c.685-.112.964-.86 1.347-.805.088 0 .175.024.303.104l5.497 3.561c1.145.74 2.39 1.322 3.72 1.322h.007zM319.14 72.45c-.51.063-.757.445-1.108.421-.175 0-.383-.072-.693-.367l-6.747-6.874c-.518-.534-.645-.884-.638-1.115-.023-.39.358-.557.446-1.075a.48.48 0 0 0-.143-.35.555.555 0 0 0-.382-.176.44.44 0 0 0-.302.127c-.263.247-.327.414-.63.693-.033.031-.55.407-.725.558-.128.103-.159.278-.159.39.007.287.136.566.16.71l2.93 9.964c.104.343.183.638.231.821-.079-.024-.19-.064-.334-.11L300.97 71.97c-.12-.039-.295-.206-.598-.222a.57.57 0 0 0-.366.151c-.278.263-.478.558-.709.765-.246.24-.558.406-.844.677-.096.088-.224.215-.24.446 0 .12.056.231.128.31a.493.493 0 0 0 .367.168c.414-.04.573-.27 1.003-.263.478-.008 1.338.303 2.804 1.88 1.378 1.498 2.613 3.163 4.597 5.648.382.478.47.79.47.996.023.35-.287.462-.359.963 0 .136.072.28.167.375a.5.5 0 0 0 .375.175.529.529 0 0 0 .311-.119c.294-.27.454-.517 1.187-1.21.406-.384 1.098-.909 1.307-1.1.134-.152.318-.263.341-.566a.387.387 0 0 0-.119-.302.513.513 0 0 0-.39-.183c-.518.055-.797.43-1.243.413-.295 0-.71-.143-1.29-.82l-4.262-4.93 8.635 3.44c.08.025.342.192.645.2.08 0 .2-.017.303-.103a.472.472 0 0 0 .127-.336c-.008-.366-.239-.932-.263-1.05l-2.62-8.772a1.248 1.248 0 0 1-.088-.35c.08.055.175.143.271.255l5.281 5.41c.263.278.32.476.327.636.007.287-.255.51-.295.948 0 .143.056.286.151.39a.44.44 0 0 0 .32.152.488.488 0 0 0 .341-.152c.375-.35.773-.828 1.204-1.219.557-.518 1.1-.915 1.393-1.187.104-.119.311-.222.343-.549a.422.422 0 0 0-.12-.287.571.571 0 0 0-.422-.199M327.67 67.517a5.42 5.42 0 0 1-2.612.687c-2.358 0-4.63-1.593-5.84-3.825-.533-.987-.82-2.04-.82-3.043.009-1.664.749-3.194 2.455-4.117h.007c.86-.471 1.728-.687 2.605-.687 2.342 0 4.588 1.555 5.79 3.746.583 1.083.845 2.133.845 3.114 0 1.785-.891 3.282-2.43 4.125m5.545 2.008c1.498-.844 2.15-1.8 2.175-2.42a.55.55 0 0 0-.064-.28c-.048-.103-.175-.279-.406-.287a.481.481 0 0 0-.255.073c-.303.239-.51.772-.892.971-.32.168-.638.303-1.234.31-.128 0-.263-.007-.415-.022-1.49-.136-2.358-.184-2.875-.184h-.017c1.553-1.395 2.422-3.212 2.422-5.187 0-1.235-.343-2.517-1.036-3.8-1.322-2.445-3.672-3.76-6.15-3.76a7.569 7.569 0 0 0-3.663.965c-2.493 1.353-3.96 3.8-3.96 6.396 0 1.172.295 2.359.916 3.505 1.227 2.238 3.123 3.688 5.28 3.944a3.163 3.163 0 0 0-.324 1.434c0 .43.079.868.294 1.258.103.191.279.382.54.382a.675.675 0 0 0 .32-.08.47.47 0 0 0 .239-.436c-.008-.36-.184-.758-.175-1.172.008-.4.103-.734.67-1.044.468-.254 1.233-.358 2.126-.358 1.298 0 2.843.191 4.174.191.9-.009 1.705-.08 2.31-.4M346.78 55.474l-1.56-5.816a2.48 2.48 0 0 1-.095-.637c-.024-.797.557-.598.733-1.354a.486.486 0 0 0-.024-.143c-.103-.296-.327-.343-.503-.35a.773.773 0 0 0-.135.014c-.366.097-.676.272-1.004.352-.71.191-1.465.318-2.214.51-.24.103-.295.206-.343.47 0 .04.008.08.016.11.087.367.486.455.717.44.152 0 .31-.017.462-.017.455.024.78.024 1.06.94l1.624 6.086a6.4 6.4 0 0 1 .256 1.721c-.024 1.57-.685 2.955-3.18 3.648a6.076 6.076 0 0 1-1.512.207c-1.77-.016-3.194-.915-3.816-3.186l-1.8-6.748a1.256 1.256 0 0 1-.064-.342c.016-.31.144-.398.366-.542.175-.143.55-.19.606-.653 0-.055-.008-.095-.016-.143-.08-.27-.351-.335-.478-.319-.231 0-.462.095-.51.104-.598.16-1.178.398-1.76.55-.478.127-.972.182-1.482.318-.152.08-.462.055-.574.534.009.064.017.088.017.096.128.405.54.438.788.43h.366c.399.015.58.023.709.414l1.689 6.324c.614 2.374 1.952 4.644 5.17 4.644h.024c.732 0 1.585-.119 2.525-.365 3.498-.925 4.334-3.21 4.318-4.97 0-1.077-.287-1.984-.375-2.327M361.216 56.9c-.048 0-.12.031-.12.031l.008.016c-.431.207-.39.565-1.107 1.068-.678.501-1.88 1.06-4.078 1.187h-.351c-1.116-.072-.797-.12-.932-1.275l-.208-3.569c-.007-.103-.015-.19-.015-.27 0-.064.015-.08.008-.08 0 0 0-.017.079-.008l2.869-.16h.095c.62.017.7.247.852.614.143.32.047.9.685 1.003h.023c.248 0 .479-.255.463-.5v-.034c-.032-.549-.096-1.05-.12-1.545-.04-.613-.04-1.266-.071-1.952-.032-.198-.056-.557-.502-.62-.047 0-.128.031-.128.031l.009.008c-.502.2-.32.661-.486.932-.152.32-.343.622-1.283.693l-2.095.12c-.167.008-.287.008-.367.008h-.103v-.04c-.016-.072-.016-.19-.032-.335l-.191-3.608a5.532 5.532 0 0 1-.032-.558c.032-.517-.12-.326 1.529-.486.35-.016.94-.072 1.522-.072.725-.016 1.434.12 1.586.342.079.088.119.391.158.686.024.255.072.717.567.756h.023c.415-.095.549-.405.558-1.624 0-.27-.01-.598-.032-.989-.016-.214-.024-.612-.478-.668-.08 0-.064.008-.08.008-.558.024-2.342.2-2.716.223-.796.04-1.824.016-5.49.23-.508.01-.9.104-.93.52 0 .038.007.054.007.062.15.574.742.431.82.502.845.064.869.725.94 1.65l.494 8.85c.009.206.016.397.016.564-.007.558-.071.766-.318.893-.533.334-.845.263-.972.773 0 .351.35.477.518.47h.064c.789-.048 1.609-.144 2.374-.215 1.457-.119 2.939-.088 4.42-.167.82-.024 1.442-.057 2.064-.869.422-.525.916-1.226.923-2.023v-.08c-.023-.064.017-.422-.437-.494M396.25 54.582a.591.591 0 0 0-.207-.048.627.627 0 0 0-.27.072c-.114-.096-.71-1.084-2.703-1.928a5.613 5.613 0 0 0-2.26-.494c-1.445-.009-2.822.685-3.505 2.278a3.699 3.699 0 0 0-.353 1.546c.096 3.44 5.226 4.867 5.093 7.025 0 .232-.058.462-.168.725-.495 1.132-1.45 1.594-2.526 1.602a4.345 4.345 0 0 1-1.688-.367c-2.016-.876-2.454-2.613-2.454-3.617 0-.152.008-.286.022-.39.026-.199.074-.342.082-.534.024-.167-.12-.43-.327-.494a.556.556 0 0 0-.198-.04c-.382.033-.526.351-.615.701l-.534 2.47c-.024.064-.007.104-.014.104.086.708 1.384 1.855 2.755 2.517 1.212.517 2.262.741 3.161.741h.01c2.175 0 3.418-1.299 3.904-2.431.262-.612.373-1.17.373-1.695-.087-3.554-5.186-4.972-5.043-7.059 0-.214.047-.438.16-.693.4-.932 1.13-1.259 1.998-1.266.51 0 1.063.136 1.555.343 1.396.613 2.255 1.728 2.255 3.242 0 .087 0 .183-.01.287a2.505 2.505 0 0 0-.014.271c.014.198-.024.501.31.701a.716.716 0 0 0 .224.039c.295 0 .42-.256.462-.406l.78-2.534c.022-.079.04-.143.04-.222a.495.495 0 0 0-.296-.446M407.848 71.477l3.473-4.93c.47-.638.772-.71 1.005-.71.181-.007.334.048.557.064a.558.558 0 0 0 .47-.239.48.48 0 0 0 .088-.255.593.593 0 0 0-.233-.446c-.318-.223-.644-.359-.916-.55-.596-.43-1.177-.932-1.816-1.378-.104-.064-.182-.064-.254-.071-.112.007-.256.016-.39.183a.54.54 0 0 0-.113.327c.12.708.844.908.805 1.481 0 .192-.072.447-.31.789l-3.639 5.146c-.847 1.194-1.962 2.174-3.37 2.174-.758 0-1.625-.278-2.622-.98-1.298-.915-2.055-2.095-2.055-3.409 0-.804.278-1.673.931-2.596l4.017-5.704c.263-.351.43-.391.588-.399.247-.016.495.199.868.231a.524.524 0 0 0 .423-.223.527.527 0 0 0 .072-.238c-.072-.47-.486-.582-.534-.662-.51-.358-1.067-.645-1.554-.988-.406-.286-.763-.629-1.196-.939-.119-.072-.269-.176-.516-.191a.407.407 0 0 0-.328.174.466.466 0 0 0-.096.312c.096.66.806.971.758 1.345 0 .08-.024.168-.11.311l-3.794 5.346c-.82 1.163-1.465 2.445-1.465 3.839-.009 1.585.868 3.234 3.13 4.819 1.323.932 2.517 1.306 3.554 1.306 2.684-.007 4.181-2.389 4.572-2.939M410.318 78.998l5.957-5.243c-.007.049-.016.089-.016.127l-1.545 12.477a3.914 3.914 0 0 0-.032.477c0 .294.057.493.176.645.07.08.185.12.28.12h.006c.335-.032.486-.231.845-.519l8.443-7.44c.304-.27.51-.317.68-.317.286-.025.483.23.907.27a.485.485 0 0 0 .349-.127c.089-.089.16-.192.16-.337a.447.447 0 0 0-.136-.31c-.326-.373-.923-.931-1.354-1.425-.398-.439-.707-.916-1.107-1.379a.511.511 0 0 0-.367-.166.452.452 0 0 0-.302.12c-.12.078-.176.254-.167.365.055.55.526.956.51 1.553 0 .352-.142.773-.748 1.315l-5.816 5.123 1.593-13.52c0-.063.063-.263.063-.484a.585.585 0 0 0-.135-.398c-.224-.248-.486-.431-.653-.623-.176-.19-.302-.462-.542-.732a.639.639 0 0 0-.454-.207.364.364 0 0 0-.263.096.456.456 0 0 0-.182.373c.054.535.492.846.484 1.475 0 .51-.27 1.25-1.48 2.31l-5.387 4.739c-.667.598-1.121.74-1.431.734-.51.023-.703-.4-1.243-.47a.616.616 0 0 0-.368.133.487.487 0 0 0-.166.353c0 .159.07.263.158.366.113.128.82.82 1.267 1.314.62.709.908 1.154 1.243 1.528a.444.444 0 0 0 .35.168.54.54 0 0 0 .352-.144.486.486 0 0 0 .149-.341c-.071-.534-.531-.846-.51-1.267.009-.19.074-.422.432-.733M422.466 95.718l8.691-4.772c.317-.191.525-.295.588-.32.041.049.128.2.247.432l1.34 2.446c.182.342.247.58.247.74.063.51-.614.383-.829 1.13 0 .105.04.208.078.288.08.143.256.264.423.255.215-.008.343-.12.447-.184l1.313-.827c.232-.144.462-.32.462-.638 0-.175-.054-.318-.152-.494-.197-.35-1.122-1.864-2.803-4.947-1.21-2.198-1.856-3.536-2.596-4.875a.515.515 0 0 0-.486-.28c-.31.009-.567.17-.695.217l-1.744.716c-.182.104-.293.247-.3.462a.36.36 0 0 0 .061.208.479.479 0 0 0 .463.27c.16 0 .295-.048.375-.063.382-.08.67-.128.868-.128.295.016.414.072.796.74l1.482 2.693c-.112.113-.43.264-.534.31v.009l-8.857 4.86a.736.736 0 0 1-.343.088c-.502.047-.797-.677-1.443-.805a.44.44 0 0 0-.222.064c-.128.047-.295.207-.295.413.01.128.048.207.08.279.087.152.302.374 1.355 2.295.262.469.444.987.683 1.417.057.128.224.24.361.24h.014c.176-.008.272-.088.287-.096a.511.511 0 0 0 .262-.47c-.015-.36-.19-.662-.182-.948.01-.231.072-.446.558-.725M443.034 131.54v-.04c-.015-.334-.104-.572-.143-1.498-.008-.07-.008-.119-.008-.167 0-.294.032-.613.032-.94v-.175c0-.222-.2-.558-.51-.541-.048 0-.048.007-.048 0-.55.12-.453.613-.533.851-.081.304-.09.4-.367.431-.105.008-.16.016-.231.016-.312.016-.772-.135-.996-.215l-8.475-3.019c-.12-.04-.224-.072-.296-.096.176-.119.59-.294 1.196-.574l7.854-3.742c.15-.073.447-.177.644-.184h.027c.214 0 .293.096.412.262.136.143.136.415.557.494h.018c.382-.072.444-.335.462-.534v-.016c-.018-.317-.128-1.035-.153-1.536 0-.135-.008-.247-.008-.36 0-.341.017-.691.017-1.058v-.374c-.01-.28-.27-.535-.533-.519-.065 0-.065.008-.065 0-.493.096-.43.543-.526.773-.087.279-.208.558-.701.797h-.008l-11.13 5.282c-.365.239-1.21.301-1.352 1.01.009.113.032.113.032.12h.007c.215.566.876.51 1.29.725l11.647 4.35c.615.23.74.43.829.573.048.08.11.463.532.478h.017c.326 0 .526-.334.51-.573M439.617 144.182a.758.758 0 0 1-.278.04c-.2 0-.44-.04-.671-.04-.2-.03-.567.08-.62.414-.016.064.007.088-.01.088.105.486.439.637 2.455.988.078.007.152.016.239.016h.032c.167 0 .43-.08.494-.367.088-.613.279-2.389.35-2.764.12-.788.35-1.792.916-5.417.025-.19.03-.334.03-.462.048-.23-.142-.549-.387-.557-.01-.008-.033-.008-.048-.008h-.018c-.564.104-.534.621-.621.7-.19.566-.462.646-.963.662a5.8 5.8 0 0 1-.844-.087l-8.754-1.354c-.933-.153-1.3-.272-1.371-.615-.215-.589-.08-.876-.543-1.098-.072-.024-.12-.024-.126-.024-.334 0-.455.334-.462.502-.111.772-.191 1.601-.286 2.358-.192 1.442-.528 2.875-.758 4.357-.048.334-.113.605-.113.9-.006.43.152.845.534 1.298.438.55 1.06 1.211 1.882 1.338.086 0 .086.008.086.008.089 0 .382 0 .47-.35l.03-.167-.094-.07c-.126-.273-.358-.368-.62-.862-.302-.534-.615-1.37-.615-2.756 0-.519.05-1.115.16-1.793.192-1.084.302-1.084.63-1.108.19 0 .493.065.876.13l3.536.54c.343.056.343.048.336.08v.063l-.447 2.837c-.135.692-.39.725-.781.796-.087.024-.206.024-.311.024-.318-.009-.676-.009-.835.477-.017 0-.008.072-.008.081-.016.255.232.462.453.47.534.087 1.038.127 1.514.198.606.095 1.259.24 1.937.343.039 0 .086.01.15.01.159 0 .479-.034.557-.385l.009-.055-.016-.056c-.12-.51-.527-.446-.757-.637-.271-.175-.495-.359-.516-1.004 0-.128.02-.262.048-.438l.325-2.07c.032-.233.056-.39.08-.455.054 0 .182.024.374.048l3.569.558c.916.183.85.071.877.405 0 .231-.074.637-.176 1.283-.08.765-.4 2.788-.9 2.987M431.897 154.633c0-.39.087-.756.183-.995.145-.415.303-.892.438-1.25.071-.184.151-.328.215-.423.017-.016.023-.032.041-.048l4.581 1.657c.334.152.31.176.325.28 0 .111-.08.35-.19.668-.51 1.393-1.419 2.461-2.781 2.453-.334 0-.709-.055-1.115-.207-1.401-.517-1.681-1.362-1.697-2.135m6.509.821c.351-.972.652-2.03 1.028-3.082.334-.924.341-.749.501-1.148a.95.95 0 0 0 .048-.294c0-.192-.063-.399-.304-.494a.667.667 0 0 0-.182-.032c-.501.056-.558.454-.749.693-.175.263-.319.43-.694.438a1.54 1.54 0 0 1-.556-.12l-9.314-3.353c-.597-.23-.668-.519-.724-.86-.079-.319.136-.765-.382-1.052a.443.443 0 0 0-.183-.033.462.462 0 0 0-.439.32c-.255.7-.422 1.418-.676 2.094-.542 1.522-.749 1.873-.82 2.072-.018.072-.081.151-.105.327-.015.15.143.358.296.39a.528.528 0 0 0 .181.04c.526-.08.622-.526.869-.845.232-.343.47-.598.846-.598.111 0 .245.024.413.096l3.856 1.387c.247.088.232.048.223.103a.78.78 0 0 1-.047.223c-.829 2.096-.343 1.53-1.65 1.896l-3.928.876c-1.289.32-2.627.725-3.162 2.2-.047.142-.286.764-.295 1.186 0 .095 0 .32.248.422a.42.42 0 0 0 .175.031c.827-.278.206-1.002 2.557-1.584l5.416-1.306c.168 1.44 1.044 2.827 2.478 3.361.502.167.947.246 1.362.246 2.805-.03 3.617-3.409 3.713-3.6M422.791 170.27h-.022c.007-.015.022-.03.031-.047l2.07-3.25 2.66 4.165-4.738-.868zm-.101-9.16c-.193-.303-.233-.526-.233-.718-.008-.302.11-.5.129-.804.008-.112-.065-.318-.216-.398a.485.485 0 0 0-.28-.088.421.421 0 0 0-.381.223c-.27.43-.486.908-.757 1.338-.279.431-.637.844-.949 1.323-.054.12-.205.24-.221.526a.51.51 0 0 0 .279.454.53.53 0 0 0 .247.08c.644-.168.714-.773 1.124-.726.094 0 .238.04.452.168.16.103.358.318.416.406l1.623 2.501a.39.39 0 0 1 .065.216c.007.111-.082.278-.21.492l-2.308 3.602c-.167.238-.215.238-.39.246-.11 0-.248-.015-.421-.048l-1.668-.325c-.548-.119-1.544-.28-1.782-.455-.111-.079-.12-.11-.13-.238-.005-.208.12-.503.137-.82 0-.145-.055-.35-.231-.463a.485.485 0 0 0-.23-.072c-.392.048-.471.327-.55.414-.288.455-.503.941-.773 1.363-.416.66-.917 1.29-1.346 1.976-.04.063-.12.143-.129.341-.015.13.096.296.209.36a.548.548 0 0 0 .262.071c.733-.168.788-.989 1.608-.965h.048c.741-.007 1.515.224 2.288.367l10.618 1.976c.072.016.382.12.66.12.122 0 .297-.017.422-.175a.537.537 0 0 0 .09-.27c-.056-.463-.4-.798-1.61-2.757l-5.863-9.242zM63.29 307.77c-2.144 0-5.904.353-8.85.353-2.773 0-5.307-.352-7.975-.352.096.015.088.015.088.015-.725-.015-1.443.415-1.443 1.258.223 2.025 2.83 1.668 5.106 2.662 2.326.956 4.59 2.757 4.621 8.379v36.612c0 .16-.008.304-.016.406a7.94 7.94 0 0 1-.613-.668l-41.78-46.514c-.51-.525-1.228-2.07-2.575-2.15-1.386.015-2.78.366-4.022.352-1.323.014-2.629-.337-4.095-.352h-.03c-.025 0-.049 0-.082.015-.582.065-1.497.319-1.624 1.258.007 1.116.98 1.506 1.952 1.754 3.002.86 8.554 1.082 8.65 14.626v32.326c-.016 6.054-1.855 7.925-3.632 8.826-.917.453-1.848.637-2.613.909-.75.245-1.482.764-1.458 1.735 0 .23.008.582.264.893.246.31.684.462 1.258.462.661 0 5.193-.352 8.244-.352 4.263 0 6.692.352 8.842.352 1.18 0 1.355-1.101 1.355-1.531-.223-1.768-2.366-1.338-4.15-1.893-1.832-.543-3.522-1.491-3.553-5.282v-35.825c-.008-.858.064-1.338.143-1.53.04-.095.064-.095.056-.095h.015c.168-.12 1.387 1.29 1.562 1.545l37.647 42.38c1.856 2.03 2.788 2.565 3.624 2.58.663-.015.95-.621 1.044-1.258.12-.684.136-1.624.136-2.9v-50.71c.024-3.093 1.171-4.08 2.373-4.748 1.148-.662 2.71-.797 2.797-2.35-.009-.734-.629-1.187-1.267-1.187M102.084 367.77c-17.072-.031-27.54-15.437-27.547-31.48.015-13.702 8.268-25.62 22.726-25.62 16.816.033 27.46 15.264 27.468 31.042-.024 16.046-10.084 26.04-22.647 26.059M99.9 306.99c-18.162.032-32.509 13.4-32.54 31.833 0 9.32 2.94 17.429 8.308 23.18 5.353 5.768 13.144 9.193 22.743 9.193 9.838 0 18.225-3.22 24.153-8.931 5.91-5.711 9.344-13.94 9.344-23.872-.031-18.347-13.957-31.371-32.007-31.403M157.088 337.381c-1.426 0-3.004.048-4.453.048-1.37 0-2.629-.048-3.505-.217-.924-.183-1.235-.477-1.187-.669v-22.24c.08-2.885 1.051-2.748 3.752-2.852h.844c8.5.047 16.315 3.465 16.33 13.893-.015 10.58-8.077 11.996-11.78 12.037m33.33 31.744c.038-.686-.52-1.133-1.06-1.228-1.579-.46-4.876-.326-9.608-7.479l-14.363-21.764c6.055-2.603 10.834-8.466 10.842-15.333-.016-14.355-13.678-15.584-19.03-15.598-1.124 0-1.92.056-2.12.056-4.58 0-9.575.35-14.625.35-4.46 0-3.92-.344-5.608-.35h-.008c-1.155.006-2.088.55-2.135 1.441-.024.948.7 1.482 1.45 1.673 2.326.725 6.022.095 6.077 6.127v44.586c-.023 3.185-1.449 4.334-2.979 5.13-1.473.796-3.282.898-3.417 2.484 0 .686.51 1.354 1.274 1.354 3.354 0 6.676-.35 9.982-.35 7.272 0 9.208.35 10.07.35.182 0 .39.016.604.016.264 0 .55-.016.837-.183.286-.167.454-.534.445-.933-.174-2.023-2.69-1.894-4.842-2.565-2.23-.653-4.238-1.656-4.262-5.225v-18.48c0-.272-.048-.558-.048-.83.08-.668-.016-1.145 1.927-1.225.95 0 1.793-.009 2.55-.009 7.113.103 5.783-.016 8.763 4.47l9.726 15.325c3.322 4.996 6.86 9.64 13.47 9.64.4 0 1.832 0 3.18-.129.676-.07 1.33-.167 1.847-.334.494-.167 1.003-.367 1.06-.987M186.873 321.529c1.522-.041 1.633-1.554 1.857-2.294 1.696-4.867 1.465-5.76 6.81-5.848h14.275c.095-.008.246.12.382.58.113.43.151 1.037.151 1.588 0 .645-.048 1.203-.048 1.456v45.55c-.014 2.422-1.52 3.346-3.218 4.063-1.624.733-3.537.852-3.695 2.42 0 .472.054.863.333 1.165.287.3.685.366 1.107.366.607 0 2.175-.352 11.998-.352 2.5 0 4.956.352 7.097.352h.032c.44 0 .813-.224.972-.51.168-.286.168-.573.175-.764v-.167c.007-.894-.677-1.395-1.377-1.61-2.191-.764-5.672-.343-5.712-5.568v-44.674c0-.853-.017-1.53-.017-2.078.16-2.07-.207-1.665 1.785-1.825.375 0 .814.008 1.339.008h12.522c4.382.048 5.123 1.49 5.472 3.003.16.789.151 1.609.319 2.312.128.698.694 1.384 1.649 1.337.51.016.931-.192 1.148-.541.214-.327.262-.718.262-1.068 0-.255-.024-.518-.048-.75l-.438-6.993c-.047-1.02-.16-1.753-.661-2.278-.51-.51-1.243-.623-2.27-.623-1.776 0-9.806.337-25.666.337-11.264 0-18.004-.337-24.838-.337-.008-.015-.024-.015-.04-.015-2.112.16-1.84 2.852-1.969 3.776l-.963 8.492c.015.652.406 1.433 1.274 1.49M313.213 369.134c-.207-1.674-2.367-1.57-4.246-2.303-1.952-.694-3.704-1.706-3.72-4.7v-46.427c.024-2.89 1.306-3.79 2.684-4.373.693-.277 1.41-.42 1.992-.614.54-.173 1.162-.43 1.187-1.146.008-.294-.056-.813-.502-1.195-.446-.373-1.164-.59-2.342-.605-1.816.014-3.098.351-6.31.351-1.623 0-6.18-.35-9.096-.35h-.04c-.677.013-1.131.11-1.458.381-.342.288-.39.685-.39.987.175 1.547 2.015 1.476 3.529 2.136 1.584.637 3.01 1.577 3.034 4.428v17.955c0 .12.016.352.016.654 0 .366-.023.813-.111 1.132-.096.341-.183.365-.215.365l-32.047-.006c-.653.006-.821-.105-.836-.152-.057-.063-.104-.414-.088-1.02v-18.928c.024-3.153 1.41-4.142 2.908-4.778 1.442-.653 3.17-.415 3.402-1.882a1.062 1.062 0 0 0-.44-.874c-.342-.257-.835-.385-1.624-.399-2.748.014-5.457.351-8.141.351-3.22 0-6.365-.35-9.631-.35h-.016c-.701 0-1.784.246-1.784 1.368.024.813.756 1.101 1.457 1.306 2.262.67 6.102.798 6.158 5.267v44.84c-.032 4.23-1.577 5.417-3.162 6.085-.813.32-1.65.471-2.334.703-.67.206-1.347.668-1.34 1.527.008.481.072.877.296 1.211.23.335.646.504 1.068.495.485-.008 1.29-.35 7.535-.35 4.629 0 11.002.35 12.172.35.829-.014 1.705-.208 1.8-1.09-.167-1.889-2.477-1.904-4.445-2.542-2.07-.62-3.863-1.465-3.88-4.205v-21.812c.096-1.059-.16-1.012.654-1.1h32.318c.486.097.27-.079.366.422 0 .32-.056.806-.056 1.38v21.023c-.024 2.587-1.345 3.463-2.82 4.116-1.417.662-3.178.733-3.305 2.278-.016.591.23 1.07.613 1.292.375.23.789.254 1.147.254.279 0 .542-.016.725-.016 1.72 0 4.135-.35 9.727-.35 3.123 0 5.83.35 8.229.35.995-.086 1.322-.97 1.362-1.44M359.957 345.196c.192-.366.247-.366.334-.366h.065c.048.047.175.27.27.533l9.64 23.046c1.201 2.757 1.608 3.535 2.722 3.568 1.705-.072 2.36-1.944 2.909-3.131l22.502-53.076c1.435-3.418 2.647-4.462 3.457-4.924.72-.4 1.668-.477 1.66-1.706.007-.531-.12-.955-.471-1.178-.345-.206-.67-.176-.974-.191-2.054.015-4.674.366-7.262.352-2.065.014-4.072-.337-6.136-.337v-.015c-.94.015-1.353.916-1.353 1.705.144 1.403 1.76 1.504 3.099 2.07 1.41.55 2.58 1.212 2.589 2.846-.01 1.002-.159 1.808-.572 2.723l-15.95 39.264c-.406.957-.724 1.753-1.012 2.296-.286.564-.55.7-.55.7-.135.048-.724-.462-1.577-2.485l-7.344-18.13c-.517-1.26-1.123-3.314-1.115-4.047.009-.75.072-1.451.764-3.186l6.206-14.355c1.967-4.573 3.425-5.944 4.349-6.508.47-.286.815-.367 1.171-.606.382-.232.583-.718.565-1.363-.07-.605-.525-.876-1.011-.924-1.57.015-2.566.352-6.389.352-1.88.014-3.728-.337-5.704-.337-.015-.015-.04-.015-.046-.015-.495.048-1.945-.104-2.089 1.187.096 1.393 1.587 1.665 2.765 2.24 1.26.588 2.303 1.217 2.31 2.834v.095c.007.766-.414 2.168-.757 3.004l-4.293 10.245c-.263.605-.494 1.154-.692 1.52a2.034 2.034 0 0 1-.136.239c-.16-.317-.416-.924-.814-1.846l-4.548-11.552c-.43-1.067-.58-1.481-.58-2.484.007-1.252.709-1.754 1.584-2.225.805-.47 1.92-.683 2.007-1.807-.03-.558-.103-1.34-.923-1.45-1.976.015-4.319.352-8.493.352-1.185.014-5.839-.337-8.833-.352h-.024c-.406.015-.78.015-1.138.215-.377.199-.575.647-.559 1.154-.032.886.566 1.476 1.259 1.69 2.07.684 5.584-.017 7.264 4.063l8.755 21.109c.438 1.115.868 2.215.844 2.564.015.385-.325 1.724-1.02 3.442l-6.475 15.408c-.318.972-.798 1.354-.861 1.337-.009 0-.024 0-.127-.103-.31-.31-.748-1.22-.988-1.92l-16.649-41.17c-.334-.747-.502-1.606-.502-2.036.009-1.306.773-1.905 1.68-2.44.87-.54 1.985-.763 2.089-1.863 0-.63-.264-1.435-1.092-1.45-2.144.015-4.255.366-6.31.352-2.5.014-5.13-.337-7.695-.352h-.014c-.925.015-2.368.382-2.408 1.8.105 1.322 1.403 1.395 2.599 1.976 1.266.557 2.716 1.465 3.736 3.952l19.19 47.652c2.517 5.989 2.851 8.603 4.738 8.826h.08c1.084 0 1.92-.701 2.478-2.455l9.806-24.326zM410.563 311.006c4.432.651 4.399 4.453 4.432 8.46v39.94c0 4.16-.217 6.364-2.231 7.264-1.387.701-2.288.988-2.908 1.274-.605.241-1.083.63-1.163 1.291 0 1.068.916 1.34 1.697 1.34 3.52 0 7.2-.256 10.69-.352.948-.024 1.903-.03 2.851-.03 5.688 0 11.384.381 17.111.381h1.1c.135 0 .254.01.391.01 2.914 0 4.93-.313 7.391-3.117 2.118-2.303 4.462-5.408 4.486-8.763-.033-.206-.009-1.33-1.101-1.44-.733.134-.924.716-1.735 1.536-2.223 2.47-7.52 7.474-22.609 7.488-6.156-.142-6.156-1.147-6.293-4.629 0-.668.024-1.424.024-2.254V343.29c0-.302-.015-.605-.015-.875.071-1.037.015-1.48 1.202-1.538h12.96c3.522.048 4.375 1.706 4.909 3.57.253.931.358 1.888.587 2.661.209.748.68 1.497 1.602 1.48.376 0 .749-.11 1.005-.406.247-.296.349-.678.349-1.122 0-2.383-.175-4.67-.175-6.916 0-2.786.175-5.766.175-8.859-.015-.73-.214-1.96-1.354-2.054-1.632.223-1.321 2.134-2.159 3.727-.779 1.641-2.229 3.26-6.691 3.283h-9.455c-1.593.016-2.422-.04-2.653-.222-.206-.087-.302-.478-.287-1.626-.006-.224 0-.47 0-.734v-16.297c0-.232-.006-.454-.006-.67-.018-2.309.087-3.425.645-3.855.524-.485 1.95-.62 4.787-.605.709 0 1.521.015 2.413.015.924 0 2.221-.048 3.665-.048 4.101-.03 9.503.382 10.913 2.342.596.83.63 2.326.71 3.656.062 1.236.262 2.678 1.703 2.717 1.077-.176 2.095-1.13 2.15-10.817-.006-1.027-.11-2.23-1.273-2.312-2.733 0-10.794.337-12.524.337-3.654 0-8.219-.337-24.741-.337-.009-.014-.023-.014-.032-.014h-.025c-1.29.014-2.07.08-2.621.295-.557.182-.859.701-.82 1.154.167 1.61 2.326 1.562 2.923 1.786M503.894 352.396c.009-12.33-9.178-16.123-18.06-18.767-8.986-2.677-17.564-4.398-17.507-12.237.023-7.758 7.056-10.968 13.892-10.993 7.573.017 13.765 3.754 16.354 11.13.319.756.74 2.739 2.214 2.89.446 0 .828-.151 1.067-.438.232-.286.304-.636.304-.97 0-.113 0-.232-.018-.351l-1.312-11.901c-.041-1.068-.775-1.634-1.444-1.587-1.22.12-1.44 1.1-1.848.973-.413.048-1.456-.772-3.759-1.578-2.255-.796-5.712-1.593-10.946-1.577-10.188.017-19.826 5.466-19.843 16.857-.009 11.709 9.192 15.198 18.068 17.764 8.969 2.613 17.547 4.476 17.493 12.545-.017 8.915-7.871 13.425-16.067 13.439-11.862.016-16.992-8.938-18.012-12.84-.223-.901-.319-1.62-.566-2.192a1.475 1.475 0 0 0-1.481-.996c-.957.017-1.481.892-1.481 2.016 0 .352.039.74.134 1.172h-.006l2.189 11.295c.375 1.196 2.461 2.213 5.363 3.299 2.875 1.018 6.514 1.838 9.828 1.838 10.006 0 16.385-2.778 20.249-6.554a17.065 17.065 0 0 0 5.195-12.237M564.068 310.687c-.055-1.02-.167-1.753-.662-2.278-.517-.51-1.241-.623-2.276-.638-1.77.015-9.816.351-25.67.351-11.261 0-18.001-.336-24.828-.336-.015-.015-.031-.015-.047-.015-.025 0-.04 0-.064.015-2.04.2-1.768 2.845-1.903 3.76l-.957 8.492c.017.653.406 1.434 1.267 1.491 1.53-.041 1.632-1.554 1.87-2.294 1.692-4.867 1.45-5.759 6.804-5.848h14.278c.086-.009.245.119.373.581.11.43.15 1.035.15 1.593 0 .639-.046 1.196-.046 1.45v45.55c-.01 2.422-1.507 3.346-3.212 4.062-1.632.734-3.544.853-3.704 2.421 0 .472.056.863.336 1.164.293.301.684.367 1.106.367.613 0 2.184-.352 11.997-.352 2.508 0 4.954.352 7.098.352h.024c.454 0 .82-.224.979-.51.176-.286.176-.573.176-.764v-.167c.023-.901-.67-1.395-1.37-1.61-2.198-.764-5.681-.352-5.72-5.577v-44.665c0-.853-.016-1.537-.016-2.07.159-2.079-.208-1.674 1.785-1.841.373 0 .82.016 1.338.016h12.53c4.39.048 5.115 1.49 5.473 3.012.159.779.144 1.599.31 2.303.129.698.693 1.369 1.665 1.336.486.017.925-.2 1.13-.534.224-.342.265-.716.265-1.067 0-.263-.026-.525-.047-.756l-.432-6.994zM614.39 357.263c-.743.12-.934.717-1.745 1.537-2.223 2.478-7.52 7.474-22.609 7.488-6.156-.142-6.156-1.147-6.284-4.634-.009-.662.016-1.412.016-2.248V343.29c0-.3-.016-.605-.016-.882.078-1.036.016-1.468 1.202-1.522h12.96c3.522.04 4.375 1.703 4.91 3.561.247.922.366 1.888.586 2.661.21.748.687 1.497 1.602 1.48.376 0 .75-.11 1.014-.397.245-.305.341-.687.341-1.13 0-2.384-.176-4.67-.176-6.917 0-2.786.176-5.766.176-8.859-.016-.73-.215-1.959-1.355-2.054-1.625.223-1.32 2.143-2.15 3.745-.787 1.623-2.238 3.242-6.7 3.266h-9.454c-1.6.015-2.43-.04-2.654-.223-.197-.08-.302-.478-.286-1.617-.007-.224 0-.47 0-.743v-16.296c0-.233-.007-.463-.007-.67-.018-2.31.096-3.426.636-3.84.534-.5 1.951-.636 4.796-.62.724 0 1.521.014 2.413.014.925 0 2.221-.048 3.665-.048 4.101-.03 9.503.382 10.913 2.342.597.83.63 2.326.71 3.651.071 1.25.254 2.675 1.703 2.722 1.083-.175 2.104-1.13 2.151-10.817-.006-1.02-.11-2.23-1.274-2.326-2.732 0-10.794.351-12.523.351-3.655 0-8.229-.35-24.774-.35h-.023c-1.292.013-2.07.088-2.614.302-.566.183-.868.702-.829 1.155.176 1.601 2.326 1.554 2.923 1.777 4.432.645 4.405 4.453 4.432 8.468v39.932c0 4.16-.217 6.364-2.23 7.264-1.387.701-2.288.988-2.9 1.275-.614.24-1.092.637-1.172 1.291-.009 1.067.916 1.338 1.697 1.338 3.53 0 7.21-.255 10.705-.35a110.79 110.79 0 0 1 2.836-.04c5.688 0 11.4.39 17.12.39H603.604c2.915 0 4.931-.303 7.4-3.114 2.11-2.287 4.46-5.4 4.477-8.756-.024-.19-.009-1.32-1.092-1.44M642.939 337.388c-1.426 0-3.003.048-4.453.048-1.369 0-2.637-.048-3.514-.224-.906-.174-1.225-.477-1.186-.66v-22.25c.08-2.89 1.052-2.756 3.752-2.85h.843c8.51.046 16.316 3.456 16.332 13.883-.007 10.588-8.07 11.998-11.774 12.053m32.268 30.502c-1.584-.47-4.881-.327-9.604-7.472l-14.372-21.763c6.055-2.604 10.835-8.476 10.842-15.333-.016-14.356-13.679-15.584-19.03-15.599-1.116 0-1.921.048-2.12.048-4.579.01-9.559.357-14.624.357-4.438 0-3.92-.343-5.601-.348l-.009-.009c-1.161.01-2.094.55-2.142 1.45-.023.947.71 1.473 1.45 1.672 2.327.734 6.022.096 6.079 6.118v44.595c-.025 3.185-1.451 4.334-2.98 5.13-1.474.802-3.275.907-3.418 2.484.009.692.51 1.354 1.276 1.354 3.353 0 6.681-.35 9.98-.35 7.28 0 9.217.35 10.078.35.182 0 .382.016.597.016.271-.007.542-.016.829-.19.295-.159.469-.527.453-.917-.176-2.032-2.685-1.903-4.844-2.574-2.23-.66-4.229-1.656-4.261-5.225v-18.48c0-.287-.039-.567-.039-.83.08-.668-.024-1.145 1.92-1.225h2.547c7.115.094 5.783-.018 8.772 4.461l9.718 15.325c3.331 4.987 6.859 9.64 13.471 9.64.398 0 1.832 0 3.177-.128.678-.08 1.331-.167 1.855-.334.487-.167 1.005-.368 1.062-.988.039-.686-.527-1.133-1.062-1.235" fill="#5C2E91"/><g transform="translate(677 307.645)"><mask id="b" fill="#fff"><use xlink:href="#a"/></mask><path d="M63.338.135c-2.142 0-5.902.349-8.85.349-2.773 0-5.305-.35-7.974-.35h.064c-.7 0-1.419.422-1.419 1.266.224 2.024 2.83 1.673 5.107 2.66 2.326.957 4.59 2.74 4.62 8.38v36.612c0 .16-.007.289-.016.399a8.305 8.305 0 0 1-.614-.661L12.476 2.277C11.966 1.75 11.25.206 9.902.135c-1.384 0-2.78.349-4.02.349-1.325 0-2.63-.343-4.08-.35h-.049c-.023 0-.056 0-.095.007C1.076.206.176.469.048 1.4c.01 1.109.98 1.505 1.953 1.754 3.003.859 8.554 1.082 8.65 14.626v32.325c-.024 6.06-1.856 7.933-3.633 8.835-.907.444-1.847.629-2.613.9-.749.238-1.48.755-1.465 1.735.01.24.015.59.272.893.247.31.686.462 1.26.462.658 0 5.191-.352 8.243-.352 4.262 0 6.692.352 8.843.352 1.17 0 1.353-1.101 1.353-1.53-.222-1.777-2.365-1.34-4.15-1.894-1.832-.543-3.52-1.491-3.562-5.291V18.4c0-.86.072-1.34.144-1.53.047-.095.064-.095.064-.102l.025.007c.158-.111 1.378 1.29 1.553 1.545l37.647 42.379c1.855 2.023 2.788 2.565 3.624 2.58.661-.015.948-.621 1.043-1.258.12-.677.135-1.623.135-2.9V8.41c.026-3.098 1.172-4.08 2.374-4.748 1.163-.653 2.71-.788 2.798-2.342-.009-.742-.63-1.186-1.268-1.186" fill="#5C2E91" mask="url(#b)"/></g><path d="M232.63 399.125c-1.157 0-2.239.238-3.323.238-2.334 0-4.692-.238-7.074-.238-.477.07-.9.342-.996.995-.015.764.574 1.234 1.14 1.401 1.8.64 4.421.167 4.477 4.517v19.573c-.063 7.067-2.438 14.188-13.558 14.22-8.022-.033-14.012-4.215-14.045-13.67v-21.699c.033-2.04.83-2.453 1.752-2.787.471-.161.965-.24 1.411-.406.43-.137.901-.534.884-1.149-.175-1.106-1.346-.957-1.895-1.005-.208 0-.376.01-.43.01-1.905 0-3.84.238-5.744.238-1.585 0-3.099-.238-4.7-.238a3.15 3.15 0 0 0-.909.16c-.31.125-.764.262-.82.835.103 1.435 1.625 1.459 2.74 1.793 1.211.35 2.135.71 2.151 2.245v20.363c0 4.698.757 9.334 3.593 12.825 2.827 3.505 7.702 5.75 15.71 5.75h.047c8.19 0 12.57-3.266 14.8-7.089 2.254-3.832 2.398-8.158 2.398-10.308 0-.358-.008-.654-.008-.877v-18.719c.032-2.707.828-3.56 1.61-4.08.733-.525 1.887-.605 1.96-1.84-.073-.724-.67-1.02-1.172-1.058M279.86 399.125c-1.482 0-4.071.238-6.102.238-1.897 0-3.65-.238-5.49-.238-.477 0-1.058.342-1.058.986.214 1.596 2.079 1.26 3.592 1.96 1.569.653 3.075 1.816 3.114 5.657v25.236a2.52 2.52 0 0 1-.222-.238l-28.821-32.072c-.335-.351-.813-1.459-1.856-1.53-.973 0-1.944.238-2.788.238-.893 0-1.8-.238-2.83-.238-.444.048-1.177.176-1.305.987.009.863.78 1.173 1.442 1.325 2.08.635 5.783.668 5.87 9.98v22.298c-.015 4.156-1.258 5.368-2.436 5.974-.614.303-1.243.428-1.792.62-.52.16-1.108.576-1.092 1.315.008.168.008.439.215.692.207.257.549.368.972.358.47 0 3.576-.238 5.672-.238 2.939 0 4.612.238 6.102.248.908-.01 1.05-.892 1.05-1.18-.214-1.4-1.767-1.034-2.938-1.435-1.235-.373-2.326-.938-2.366-3.527v-24.702c0-.527.04-.844.08-.973.015.016.039.033.063.064.327.238.725.79.877.942l25.952 29.231c1.299 1.404 1.952 1.803 2.597 1.817.542-.014.772-.524.836-.971.08-.478.097-1.132.097-2.023l.007-34.97c.017-2.103.765-2.71 1.57-3.172.748-.443 1.904-.515 1.983-1.72 0-.574-.517-.94-.995-.94M297.64 439.893c-1.316-.414-2.382-.907-2.406-2.747v-32.43c.031-2.135.915-2.692 1.92-3.09.94-.414 2.254-.239 2.428-1.506.024-.262-.07-.662-.413-.835-.304-.152-.622-.152-1.132-.161-1.895 0-3.775.239-5.608.239-2.214 0-4.382-.239-6.65-.239-.264 0-.536.009-.765.256-.224.239-.224.508-.232.797.232 1.258 1.593 1.018 2.692 1.482 1.155.429 2.144 1.017 2.207 3.057v30.924c-.032 2.893-1.043 3.633-2.11 4.095-.542.206-1.117.303-1.602.477-.47.128-1.012.51-1.003 1.163 0 .32.048.716.365.988.32.248.725.319 1.3.319.908 0 2.118-.254 5.798-.254 2.573 0 5.154.254 6.581.254.541 0 .884-.039 1.186-.206.327-.167.438-.549.414-.797-.15-1.426-1.736-1.353-2.97-1.786" fill="#5C2E91"/><g transform="translate(304 398.645)"><mask id="d" fill="#fff"><use xlink:href="#c"/></mask><path d="M41.643.48c-.925 0-1.761.238-4.653.238-1.282 0-2.613-.238-3.983-.238-.342 0-.661.038-.923.256-.28.206-.383.573-.375.921.135 1.205 1.378 1.116 2.23 1.373.956.263 1.609.5 1.633 1.648.032.216.048.373.048.559 0 1.106-.558 2.636-.86 3.4L24.245 34.55c-.158.39-.277.805-.43 1.09-.143.312-.238.367-.286.352-.032.016-.263-.112-.605-.861-.351-.733-.79-1.88-1.46-3.49L10.894 6.758c-.223-.502-.51-1.45-.51-2.198.01-.91.47-1.315 1.06-1.697.542-.408 1.306-.504 1.41-1.355v-.031C12.79.718 12.112.502 11.619.48c-.892 0-3.171.238-4.772.238C5.07.718 3.199.48 1.287.48.953.48.617.576.379.814c-.222.238-.327.557-.327.908.112 1.123 1.178 1.083 2.024 1.404.923.333 1.936.843 2.66 2.549l.359-.162-.36.162 14.922 35.28c.262.613.58 1.57.963 2.39.399.805.773 1.584 1.633 1.656 1.482-.221 1.633-2.31 2.358-3.744L39.65 5.675c.828-1.962 1.585-2.487 2.127-2.75.462-.2 1.29-.31 1.283-1.267.007-.35-.136-.716-.423-.922-.278-.193-.613-.257-.995-.257" fill="#5C2E91" mask="url(#d)"/></g><path d="M381.217 433.25c-.645.128-.716.543-1.29 1.1-1.514 1.69-5.113 5.113-15.502 5.13-4.238-.145-4.086-.685-4.214-3.075 0-.462.016-.97.016-1.553V423.74c0-.223-.016-.423-.016-.605.088-.726-.032-.877.71-.94h8.944c2.383.047 2.884 1.116 3.26 2.373.174.637.247 1.29.412 1.832.137.526.512 1.125 1.22 1.116.28 0 .581-.089.781-.327.206-.23.272-.535.272-.85 0-1.65-.12-3.229-.12-4.782 0-1.912.12-3.967.12-6.085-.018-.533-.129-1.45-1.053-1.554-1.307.224-1.012 1.602-1.6 2.652-.527 1.082-1.459 2.168-4.5 2.183h-6.526c-1.09.016-1.673-.032-1.76-.128-.064-.007-.16-.222-.144-1.026-.008-.153 0-.32 0-.5v-11.234c0-.175-.008-.319-.008-.47-.016-1.602.088-2.333.406-2.557.296-.304 1.26-.415 3.227-.399h1.665c.637 0 1.521-.016 2.525-.016 2.82-.032 6.54.287 7.424 1.56.374.51.424 1.531.472 2.455.04.844.172 1.944 1.29 1.992.914-.176 1.561-.909 1.61-7.584-.01-.7-.057-1.634-.997-1.72-1.897 0-7.457.237-8.644.237-2.517 0-5.67-.238-17.087-.238-.9 0-1.458.057-1.864.208-.415.126-.685.564-.653.907.183 1.274 1.736 1.18 2.111 1.346 2.963.432 2.94 2.94 2.963 5.73v27.537c0 2.876-.152 4.325-1.458 4.898-.963.48-1.569.677-2 .876-.429.16-.828.486-.883.988-.008.844.756 1.06 1.298 1.06 2.43 0 4.971-.184 7.376-.239.653-.025 1.307-.025 1.952-.025 3.912 0 7.854.263 11.806.263h1.074c1.992 0 3.45-.238 5.148-2.19 1.458-1.592 3.105-3.743 3.114-6.117-.024-.143.023-1.005-.877-1.116M400.91 419.54c-.988 0-2.08.032-3.067.032-.95 0-1.808-.031-2.398-.15-.63-.127-.725-.303-.725-.336v-15.341c.089-1.928.59-1.745 2.463-1.848.182 0 .374.007.588.007 5.84.041 11.128 2.341 11.146 9.44-.018 7.226-5.467 8.142-8.006 8.197m22.287 21.046c-1.115-.334-3.297-.198-6.548-5.106l-9.83-14.887c4.152-1.841 7.4-5.889 7.409-10.637-.015-10.003-9.55-10.863-13.25-10.88-.771 0-1.327.048-1.455.048-3.161 0-6.603.238-10.092.238-3.06 0-2.652-.23-3.863-.238-.83.009-1.548.382-1.601 1.115-.025.715.563 1.147 1.097 1.267 1.658.534 4.033.03 4.095 4.11v30.741c-.015 2.166-.957 2.89-1.983 3.44-.98.551-2.286.575-2.422 1.817 0 .524.39 1.058.996 1.058 2.317 0 4.61-.238 6.89-.238 5.019 0 6.335.238 6.938.238.128 0 .265.01.423.01.184 0 .397-.01.63-.144.247-.135.39-.447.366-.733-.167-1.577-1.975-1.426-3.427-1.895-1.52-.462-2.818-1.084-2.851-3.49v-12.745c0-.207-.031-.4-.031-.558.079-.438-.097-.652 1.202-.741h1.76c4.93.103 3.842-.088 5.95 3.019l6.7 10.572c2.302 3.447 4.772 6.705 9.4 6.705.272 0 1.26 0 2.199-.087.47-.048.933-.11 1.307-.23.334-.135.757-.264.812-.805.04-.525-.437-.909-.821-.964M442.763 416.96c-6.222-1.855-12.038-3.043-11.982-8.325.01-5.249 4.773-7.44 9.456-7.456 5.186.015 9.4 2.55 11.161 7.592.238.517.476 1.92 1.648 2.071.328.01.63-.119.83-.343.191-.229.24-.51.24-.748 0-.08-.01-.167-.017-.248l-.909-8.21c-.015-.768-.597-1.253-1.116-1.206-.948.12-1.115.79-1.265.662-.232.048-.965-.51-2.582-1.083-1.569-.542-3.976-1.1-7.567-1.085-7.066.01-13.789 3.802-13.806 11.742 0 8.157 6.43 10.613 12.54 12.364 6.221 1.816 12.036 3.098 11.988 8.541-.009 6.052-5.345 9.128-10.97 9.151-8.1.018-11.605-6.108-12.306-8.77-.137-.614-.208-1.099-.382-1.529a1.154 1.154 0 0 0-1.133-.758c-.755 0-1.154.725-1.154 1.506 0 .257.032.534.104.836h-.008l1.514 7.793c.317.954 1.76 1.6 3.767 2.365 2.008.707 4.525 1.274 6.818 1.274h.024c6.915 0 11.352-1.927 14.037-4.54a11.951 11.951 0 0 0 3.617-8.539c.007-8.589-6.42-11.249-12.547-13.057M472.452 439.893c-1.312-.414-2.381-.907-2.406-2.747v-32.43c.032-2.135.909-2.676 1.914-3.09.945-.414 2.26-.247 2.428-1.506.024-.262-.072-.662-.415-.835-.301-.152-.621-.152-1.115-.161-1.912 0-3.783.239-5.623.239-2.207 0-4.382-.239-6.636-.239-.262 0-.55.018-.773.256-.215.254-.223.508-.231.797.23 1.258 1.594 1.018 2.692 1.482 1.148.429 2.144 1.017 2.198 3.057v30.924c-.03 2.893-1.043 3.633-2.102 4.095-.55.206-1.116.303-1.608.469-.463.136-1.011.518-1.005 1.171 0 .32.056.716.382.988.31.248.718.303 1.282.319.916 0 2.127-.254 5.8-.254 2.58 0 5.16.254 6.587.254.534-.016.877-.039 1.18-.206.326-.167.446-.549.415-.797-.143-1.426-1.738-1.353-2.964-1.786M518.13 401.245c-.033-.701-.113-1.243-.496-1.65-.399-.39-.933-.47-1.657-.47-1.227 0-6.754.238-17.69.238-7.785 0-12.43-.238-17.16-.238-1.625.15-1.378 2.102-1.474 2.717l-.66 5.845c.014.52.294 1.108.994 1.156 1.17-.032 1.243-1.186 1.403-1.657 1.193-3.377.9-3.856 4.572-3.952h9.846c-.009 0 .056.042.143.31.071.28.104.686.104 1.069 0 .432-.033.82-.033 1.004v31.41c-.015 1.602-.978 2.198-2.14 2.685-1.102.518-2.48.542-2.638 1.792.006.334.04.636.263.884.238.247.55.286.86.286.438 0 1.49-.24 8.267-.24 1.721-.005 3.402.24 4.9.24.79 0 .94-.773.94-1.003v-.12c.014-.667-.54-1.067-1.044-1.22-1.57-.548-3.807-.214-3.855-3.727V405.8c0-.588-.008-1.05-.008-1.433.167-1.434-.27-.972 1.107-1.14.256 0 .566.007.925.007h8.634c3.003.048 3.403.982 3.657 1.978.12.525.112 1.092.223 1.593.08.509.54 1.067 1.265 1.019.367.016.72-.151.877-.423.184-.262.208-.55.208-.804 0-.192-.017-.368-.032-.535l-.302-4.817zM556.82 399.125c-1.786 0-3.546.238-5.258.238-1.411 0-2.917-.238-4.414-.238-.653 0-1.65.207-1.65 1.307.17 1.256 1.548 1.106 2.565 1.385 1.133.253 1.953.54 1.962 1.745-.01 1.488-.757 2.413-1.22 3.114l-6.212 10.084c-.24.39-.438.672-.6.844-.157.177-.214.161-.214.177-.071.046-.421-.183-.883-.908l-7.298-11.647c-.39-.558-1.05-1.498-1.035-2.26-.015-.624.494-.981 1.21-1.349.646-.373 1.539-.549 1.635-1.488-.105-1.035-1.157-.987-1.545-1.005-.678 0-2.255.238-4.224.238-4.094 0-5.21-.238-6.882-.238-.741.04-1.164.677-1.188 1.308.152 1.018 1.124.922 1.96 1.226.909.27 1.912.684 2.63 1.863l.334-.197-.334.197 10.084 16.14c.51.733 1.346 1.928 1.33 2.868v14.625c-.032 1.976-.948 2.42-2.046 2.796-1.028.375-2.463.247-2.598 1.601-.008.398.128.773.439.956.286.166.582.166.852.166.606 0 2.733-.238 5.44-.238 2.224 0 5.704.238 6.643.238.439 0 .806 0 1.14-.116.343-.08.67-.466.647-.877-.128-1.427-1.643-1.349-2.735-1.817-1.154-.48-2.181-1.115-2.213-3.627v-14.79c-.015-.702.367-.94 1.387-2.51l8.459-13.166c.972-1.546 1.744-3.156 3.24-4.047.273-.216 1.547-.353 1.642-1.483-.024-.526-.373-1.067-1.05-1.115M369.189 139.387c-.294.032-2.373 0-2.373 0s-.637 2.907.669 2.868c.804-.016 1.307-.885 1.704-2.868zm-2.055-.876c.295-.032 2.374 0 2.374 0s.645-2.907-.669-2.876c-.797.024-1.306.892-1.705 2.876zm2.023-4.015c-.048 0-.103 0-.159.007-2.557.191-3.393 2.48-3.744 5.163-.056.35-.071.685-.071 1.004 0 1.767.725 3.066 2.079 3.074h.063c1.952-.056 3.051-1.314 3.585-4.086.151-.74.223-1.442.223-2.07 0-1.746-.605-3.085-1.976-3.092zm-2.358-10.165c-.135.383-.271 1.505.344 1.41.86-.127 1.33-.86 1.528-2.819-1.099-.064-1.609.684-1.872 1.41zm2.334 1.514l-.016-.009c-.008-.103.104-.373.16-.565l.701-3.417-.096-.08a.982.982 0 0 0-.573-.167c-.231-.008-.517.071-.812.302a.421.421 0 0 0-.303-.135c-.224.01-.455.12-1.044.4-.908.436-1.585 1.504-1.769 2.484a2.086 2.086 0 0 0-.047.453c.007.646.183 1.427.781 1.77.127.08.27.11.405.11.391-.016.757-.238 1.013-.445.024.238.191.557.582.557.334-.008.763-.159 1.465-.58l.104-.049v-.772l-.263.08c-.136.04-.24.063-.288.063zm1.099-6.588c.017-.072.017-.144.017-.223 0-.55-.359-1.235-1.076-1.25a.887.887 0 0 0-.342.063.753.753 0 0 0-.549.748c0 .16.039.32.11.463.184.358.479.422.598.541 0 .176-.326.63-.406.79l-.032.222.223.01h.064c.908-.026 1.298-.965 1.393-1.364zm2.127-10.842c-.134.383-.262 1.514.343 1.411.862-.136 1.331-.86 1.53-2.828-1.092-.057-1.602.685-1.873 1.417zm2.342 1.514h-.022c-.009-.112.117-.39.174-.582l.7-3.409-.094-.072c-.034-.016-.231-.183-.583-.183-.23 0-.525.08-.811.31a.429.429 0 0 0-.295-.134c-.232.014-.471.12-1.06.398-.9.43-1.577 1.505-1.768 2.477a2.67 2.67 0 0 0-.04.453c.008.646.191 1.442.772 1.785a.866.866 0 0 0 .415.104c.391-.016.756-.239 1.019-.438.023.231.184.542.575.542.325 0 .773-.16 1.474-.566l.087-.064v-.764l-.254.08a1.005 1.005 0 0 1-.289.063zm4.843 31.895c-.143.391-.269 1.523.361 1.427.843-.144 1.321-.869 1.512-2.836-1.091-.064-1.608.684-1.873 1.41zm2.487 1.523l-.024-.009c-.009-.096.111-.375.167-.573l.701-3.418-.095-.072a.963.963 0 0 0-.575-.176c-.23 0-.517.088-.812.312a.414.414 0 0 0-.304-.136c-.23.008-.453.12-1.042.391-.915.438-1.586 1.521-1.776 2.485a2.658 2.658 0 0 0-.039.454c.006.646.182 1.434.778 1.784a.74.74 0 0 0 .408.096c.391-.008.755-.223 1.02-.438.016.24.183.558.573.558.334 0 .764-.168 1.465-.574l.096-.055v-.78l-.245.094c-.146.04-.248.057-.296.057zm4.555-.853c-.063-1.02-1.464-1.824-1.592-2.024v-.03c.048-.432.071-.376.286-.408.215 0 .543.088.886.088h.039l.071.008.071-.048c.233-.184.352-.422.352-.629-.024-.447-.399-.669-.406-.685l-.056-.04-.066.008c-.245.007-2.586-.104-2.628 1.776v.048c.089 1.26 1.689 1.673 1.57 1.967l-.007.016c.007.017-.089.143-.384.231-.277.08-.66.144-1.003.16h-.095l-.065.08c-.007.016-.206.287-.215.636-.015.24.144.526.48.646 2.15-.239 2.715-1.17 2.762-1.696v-.104zm-8.077-6.3c-.143-.265-.39-.408-.629-.399-.829.047-1.64 1.178-1.942 1.728l-.128.262.286.024c.176.017.343.017.526.017.98-.009 1.992-.215 2.045-1.06 0-.184-.053-.375-.158-.573zm-2.493 2.874l.056.255c.009.024.009.072.009.128.015.764-.782 2.812-.79 3.88 0 .135.008.262.047.381.167.534.63.837 1.092.837h.009c.597 0 1.17-.502 1.179-1.41l.014-.438-.334.286c-.254.215-.414.272-.453.272-.024 0-.081-.057-.087-.216-.009-.032-.009-.048-.009-.063-.008-.805.892-3.569.892-3.576l.071-.24-1.433-.08-.263-.016zm-1.131-.772a2.933 2.933 0 0 0-.788-.112c-1.395-.008-2.343.876-2.788 2.477a3.339 3.339 0 0 0-.161.988c0 1.465 1.227 2.08 2.565 2.08H374.049l.24-.909.062-.247h-.31c-.287 0-1.378-.103-1.378-.797 0-.055.007-.112.024-.183.11.016.27.024.444.024.481 0 1.197-.08 1.387-.725l.048-.222-1.609-.2c.255-1.027 1.618-1.092 1.839-1.092h.009l.104.01.072-.08a.772.772 0 0 0 .167-.447.783.783 0 0 0-.263-.565zm2.142-32.055l.057.238c.008.04.008.088.008.152.015.773-.781 2.956-.781 4.047 0 .135.009.271.048.39.158.526.62.836 1.092.836h.014c.591 0 1.163-.51 1.172-1.41l.009-.438-.336.287c-.246.215-.406.271-.445.262-.033.01-.089-.055-.096-.207-.009-.032-.009-.048-.009-.063-.008-.82.902-3.768.902-3.768l.071-.246-1.441-.072-.265-.008zm.041-2.885l-.008-.007.008.007zm1.649 2.143l.287.064-.042-.295c-.149-.644-.596-2.19-1.527-2.277a.696.696 0 0 0-.504.222c-.247.224-.382.471-.373.734.048.82 1.108 1.273 2.159 1.552zm4.031 19.908l-.016-.232-.224.056c-.477.096-.7.136-.811.136-.176.008-.295-.127-1.332-.295l-.24-.032.042.957v.134l.143.04c.406.12.684.271 1.235.271.278 0 .621-.039 1.098-.127l.167-.04-.062-.868zm-3.395-3.298a.708.708 0 0 0-.516-.192c-.534.01-1.139.4-1.498.67l-.017-.399v-.088l-.056-.055c-.016-.008-.245-.23-.621-.23-.19-.009-.405.063-.606.246l-.047.04-.006.063c-.009.01-.806 3.553-.901 4.413l-.009.05.033.054c.151.351.35.574.629.574.301-.009.493-.232.678-.454.414-1.314.54-3.362 1.282-3.235h.007c.142.01.247.128.255.606 0 1.02-.638 3.011-1.443 4.485a.912.912 0 0 0-.03.24c0 .158.023.564.438.588.254-.008.492-.159.874-.502 1.03-1.195 1.786-4.238 1.793-5.855-.007-.454-.039-.788-.239-1.019zm-5.822-1.554l-.056-.047c-.024-.008-.422-.399-.859-.423-.248-.023-.487.215-.495.542 0 .055.286 1.681.319 1.895-.167.384-1.442 3.187-2.462 4.462l-.112.143.152.128c.255.23.517.318.749.318h.008c.437 0 .677-.286.692-.294.033-.056.567-1.21 1.243-2.638.048.566.056 1.3.056 1.793v.605c.104.367.351.534.574.518.382-.008.668-.294.684-.302l.073-.072-.566-6.628zm-2.446-14.928v-.016c0-.223-.19-.414-.39-.414-.573.032-1.689.893-2.422 1.505.128-.31.224-.653.224-.948.007-.279-.12-.596-.455-.677-.032-.007-.063-.015-.12-.015-1.298.206-2.205 4.994-2.325 5.416l-.032.144.135.056c.199.096.382.135.534.135h.008c.35 0 .55-.255.59-.287.048-.08.215-.589.39-1.099.095-.264.183-.51.255-.7.016-.04.032-.072.047-.105.367.343.797 1.354.925 1.872l.015.056.048.048a.76.76 0 0 0 .486.176c.462-.017.717-.39.733-.4l.056-.07-.017-.088c-.238-1.37-.947-2.247-.971-2.326l.032-.009c.35-.365 2.167-1.019 2.254-2.254zm-13.518 1.362v-.024c.055-.438.079-.374.303-.406.207-.008.533.08.877.08h.031l.088.007.055-.047c.247-.19.359-.414.35-.63-.015-.445-.381-.668-.397-.685l-.048-.03h-.072c-.239.014-2.581-.096-2.629 1.768.009.015.009.031.009.047.071 1.267 1.688 1.681 1.56 1.984 0-.009-.008 0-.008 0 .008.024-.088.15-.382.238a3.894 3.894 0 0 1-1.003.144l-.104.01-.056.078c0 .016-.207.286-.215.645-.016.24.136.534.478.645 2.143-.239 2.709-1.163 2.764-1.697h.008v-.103c-.079-1.02-1.497-1.84-1.609-2.024zm.271 32.844v-.04c.048-.43.079-.374.303-.406.198 0 .525.096.868.096h.032l.08.007.064-.055c.238-.184.358-.415.358-.622-.017-.453-.391-.668-.398-.685l-.064-.047-.057.007c-.254.017-2.589-.104-2.636 1.777v.047c.088 1.267 1.689 1.673 1.569 1.984 0 .016-.087.144-.39.231-.279.096-.661.143-1.004.152l-.104.008-.055.08a1.225 1.225 0 0 0-.215.637c-.008.238.136.533.486.653 2.175-.248 2.716-1.196 2.748-1.72l.008-.009v-.08c-.064-1.027-1.49-1.832-1.593-2.015zm-6.388-2.405l-.176-.12-.08.111c-.39.097-2.573.35-2.573.35l-.079.016-.04.048c-.199.191-.287.415-.287.598.008.31.199.494.215.51l.056.063.892-.063a367.142 367.142 0 0 1-.414 3.824l-.015.191.174.031c.017.008.144.024.319.024h.032c.286 0 .813-.095.86-.637.016-.326.263-2.939.327-3.608l.948-.128.087-.008.048-.072a.726.726 0 0 0 .119-.398c0-.224-.111-.5-.413-.732zm-3.569 5.177c-.184.208-.319.255-.36.247-.055.008-.222-.215-.254-.597a2.165 2.165 0 0 1-.024-.35c0-1.06.278-3.323.278-3.323l.024-.246-1.418.127-.262.024.095.231c.033.095.057.286.057.533 0 .773-.2 2.055-.2 2.995.009.383.033.717.152.956.191.446.565.653.94.653h.016c.596-.007 1.186-.453 1.298-1.09l.12-.67-.462.51zm-11.966.646c-.263.024-.501.206-.605.24-.111-.368-.469-1.324-.478-2.336 0-.063 0-.12.009-.167.453-.82 1.847-1.928 1.903-2.795a.602.602 0 0 0-.279-.51.528.528 0 0 0-.231-.057c-.541.072-.796.701-1.29 1.347-.024-.51-.095-1.25-.701-1.49a1.588 1.588 0 0 0-.581-.104c-.351 0-.773.104-.877.518l.35.151s0-.008.071-.008c.033 0 .081.008.153.032.295-.008.453 1.195.493 2.382-.541.781-2.334 2.502-2.374 3.401a.43.43 0 0 0 .2.391.67.67 0 0 0 .231.048c.701-.055.916-.7 1.872-1.864.024.741.103 2.055 1.035 2.175.033 0 .057 0 .097-.008.541-.12 1.273-.382 1.345-.956a.417.417 0 0 0-.111-.294.347.347 0 0 0-.232-.096zm21.11-20.345v-.032c.048-.438.088-.376.303-.415.208-.008.534.096.876.096h.119l.056-.048c.239-.19.351-.422.351-.629-.016-.446-.391-.67-.398-.686l-.057-.032-.063.008c-.247.01-2.581-.11-2.628 1.778.047 1.29 1.697 1.712 1.568 2.014 0 .024-.095.151-.382.247-.286.08-.669.137-1.012.144l-.103.008-.055.08a1.19 1.19 0 0 0-.224.637c-.007.24.152.534.494.653 2.08-.239 2.669-1.115 2.748-1.657h.017v-.152c-.072-1.01-1.474-1.823-1.61-2.014zm-2.843-2.813a.764.764 0 0 0-.407-.119c-.582.023-1.171.517-1.498.82l-.055-.215a.697.697 0 0 0-.558-.327c-.198 0-.431.112-.598.351l-.024.048v.064s-.063 1.991-.063 3.401c0 .525.008.971.032 1.22.279.421.47.636.765.652.27-.016.414-.223.534-.454.167-1.362-.081-3.258.661-3.712.071-.056.111-.063.127-.063.008 0 .08.024.151.278.072.24.112.605.112 1.028 0 1.163-.255 2.787-.621 4.006.024.071-.064.653.477.741.287-.016.51-.215.853-.685.422-.805.629-2.732.645-4.38-.031-1.26-.079-2.28-.533-2.654zm-9.002-1.784c0-.278-.152-.54-.438-.757a.756.756 0 0 0-.47-.19c-.972.111-1.291 1.744-1.37 2.404l-.017.287.264-.087c1.004-.35 1.983-.86 2.031-1.657zm-.199 2.883a.665.665 0 0 0-.39-.119c-.591.024-1.179.534-1.506.853l-.056-.224a.727.727 0 0 0-.566-.31c-.191 0-.422.12-.58.367l-.033.055v.056s-.016.693-.016 1.545c0 1.155.016 2.573.073 3.067.294.43.485.621.772.645.278-.016.422-.223.542-.462.047-.343.055-.629.055-.94 0-.23-.008-.462-.008-.693-.007-.932.08-1.8.534-2.095.072-.048.112-.055.119-.055.017 0 .103.04.184.326.063.255.11.668.11 1.147 0 1.132-.215 2.677-.541 3.84.024.071-.047.637.486.733.279-.024.503-.223.844-.702.383-.765.558-2.469.566-4.03-.032-1.426-.096-2.613-.589-3.004zm-4.437-.54l-.057-.057c-.015 0-.413-.39-.851-.414-.255-.017-.487.215-.494.542 0 .047.279 1.656.31 1.887v.008c-.151.376-1.433 3.187-2.453 4.461l-.12.144.144.128c.271.24.534.325.772.325.431-.007.678-.286.694-.3.031-.049.565-1.212 1.235-2.638.047.566.055 1.298.055 1.792v.605c.112.367.359.534.581.534.384-.016.661-.318.678-.318l.064-.064-.558-6.636zm-2.995 1.417l-4.549.08-.064.096c0 .023-.397.701-.421 1.13 0 .104.11.334.31.334a.737.737 0 0 0 .358-.127l.606.008c-.016 1.06-.056 1.115-.757 1.912-.207.12-1.036.51-1.099 1.156 0 .111.048.23.127.341.247.328.51.51.813.51 1.227-.119 1.824-2.613 2.095-3.934l.255.007c-.072.916-.374 2.016-.374 2.828 0 .565.214 1.123.867 1.123v-.007c.551 0 .861-.296.852-.66-.008-.544-.373-1.245-.365-1.985 0-.088 0-.167.016-.24.031-.333.072-.796.095-1.066.151.015.35.031.558.031.358-.024.859.016.939-.486a.71.71 0 0 0 .184-.454c-.024-.445-.446-.58-.446-.597zm13.637-16.378l.047-.119-.095-.097c-.024-.007-.294-.255-.708-.255a1.08 1.08 0 0 0-.614.2l-.056.04-.015.072s-.423 1.466-.757 2.397a122.29 122.29 0 0 0-.542-2.087c-.04-.07-.383-.669-.98-.708-.255 0-.51.15-.724.445l-.072.104.063.111c.741 1.156 1.315 3.824 1.41 4.255-.04.087-.095.238-.183.477-.191.478-.708.908-.923 1.243l-.088.135.119.12c.017.01.327.295.804.295h.016c.208 0 .439-.072.654-.215l.031-.024c.447-.43.734-.71.901-.877.087-.08.151-.135.19-.166l.041-.04.016-.025c.007-.03.015 0 .055-.135-.071-.183-.119-.15-.127-.183l-.024-.008c-.294.071-.159.056-.287.12.008-.025.016-.04.024-.064l1.824-5.01zm-9.663-1.09l-.055-.049c-.024-.009-.414-.399-.853-.43-.255-.017-.486.223-.501.557l.31 1.888c-.159.398-1.425 3.187-2.445 4.461l-.12.143.143.137c.272.222.542.317.773.317.43-.007.677-.286.694-.302.024-.039.565-1.21 1.234-2.637.041.558.048 1.275.048 1.768v.63c.12.367.351.534.581.525.39-.015.67-.3.685-.31l.072-.072-.566-6.627zm11.312 35.431c-.159.71-.398 1.72.375 1.888.574.12 1.091-.39 1.298-1.458.167-.876.351-1.776-.295-1.928-.573-.143-1.282.63-1.378 1.498zm1.697-2.509a3.499 3.499 0 0 0-.477-.032c-1.554-.008-2.073 1.203-2.311 2.318-.08.374-.127.71-.127 1.012-.017 1.18.612 1.975 1.473 2.078.112.017.223.024.327.024h.064c1.274.017 1.983-.844 2.333-2.374.048-.246.08-.517.08-.796 0-.94-.342-2.07-1.362-2.23zm-16.618 4.285c-.126.391-.246 1.546.336 1.443.796-.144 1.243-.885 1.426-2.884-1.028-.064-1.506.692-1.762 1.441zm2.734 1.387l-.264.095a.845.845 0 0 1-.255.064l-.007-.007c-.008-.112.103-.39.15-.59l.654-3.474-.087-.072a.88.88 0 0 0-.55-.183c-.231-.008-.494.071-.765.303a.45.45 0 0 0-.287-.127c-.231.015-.438.127-.996.406-.851.446-1.481 1.537-1.664 2.526-.024.143-.04.294-.04.462.007.661.183 1.457.741 1.808a.805.805 0 0 0 .39.103c.367-.008.702-.223.948-.43.024.24.176.55.557.55.32 0 .734-.176 1.387-.59l.088-.056v-.787zm.716-7.52v-.009c-.135-.183-.334-.302-.525-.302-.844.088-1.378 1.458-1.578 2.055l-.071.271.286-.024c1.004-.11 2.088-.454 2.135-1.33 0-.215-.088-.438-.247-.66zm6.262-11.87c.103.701.04 1.801.947 1.562.63-.16.948-.686.884-1.745-.055-.852-.278-2.063-.98-1.975-.859.127-.979 1.275-.851 2.158zm2.939-.558c-.071-.93-.526-2.58-1.959-2.612-.12 0-.248.008-.383.04-1.713.342-2.056 1.761-2.039 2.891 0 .191.007.382.023.567.016.191.024 1.354.041 2.468 0 .558.007 1.116.015 1.522 0 .215 0 .375.009.502 0 .064 0 .104.007.143v.048c0 .008.008.016.016.04.016 0-.023.064.104.12l-.008.007c.072.12.255.2.422.2h.016c.494-.024.725-.494.756-.494l.024-.048.033-2.462c.191.064.454.128.685.128.047 0 .103 0 .143-.009 1.442-.277 2.127-1.234 2.103-2.668 0-.135-.008-.255-.008-.383zm-6.851-14.768c-.175.724-.422 1.761.398 1.935.606.12 1.164-.398 1.379-1.489.183-.9.366-1.824-.319-1.984-.597-.143-1.362.646-1.458 1.538zm1.705-2.597a3.966 3.966 0 0 0-.51-.032c-1.624-.008-2.175 1.227-2.421 2.383a4.128 4.128 0 0 0-.136 1.035c-.016 1.202.645 2.023 1.553 2.111.143.015.279.024.406.024h.033c1.314 0 2.063-.869 2.429-2.422a3.76 3.76 0 0 0 .079-.82c.009-.965-.358-2.12-1.433-2.279zm1.29-2.804a.695.695 0 0 0-.573-.294c-.868.063-1.521 1.41-1.752 2.007l-.081.271.288-.008c1.123-.103 2.325-.406 2.389-1.307 0-.222-.095-.446-.271-.669zm-12.983 5.52c-.184.717-.439 1.745.405 1.904.622.127 1.179-.398 1.402-1.473.183-.892.375-1.8-.327-1.96-.613-.135-1.377.637-1.48 1.53zm1.671-2.54a4.084 4.084 0 0 0-.524-.032c-1.65-.017-2.2 1.226-2.47 2.357a4.46 4.46 0 0 0-.143 1.02c-.009 1.202.669 2.007 1.585 2.095.151.015.286.024.422.024h.04c1.321 0 2.094-.853 2.461-2.398a3.64 3.64 0 0 0 .095-.805c0-.955-.382-2.102-1.466-2.262zm1.538-2.717a.752.752 0 0 0-.295-.605 1.06 1.06 0 0 0-.644-.23c-.614.015-1.076.55-1.171 1.066a1.36 1.36 0 0 0-.024.287c0 .47.151 1.251.899 1.505l.534.175-.319-.477.009-.008a3.292 3.292 0 0 1-.081-.574c0-.064 0-.11.009-.135.159-.079.454-.032.764-.31a.943.943 0 0 0 .319-.694zm5.783 38.38c-.008.71-.175 1.77.591 1.705.517-.048.827-.503.906-1.545.048-.853.072-2.032-.501-2.072-.709-.032-.98 1.02-.996 1.912zm.972-3.027h-.008c-.024 0-.048 0-.103.031-1.648.041-1.96 1.817-2.032 2.996-.024.358-.478 4.27-.486 4.62 0 0-.007.008 0 .048 0 .016.032.08.096.128 0 0 0 .008.009.008l.015.007c.016.143.199.272.39.272h.008c.399-.024.606-.384.63-.39l.327-2.383c.143.088.349.184.533.215l.016.016h.081c1.33-.023 1.983-.996 2.062-2.629.007-.112.007-.23.007-.35-.007-.996-.246-2.542-1.545-2.589zm8.971-31.522c-.169.733-.432 1.77.413 1.936.605.127 1.179-.398 1.394-1.489.183-.909.374-1.832-.318-1.984-.614-.136-1.378.646-1.489 1.537zm1.68-2.445a5.43 5.43 0 0 0-.51-.032c-1.649-.008-2.198 1.243-2.462 2.39-.103.367-.143.71-.143 1.028-.016 1.22.661 2.031 1.585 2.118.136.024.279.024.406.024h.04c1.33.008 2.088-.868 2.453-2.429.064-.239.096-.518.096-.813 0-.972-.373-2.118-1.465-2.286zm28.103-9.862c-2.413-.008-4.842-.263-6.945-.996-1.347-.46-3.338-.732-5.41-.732-3.018-.008-6.237.588-7.862 1.72v60.805c1.943-.909 4.668-1.268 7.337-1.275 2.374 0 4.677.302 6.285.86 1.92.668 4.198.925 6.492.925 3.657 0 7.321-.63 9.647-1.125v-61.25c-2.374.495-5.942 1.06-9.544 1.068zm-28.789-1.728c-2.07 0-4.062.271-5.392.732-2.16.757-4.62 1.012-7.058 1.012-4.923 0-9.75-1.068-11.487-1.49v60.972c.597.174 1.856.502 3.497.837 2.318.462 5.401.94 8.459.94 2.2 0 4.382-.249 6.222-.893 1.602-.558 3.785-.86 6.014-.86 2.637.007 5.33.422 7.234 1.433V94.634c-1.713-.988-4.676-1.505-7.489-1.497zm-35.567-2.565l10.546 7.814V91.99l.686.183c.008-.008 1.075.286 2.756.63l-5.959-9.632 9.361 10.205c1.76.24 3.735.43 5.727.43.144 0 .287-.017.422-.017l-6.221-16.345 9.886 16.035c.907-.143 1.8-.342 2.604-.629.319-.103.669-.2 1.044-.288l-3.321-18.99 7.001 18.513c.343-.008.685-.024 1.035-.024.789 0 1.578.032 2.359.104l.35-20.473 3.689 21.277c.668.223 1.29.494 1.824.82a7.97 7.97 0 0 1 .891-.453l4.509-21.445-.382 20.377a23.795 23.795 0 0 1 3.194-.207c.112 0 .224.008.343.008l7.537-17.923-3.881 18.266c.63.12 1.236.262 1.761.438.677.24 1.41.413 2.159.55l10.021-15.008-6.501 15.366c.303.008.614.024.916.024 2.04 0 4.079-.2 5.895-.446l8.754-8.874-5.568 8.333.886-.185.66-.15v7.766l11.79-8.093-11.79 11.901v4.94l17.964-7.83-17.964 12.282v2.732l22.321-5.01-22.321 9.686v1.721l24.695-.749-24.695 5.497v1.378l25.022 4.04-25.022.715v1.554l23.278 8.5-23.278-3.792v2.326l19.517 11.717-19.517-7.169v4.063l13.885 12.46-13.885-8.446v1.275l-.43.088c-.758.167-1.704.351-2.765.533-1.695.295-3.696.55-5.783.662-.582.024-1.164.047-1.752.047-.527 0-1.035-.023-1.562-.047-1.84-.105-3.656-.367-5.28-.932a9.854 9.854 0 0 0-1.043-.296c-.208-.047-.439-.088-.654-.127a23.105 23.105 0 0 0-4.238-.382c-3.036-.008-6.19.542-7.728 1.632l-.302.224-.303-.224c-1.561-1.09-4.477-1.632-7.321-1.632-2.126 0-4.229.295-5.647.805-.606.207-1.243.358-1.888.493-.478.104-.972.191-1.474.255-1.059.136-2.15.2-3.227.2-.78 0-1.56-.033-2.332-.088a51.774 51.774 0 0 1-6.55-.916c-2.261-.47-3.759-.924-3.774-.924l-.384-.119v-.925l-15.214 7.154 15.214-12.682v-3.569l-20.504 6.7 20.504-11.32v-2.07l-23.881 3.002 23.881-7.75v-1.443l-25.235-1.625 25.235-3.154v-1.346l-24.518-6.406 24.518 1.641v-1.799l-21.755-10.397 21.755 5.721v-2.987l-17.039-12.587 17.039 8.182v-5.498l-10.546-11.446z" fill="#5C2E91"/></g></svg>