<svg width="238" height="134" viewBox="0 0 238 134" xmlns="http://www.w3.org/2000/svg"><title>logo-ctd</title><g fill="none" fill-rule="evenodd"><g transform="translate(77)"><path d="M43 0h19.5C75.476 0 86 10.521 86 23.5 86 36.482 75.479 47 62.5 47H43V34h19.991C68.52 34 73 29.524 73 24c0-5.523-4.485-10-10.009-10H43V0z" fill="#A6CE39"/><path d="M43 0H23.5C10.524 0 0 10.521 0 23.5 0 36.482 10.521 47 23.5 47H43V34H23.009C17.48 34 13 29.524 13 24c0-5.523 4.485-10 10.009-10H43V0z" fill="#5C2D91"/><rect fill="#FADD03" transform="rotate(90 34 7)" x="27" y="-10" width="14" height="34" rx="7"/><path d="M50 0h-6c-3.858 0-7 3.133-7 6.998v33.004A7.002 7.002 0 0 0 44 47c3.858 0 7-3.133 7-6.998V14h13.009A6.995 6.995 0 0 0 71 7c0-3.858-3.13-7-6.991-7H50z" fill="#EE4D9B"/></g><path d="M9.464 79.921c-.436-.469-.857-.781-1.265-.938a3.414 3.414 0 0 0-1.231-.234 4.11 4.11 0 0 0-1.667.327c-.497.217-.924.519-1.281.904a4.108 4.108 0 0 0-.83 1.349 4.625 4.625 0 0 0-.292 1.658c0 .636.097 1.222.293 1.759.195.536.472.999.829 1.39.357.39.784.698 1.281.921a4.021 4.021 0 0 0 1.667.335c.48 0 .946-.114 1.399-.343.452-.23.873-.595 1.264-1.098l1.742 1.24c-.536.737-1.189 1.273-1.96 1.608a6.108 6.108 0 0 1-2.462.502c-.915 0-1.756-.147-2.52-.443A5.752 5.752 0 0 1 2.453 87.6a5.772 5.772 0 0 1-1.298-1.951c-.313-.76-.47-1.602-.47-2.53 0-.948.157-1.811.47-2.587a5.807 5.807 0 0 1 1.298-1.985 5.69 5.69 0 0 1 1.976-1.265c.765-.296 1.606-.444 2.521-.444.804 0 1.55.143 2.236.428.687.284 1.326.767 1.918 1.449l-1.641 1.206zm4.557 5.762c.067.604.301 1.072.703 1.407.402.336.888.503 1.457.503.503 0 .925-.103 1.265-.31.34-.206.64-.466.896-.779l1.44 1.089c-.468.58-.993.994-1.574 1.24-.58.245-1.189.368-1.825.368-.604 0-1.173-.1-1.709-.301-.536-.202-1-.486-1.39-.855-.391-.368-.701-.812-.93-1.331a4.252 4.252 0 0 1-.343-1.734c0-.637.114-1.214.343-1.734.229-.519.539-.963.93-1.331.39-.369.854-.653 1.39-.855a4.825 4.825 0 0 1 1.709-.301c.558 0 1.069.098 1.532.293.464.196.86.477 1.19.846.329.369.586.824.77 1.365.184.542.276 1.164.276 1.868v.552h-6.13zm4.12-1.507c-.01-.592-.195-1.058-.552-1.399-.358-.34-.855-.51-1.491-.51-.603 0-1.08.173-1.432.519-.352.346-.567.81-.645 1.39h4.12zm3.686-3.216h1.91v1.29h.033c.19-.402.48-.751.871-1.047.391-.296.921-.444 1.592-.444.536 0 .99.09 1.365.268.374.179.678.413.913.704.234.29.401.625.502 1.005.1.38.15.776.15 1.189V89h-2.01v-4.07c0-.224-.01-.472-.033-.746a2.676 2.676 0 0 0-.176-.77 1.443 1.443 0 0 0-.444-.603c-.2-.162-.474-.243-.82-.243-.335 0-.617.056-.846.168a1.625 1.625 0 0 0-.57.452c-.15.19-.26.407-.326.653-.067.246-.1.502-.1.77V89h-2.01v-8.04zm8.477 1.709V80.96h1.658v-2.328h2.01v2.328h2.211v1.709h-2.211v3.517c0 .402.075.72.226.955.15.234.45.352.896.352.179 0 .374-.02.587-.06.212-.038.38-.102.502-.192v1.692c-.212.1-.472.17-.779.21-.307.038-.578.058-.812.058-.536 0-.975-.059-1.315-.176a1.735 1.735 0 0 1-.804-.536 2.035 2.035 0 0 1-.402-.896 6.278 6.278 0 0 1-.109-1.24V82.67h-1.658zm8.862 3.014c.067.604.301 1.072.703 1.407.402.336.888.503 1.457.503.503 0 .924-.103 1.265-.31.34-.206.64-.466.896-.779l1.44 1.089c-.469.58-.993.994-1.574 1.24-.58.245-1.19.368-1.826.368-.603 0-1.172-.1-1.708-.301-.536-.202-1-.486-1.39-.855-.391-.368-.701-.812-.93-1.331a4.252 4.252 0 0 1-.343-1.734c0-.637.114-1.214.343-1.734.229-.519.539-.963.93-1.331.39-.369.854-.653 1.39-.855a4.825 4.825 0 0 1 1.708-.301c.559 0 1.07.098 1.533.293.463.196.86.477 1.19.846.329.369.585.824.77 1.365.184.542.276 1.164.276 1.868v.552h-6.13zm4.12-1.507c-.011-.592-.195-1.058-.553-1.399-.357-.34-.854-.51-1.49-.51-.604 0-1.08.173-1.433.519-.351.346-.566.81-.645 1.39h4.121zm3.686-3.216h2.01v1.273h.034c.223-.469.541-.832.954-1.089a2.64 2.64 0 0 1 1.784-.352c.117.023.237.05.36.084v1.943a5.632 5.632 0 0 0-.494-.109 2.806 2.806 0 0 0-.477-.041c-.47 0-.846.086-1.13.26a1.977 1.977 0 0 0-.955 1.265c-.05.222-.076.39-.076.501V89h-2.01v-8.04zm11.794 1.709h-1.658V80.96h1.658v-1.139c0-.558.04-1.064.117-1.516.078-.452.226-.84.444-1.164.218-.324.522-.572.913-.745.39-.173.899-.26 1.524-.26.458 0 .882.04 1.273.117l-.134 1.709a6.937 6.937 0 0 0-.419-.084 2.544 2.544 0 0 0-.418-.034c-.28 0-.503.045-.67.135-.168.089-.299.209-.394.36-.095.15-.156.326-.184.527a4.628 4.628 0 0 0-.042.637v1.457h1.86v1.709h-1.86V89h-2.01v-6.332zm4.574 2.311c0-.637.114-1.214.343-1.734.229-.519.539-.963.93-1.331.39-.369.854-.653 1.39-.855a4.825 4.825 0 0 1 1.709-.301c.603 0 1.172.1 1.708.302.536.2 1 .485 1.39.854.391.368.701.812.93 1.331.229.52.343 1.097.343 1.734s-.114 1.214-.343 1.734c-.229.519-.539.963-.93 1.331-.39.369-.854.653-1.39.855a4.825 4.825 0 0 1-1.709.301c-.603 0-1.172-.1-1.708-.301-.536-.202-1-.486-1.39-.855-.391-.368-.701-.812-.93-1.331a4.252 4.252 0 0 1-.343-1.734zm2.01 0c0 .313.053.614.159.904.106.29.262.548.469.771.206.223.455.402.745.536s.62.201.989.201c.368 0 .697-.067.988-.201.29-.134.539-.313.745-.536a2.27 2.27 0 0 0 .47-.77c.105-.29.158-.592.158-.905 0-.313-.053-.614-.159-.904a2.27 2.27 0 0 0-.469-.771 2.336 2.336 0 0 0-.745-.536 2.332 2.332 0 0 0-.989-.201c-.368 0-.697.067-.988.201-.29.134-.539.313-.745.536a2.27 2.27 0 0 0-.47.77c-.105.29-.158.592-.158.905zm8.41-4.02h2.01v1.273h.033c.223-.469.541-.832.954-1.089a2.64 2.64 0 0 1 1.784-.352c.118.023.238.05.36.084v1.943a5.632 5.632 0 0 0-.494-.109 2.806 2.806 0 0 0-.477-.041c-.469 0-.846.086-1.13.26a1.977 1.977 0 0 0-.955 1.265c-.05.222-.076.39-.076.501V89h-2.01v-8.04zm13.686-1.91h-3.635v-1.909h9.38v1.91h-3.635V89h-2.11v-9.95zm10.151 8.844h-.05c-.29.458-.659.79-1.105.997-.447.207-.938.31-1.474.31-.369 0-.729-.05-1.08-.15a2.926 2.926 0 0 1-.939-.453 2.323 2.323 0 0 1-.661-.754 2.138 2.138 0 0 1-.251-1.055c0-.436.078-.807.234-1.114.156-.307.366-.564.628-.77.263-.207.567-.372.913-.495a6.253 6.253 0 0 1 1.08-.276c.374-.061.751-.1 1.131-.117s.737-.025 1.072-.025h.502v-.218c0-.503-.173-.88-.519-1.13-.346-.252-.787-.378-1.323-.378-.424 0-.82.076-1.19.227a3.01 3.01 0 0 0-.954.611l-1.055-1.055a3.896 3.896 0 0 1 1.566-.989 5.766 5.766 0 0 1 1.85-.301c.57 0 1.05.064 1.441.193.391.128.715.293.972.494.257.2.455.432.594.695.14.262.24.527.302.795.061.269.098.528.109.78.01.25.016.471.016.661V89h-1.809v-1.106zM97.48 85.4h-.419c-.279 0-.591.01-.938.033a4.921 4.921 0 0 0-.98.16 2.24 2.24 0 0 0-.778.368c-.212.162-.319.388-.319.678 0 .19.042.35.126.478.084.128.193.237.327.326.134.09.284.154.452.193.168.039.335.058.503.058.692 0 1.203-.164 1.532-.494.33-.329.494-.778.494-1.348v-.452zm3.92-9.062h2.01V89h-2.01V76.337zm5.73 9.346c.067.604.302 1.072.704 1.407.402.336.887.503 1.457.503.503 0 .924-.103 1.265-.31.34-.206.639-.466.896-.779l1.44 1.089c-.469.58-.994.994-1.574 1.24-.58.245-1.19.368-1.826.368-.603 0-1.172-.1-1.709-.301-.536-.202-.999-.486-1.39-.855-.39-.368-.7-.812-.93-1.331a4.252 4.252 0 0 1-.343-1.734c0-.637.115-1.214.344-1.734.229-.519.538-.963.93-1.331.39-.369.853-.653 1.39-.855a4.825 4.825 0 0 1 1.708-.301c.558 0 1.07.098 1.533.293.463.196.86.477 1.189.846.33.369.586.824.77 1.365.185.542.277 1.164.277 1.868v.552h-6.13zm4.12-1.507c-.01-.592-.195-1.058-.552-1.399-.357-.34-.854-.51-1.49-.51-.604 0-1.081.173-1.433.519-.352.346-.567.81-.645 1.39h4.12zm3.687-3.216h1.91v1.29h.033c.19-.402.48-.751.87-1.047.392-.296.922-.444 1.592-.444.536 0 .991.09 1.365.268.374.179.678.413.913.704.235.29.402.625.502 1.005.101.38.151.776.151 1.189V89h-2.01v-4.07c0-.224-.01-.472-.033-.746a2.676 2.676 0 0 0-.176-.77 1.443 1.443 0 0 0-.444-.603c-.201-.162-.475-.243-.82-.243-.336 0-.618.056-.847.168a1.626 1.626 0 0 0-.57.452c-.15.19-.259.407-.326.653-.067.246-.1.502-.1.77V89h-2.01v-8.04zm8.476 1.709V80.96h1.659v-2.328h2.01v2.328h2.21v1.709h-2.21v3.517c0 .402.075.72.226.955.15.234.45.352.896.352.178 0 .374-.02.586-.06.212-.038.38-.102.502-.192v1.692c-.212.1-.471.17-.778.21-.307.038-.578.058-.813.058-.536 0-.974-.059-1.315-.176a1.735 1.735 0 0 1-.804-.536 2.035 2.035 0 0 1-.402-.896 6.278 6.278 0 0 1-.109-1.24V82.67h-1.658zm12.196-5.528h4.673c.782 0 1.536.12 2.262.36s1.368.606 1.926 1.097a5.36 5.36 0 0 1 1.34 1.851c.335.743.502 1.616.502 2.621 0 1.017-.192 1.896-.577 2.639a5.647 5.647 0 0 1-1.491 1.842 6.358 6.358 0 0 1-2.027 1.089 7.08 7.08 0 0 1-2.186.36h-4.422V77.141zm3.685 9.95c.66 0 1.282-.076 1.868-.227a4.443 4.443 0 0 0 1.532-.703 3.34 3.34 0 0 0 1.03-1.24c.252-.508.377-1.125.377-1.85 0-.715-.111-1.33-.334-1.843a3.204 3.204 0 0 0-.93-1.248 3.879 3.879 0 0 0-1.407-.703 6.638 6.638 0 0 0-1.784-.227h-1.926v8.04h1.574zm10.252-1.407c.067.603.302 1.071.704 1.407.402.335.887.502 1.457.502.503 0 .924-.103 1.265-.31.34-.206.639-.466.896-.779l1.44 1.089c-.469.58-.994.994-1.574 1.24-.58.245-1.19.368-1.826.368-.603 0-1.172-.1-1.708-.301-.537-.202-1-.486-1.39-.855-.392-.368-.701-.812-.93-1.331a4.252 4.252 0 0 1-.344-1.734c0-.637.115-1.214.344-1.734.229-.519.538-.963.93-1.331.39-.369.853-.653 1.39-.855a4.825 4.825 0 0 1 1.708-.301c.558 0 1.07.098 1.533.293.463.196.86.477 1.189.846.33.369.586.824.77 1.365.185.542.277 1.164.277 1.868v.552h-6.13zm4.12-1.508c-.01-.592-.195-1.058-.552-1.399-.357-.34-.854-.51-1.49-.51-.604 0-1.081.173-1.433.519-.352.346-.567.81-.645 1.39h4.12zm2.598-3.216h2.194l2.144 5.628h.034l2.16-5.628h2.06L161.692 89h-2.144l-3.283-8.04zm11.19 4.724c.067.603.301 1.071.703 1.407.403.335.888.502 1.458.502.502 0 .924-.103 1.264-.31.341-.206.64-.466.897-.779l1.44 1.089c-.469.58-.994.994-1.575 1.24-.58.245-1.189.368-1.825.368-.603 0-1.173-.1-1.709-.301-.536-.202-1-.486-1.39-.855-.39-.368-.7-.812-.93-1.331a4.252 4.252 0 0 1-.343-1.734c0-.637.114-1.214.343-1.734.23-.519.54-.963.93-1.331.39-.369.854-.653 1.39-.855a4.825 4.825 0 0 1 1.709-.301c.558 0 1.069.098 1.532.293.464.196.86.477 1.19.846.329.369.586.824.77 1.365.184.542.276 1.164.276 1.868v.552h-6.13zm4.12-1.508c-.01-.592-.195-1.058-.552-1.399-.358-.34-.854-.51-1.491-.51-.603 0-1.08.173-1.432.519-.352.346-.567.81-.645 1.39h4.12zm3.72-7.839h2.01V89h-2.01V76.337zm3.72 8.643c0-.637.114-1.214.343-1.734.229-.519.539-.963.93-1.331.39-.369.854-.653 1.39-.855a4.825 4.825 0 0 1 1.708-.301c.603 0 1.173.1 1.709.302.536.2 1 .485 1.39.854.39.368.7.812.93 1.331.229.52.343 1.097.343 1.734s-.114 1.214-.343 1.734c-.23.519-.54.963-.93 1.331-.39.369-.854.653-1.39.855a4.825 4.825 0 0 1-1.709.301c-.603 0-1.172-.1-1.708-.301-.536-.202-1-.486-1.39-.855-.391-.368-.701-.812-.93-1.331a4.252 4.252 0 0 1-.344-1.734zm2.01 0c0 .313.053.614.159.904.106.29.262.548.469.771.206.223.455.402.745.536s.62.201.988.201c.369 0 .698-.067.989-.201.29-.134.538-.313.745-.536a2.27 2.27 0 0 0 .469-.77c.106-.29.159-.592.159-.905 0-.313-.053-.614-.16-.904a2.27 2.27 0 0 0-.468-.771 2.336 2.336 0 0 0-.745-.536 2.332 2.332 0 0 0-.989-.201c-.368 0-.698.067-.988.201-.29.134-.539.313-.745.536a2.27 2.27 0 0 0-.47.77c-.105.29-.158.592-.158.905zm8.409-4.02h1.91v1.206h.033c.29-.491.681-.849 1.172-1.072a3.8 3.8 0 0 1 1.592-.335c.614 0 1.167.109 1.658.327.491.217.91.516 1.256.896s.609.826.787 1.34c.18.513.268 1.066.268 1.658 0 .592-.094 1.145-.284 1.658-.19.514-.455.96-.796 1.34-.34.38-.75.679-1.231.896a3.767 3.767 0 0 1-1.575.327c-.38 0-.714-.04-1.005-.117a3.463 3.463 0 0 1-.77-.302 3.082 3.082 0 0 1-.57-.393 2.861 2.861 0 0 1-.385-.41h-.05v4.84h-2.01V80.96zm6.667 4.02c0-.313-.054-.614-.16-.904a2.27 2.27 0 0 0-.469-.771 2.336 2.336 0 0 0-.745-.536 2.332 2.332 0 0 0-.988-.201c-.369 0-.698.067-.988.201-.29.134-.54.313-.746.536a2.27 2.27 0 0 0-.469.77c-.106.29-.159.592-.159.905 0 .313.053.614.16.904.105.29.262.548.468.771.207.223.455.402.746.536.29.134.62.201.988.201s.698-.067.988-.201c.29-.134.539-.313.745-.536a2.27 2.27 0 0 0 .47-.77c.105-.29.159-.592.159-.905zm3.602-4.02h1.91v1.256h.033c.178-.38.466-.717.862-1.013.397-.296.93-.444 1.6-.444 1.262 0 2.1.497 2.512 1.49.29-.513.654-.89 1.09-1.13.435-.24.954-.36 1.557-.36.536 0 .988.09 1.357.268.368.179.667.424.896.737.229.313.393.678.494 1.097.1.419.15.868.15 1.349V89h-2.01v-4.556a3.71 3.71 0 0 0-.066-.712 1.701 1.701 0 0 0-.235-.603 1.19 1.19 0 0 0-.452-.41c-.19-.1-.435-.151-.737-.151-.313 0-.578.059-.796.176a1.554 1.554 0 0 0-.536.469c-.14.195-.24.419-.301.67a3.198 3.198 0 0 0-.092.762V89h-2.01v-4.79c0-.503-.106-.902-.319-1.198-.212-.296-.563-.444-1.055-.444-.335 0-.617.056-.846.168a1.626 1.626 0 0 0-.57.452c-.15.19-.259.407-.326.653-.067.246-.1.502-.1.77V89h-2.01v-8.04zm16.064 4.724c.067.603.301 1.071.704 1.407.402.335.887.502 1.457.502.502 0 .924-.103 1.264-.31.341-.206.64-.466.897-.779l1.44 1.089c-.469.58-.994.994-1.575 1.24-.58.245-1.189.368-1.825.368-.603 0-1.173-.1-1.709-.301-.536-.202-1-.486-1.39-.855-.39-.368-.7-.812-.93-1.331a4.252 4.252 0 0 1-.343-1.734c0-.637.114-1.214.343-1.734.23-.519.54-.963.93-1.331.39-.369.854-.653 1.39-.855a4.825 4.825 0 0 1 1.709-.301c.558 0 1.069.098 1.532.293.464.196.86.477 1.19.846.329.369.586.824.77 1.365.184.542.276 1.164.276 1.868v.552h-6.13zm4.12-1.508c-.01-.592-.195-1.058-.552-1.399-.358-.34-.854-.51-1.491-.51-.603 0-1.08.173-1.432.519-.352.346-.567.81-.645 1.39h4.12zm3.686-3.216h1.91v1.29h.034c.19-.402.48-.751.87-1.047.391-.296.922-.444 1.592-.444.536 0 .99.09 1.365.268.374.179.678.413.913.704.234.29.402.625.502 1.005.1.38.151.776.151 1.189V89h-2.01v-4.07c0-.224-.011-.472-.034-.746a2.676 2.676 0 0 0-.175-.77 1.443 1.443 0 0 0-.444-.603c-.201-.162-.475-.243-.821-.243-.335 0-.617.056-.846.168a1.626 1.626 0 0 0-.57.452c-.15.19-.259.407-.326.653-.067.246-.1.502-.1.77V89h-2.01v-8.04zm8.477 1.709V80.96h1.658v-2.328h2.01v2.328h2.211v1.709h-2.21v3.517c0 .402.075.72.225.955.151.234.45.352.896.352.18 0 .375-.02.587-.06.212-.038.38-.102.502-.192v1.692c-.212.1-.472.17-.779.21-.307.038-.577.058-.812.058-.536 0-.974-.059-1.315-.176a1.735 1.735 0 0 1-.804-.536 2.035 2.035 0 0 1-.402-.896 6.278 6.278 0 0 1-.109-1.24V82.67h-1.658zM52.138 101.15h1.575l4.874 7.275h.025v-7.275h1.2V110h-1.524l-4.925-7.275h-.026V110h-1.2v-8.85zm10.375 5.887c0 .3.045.578.137.832.092.254.22.47.388.65.166.179.37.32.612.425.242.104.512.156.813.156.3 0 .57-.052.812-.156.242-.104.446-.246.612-.425.167-.18.296-.396.388-.65.092-.254.137-.531.137-.832 0-.3-.045-.577-.137-.83a1.874 1.874 0 0 0-.388-.65c-.166-.18-.37-.322-.612-.426a2.033 2.033 0 0 0-.813-.156c-.3 0-.57.052-.812.156a1.794 1.794 0 0 0-.612.425c-.167.18-.296.396-.388.65a2.433 2.433 0 0 0-.137.831zm-1.2 0c0-.433.08-.837.243-1.212a3.12 3.12 0 0 1 1.669-1.656 3.138 3.138 0 0 1 1.238-.244 3.138 3.138 0 0 1 2.906 1.9c.162.375.243.78.243 1.212a3.066 3.066 0 0 1-.912 2.206 3.174 3.174 0 0 1-2.237.907 3.174 3.174 0 0 1-2.238-.906 3.066 3.066 0 0 1-.913-2.207zm7.512-2.962h1.125v.912h.025c.075-.158.175-.302.3-.43.125-.13.265-.24.419-.332.154-.092.323-.165.506-.219.183-.054.367-.081.55-.081.183 0 .35.025.5.075l-.05 1.213a3.264 3.264 0 0 0-.275-.063 1.534 1.534 0 0 0-.275-.025c-.55 0-.97.154-1.263.463-.291.308-.437.787-.437 1.437V110h-1.125v-5.925zm7.6.975h-1.612v2.688c0 .166.004.33.012.493.008.163.04.309.094.438a.71.71 0 0 0 .25.312c.112.08.277.119.493.119.134 0 .271-.012.413-.037.142-.026.27-.071.388-.138v1.025a1.468 1.468 0 0 1-.52.156c-.212.03-.376.044-.493.044-.433 0-.769-.06-1.006-.181a1.236 1.236 0 0 1-.525-.469 1.516 1.516 0 0 1-.2-.644 8.221 8.221 0 0 1-.031-.718v-3.088h-1.3v-.975h1.3v-1.663h1.124v1.663h1.613v.975zm1.25-4.5H78.8v4.438h.025c.142-.317.387-.573.737-.77.35-.195.755-.293 1.213-.293.283 0 .556.044.819.131.262.088.491.223.687.407.196.183.352.418.469.706a2.7 2.7 0 0 1 .175 1.019V110H81.8v-3.5c0-.275-.037-.51-.112-.706a1.29 1.29 0 0 0-.3-.475 1.126 1.126 0 0 0-.432-.263 1.59 1.59 0 0 0-.506-.081c-.233 0-.45.038-.65.113-.2.075-.375.193-.525.356-.15.162-.267.368-.35.618-.083.25-.125.546-.125.888V110h-1.125v-9.45zm6.038 3.525h1.262l1.338 4.425h.025l1.412-4.425h1.188l1.5 4.425h.025l1.275-4.425h1.187L91.013 110h-1.138l-1.563-4.425h-.025L86.875 110h-1.213l-1.95-5.925zm10.85 3.375c0 .258.056.494.168.706.113.213.26.394.444.544.183.15.396.267.638.35.241.083.491.125.75.125.35 0 .654-.081.912-.244.258-.162.496-.377.713-.644l.85.65c-.626.809-1.5 1.213-2.626 1.213-.466 0-.89-.08-1.268-.238a2.762 2.762 0 0 1-1.569-1.643 3.49 3.49 0 0 1-.213-1.232c0-.441.078-.852.232-1.23.154-.38.366-.71.637-.988.271-.28.594-.498.969-.657a3.117 3.117 0 0 1 1.225-.237c.525 0 .969.092 1.331.275.363.183.66.423.894.719.233.296.402.629.506 1 .104.37.156.748.156 1.131v.4h-4.75zm3.55-.9a2.373 2.373 0 0 0-.12-.688 1.513 1.513 0 0 0-.318-.543 1.468 1.468 0 0 0-.531-.363 1.944 1.944 0 0 0-.744-.131 1.842 1.842 0 0 0-1.706 1.119 1.53 1.53 0 0 0-.132.606h3.55zm5.5-.987a1.724 1.724 0 0 0-.494-.42 1.422 1.422 0 0 0-.719-.168 1.37 1.37 0 0 0-.694.169.538.538 0 0 0-.294.493c0 .176.057.317.17.425.112.109.245.196.4.263.153.067.318.117.493.15.175.033.325.063.45.088.242.058.469.129.681.212.213.083.396.192.55.325.154.133.275.296.363.488.087.191.131.424.131.7 0 .333-.07.618-.213.856a1.791 1.791 0 0 1-.55.581c-.225.15-.48.258-.768.325-.288.067-.577.1-.869.1-.492 0-.923-.075-1.294-.225-.37-.15-.702-.425-.993-.825l.85-.7a3.5 3.5 0 0 0 .612.487c.225.142.5.213.825.213.142 0 .285-.015.431-.044a1.33 1.33 0 0 0 .388-.137.848.848 0 0 0 .275-.238.543.543 0 0 0 .106-.331.571.571 0 0 0-.156-.412 1.132 1.132 0 0 0-.375-.257 2.73 2.73 0 0 0-.463-.15 15.213 15.213 0 0 0-.431-.094 7.436 7.436 0 0 1-.688-.2 2.09 2.09 0 0 1-.575-.3 1.386 1.386 0 0 1-.4-.474c-.1-.192-.15-.43-.15-.713a1.615 1.615 0 0 1 .707-1.375c.212-.15.454-.263.725-.338a3.055 3.055 0 0 1 1.968.113c.367.15.659.4.876.75l-.876.662zm5.374-.513h-1.612v2.688c0 .166.004.33.013.493.008.163.04.309.093.438a.71.71 0 0 0 .25.312c.113.08.277.119.494.119.133 0 .27-.012.413-.037.141-.026.27-.071.387-.138v1.025a1.468 1.468 0 0 1-.519.156c-.212.03-.377.044-.493.044-.434 0-.77-.06-1.007-.181a1.236 1.236 0 0 1-.525-.469 1.516 1.516 0 0 1-.2-.644 8.222 8.222 0 0 1-.031-.718v-3.088h-1.3v-.975h1.3v-1.663h1.125v1.663h1.612v.975zm2.1 2.4c0 .258.057.494.17.706.112.213.26.394.443.544.183.15.396.267.638.35.241.083.491.125.75.125.35 0 .654-.081.912-.244.258-.162.496-.377.713-.644l.85.65c-.626.809-1.5 1.213-2.626 1.213-.466 0-.89-.08-1.268-.238a2.762 2.762 0 0 1-1.569-1.643 3.49 3.49 0 0 1-.212-1.232c0-.441.077-.852.23-1.23.155-.38.367-.71.638-.988.271-.28.594-.498.969-.657a3.117 3.117 0 0 1 1.225-.237c.525 0 .969.092 1.331.275.363.183.66.423.894.719.233.296.402.629.506 1 .104.37.157.748.157 1.131v.4h-4.75zm3.55-.9a2.373 2.373 0 0 0-.118-.688 1.513 1.513 0 0 0-.319-.543 1.468 1.468 0 0 0-.531-.363 1.944 1.944 0 0 0-.744-.131 1.842 1.842 0 0 0-1.706 1.119 1.53 1.53 0 0 0-.131.606h3.55zm2.35-2.475h1.126v.912h.025c.075-.158.174-.302.3-.43.125-.13.264-.24.418-.332.154-.092.323-.165.507-.219.183-.054.366-.081.55-.081.183 0 .35.025.5.075l-.05 1.213a3.264 3.264 0 0 0-.275-.063 1.534 1.534 0 0 0-.275-.025c-.55 0-.971.154-1.263.463-.292.308-.438.787-.438 1.437V110h-1.124v-5.925zm4.425 0h1.125v.912h.025c.142-.316.388-.572.738-.768.35-.196.754-.294 1.213-.294.283 0 .556.044.818.131.263.088.492.223.688.407.196.183.352.418.468.706a2.7 2.7 0 0 1 .175 1.019V110h-1.125v-3.5c0-.275-.037-.51-.112-.706a1.29 1.29 0 0 0-.3-.475 1.126 1.126 0 0 0-.431-.263 1.59 1.59 0 0 0-.507-.081c-.233 0-.45.038-.65.113-.2.075-.374.193-.525.356-.15.162-.266.368-.35.618-.083.25-.125.546-.125.888V110h-1.125v-5.925zm11.35-2.925v5.425c0 .275.038.56.113.856.075.296.2.569.375.819s.404.454.688.612c.283.159.633.238 1.05.238.416 0 .766-.08 1.05-.237.283-.159.512-.363.687-.613.175-.25.3-.523.375-.819a3.48 3.48 0 0 0 .113-.856v-5.425h1.2v5.612c0 .517-.088.986-.263 1.407-.175.42-.417.785-.725 1.094a3.2 3.2 0 0 1-1.088.712c-.416.167-.866.25-1.35.25-.483 0-.933-.083-1.35-.25a3.2 3.2 0 0 1-1.087-.712 3.344 3.344 0 0 1-.725-1.094 3.63 3.63 0 0 1-.262-1.406v-5.613h1.2zm7.275 2.925h1.125v.912h.025c.142-.316.388-.572.738-.768.35-.196.754-.294 1.212-.294.284 0 .557.044.82.131.262.088.49.223.687.407.196.183.352.418.469.706a2.7 2.7 0 0 1 .174 1.019V110h-1.125v-3.5c0-.275-.037-.51-.112-.706a1.29 1.29 0 0 0-.3-.475 1.126 1.126 0 0 0-.431-.263 1.59 1.59 0 0 0-.506-.081c-.234 0-.45.038-.65.113-.2.075-.375.193-.526.356-.15.162-.266.368-.35.618-.083.25-.125.546-.125.888V110h-1.125v-5.925zm6.838 0H148V110h-1.125v-5.925zm-.262-2.125c0-.225.08-.419.243-.581a.794.794 0 0 1 .582-.244c.225 0 .418.081.58.244a.794.794 0 0 1 .244.581.794.794 0 0 1-.243.581.794.794 0 0 1-.582.244.794.794 0 0 1-.58-.244.794.794 0 0 1-.244-.581zm2.262 2.125h1.3l1.775 4.537 1.7-4.537h1.2L152.525 110h-1.238l-2.412-5.925zm7.613 3.375c0 .258.056.494.168.706.113.213.26.394.444.544.183.15.396.267.638.35.241.083.491.125.75.125.35 0 .654-.081.912-.244.258-.162.496-.377.713-.644l.85.65c-.626.809-1.5 1.213-2.625 1.213-.467 0-.89-.08-1.27-.238a2.762 2.762 0 0 1-1.568-1.643 3.49 3.49 0 0 1-.213-1.232c0-.441.078-.852.232-1.23.154-.38.366-.71.637-.988.271-.28.594-.498.969-.657a3.117 3.117 0 0 1 1.225-.237c.525 0 .969.092 1.331.275.363.183.66.423.894.719.233.296.402.629.506 1 .104.37.157.748.157 1.131v.4h-4.75zm3.55-.9a2.373 2.373 0 0 0-.12-.688 1.513 1.513 0 0 0-.318-.543 1.468 1.468 0 0 0-.531-.363 1.944 1.944 0 0 0-.744-.131 1.842 1.842 0 0 0-1.706 1.119 1.53 1.53 0 0 0-.131.606h3.55zm2.35-2.475h1.124v.912h.025c.076-.158.175-.302.3-.43.126-.13.265-.24.42-.332.153-.092.322-.165.505-.219.184-.054.367-.081.55-.081.184 0 .35.025.5.075l-.05 1.213a3.264 3.264 0 0 0-.274-.063 1.534 1.534 0 0 0-.275-.025c-.55 0-.971.154-1.263.463-.292.308-.438.787-.438 1.437V110h-1.125v-5.925zm7.575 1.487a1.724 1.724 0 0 0-.494-.418 1.422 1.422 0 0 0-.719-.169 1.37 1.37 0 0 0-.694.169.538.538 0 0 0-.294.493c0 .176.057.317.17.425.112.109.245.196.4.263.153.067.318.117.493.15.175.033.325.063.45.088.242.058.469.129.681.212.213.083.396.192.55.325.154.133.275.296.363.488.087.191.131.424.131.7 0 .333-.07.618-.213.856a1.791 1.791 0 0 1-.55.581c-.225.15-.48.258-.768.325-.288.067-.577.1-.869.1-.492 0-.923-.075-1.294-.225-.37-.15-.702-.425-.994-.825l.85-.7a3.5 3.5 0 0 0 .613.487c.225.142.5.213.825.213.142 0 .285-.015.431-.044a1.33 1.33 0 0 0 .388-.137.848.848 0 0 0 .275-.238.543.543 0 0 0 .106-.331.571.571 0 0 0-.156-.412 1.132 1.132 0 0 0-.375-.257 2.73 2.73 0 0 0-.463-.15 15.213 15.213 0 0 0-.431-.094 7.436 7.436 0 0 1-.688-.2 2.09 2.09 0 0 1-.575-.3 1.386 1.386 0 0 1-.4-.474c-.1-.192-.15-.43-.15-.713a1.615 1.615 0 0 1 .707-1.375c.212-.15.454-.263.725-.338a3.055 3.055 0 0 1 1.969.113c.366.15.658.4.875.75l-.875.662zm2.287-1.487h1.125V110h-1.125v-5.925zm-.262-2.125c0-.225.08-.419.243-.581a.794.794 0 0 1 .582-.244c.225 0 .418.081.58.244a.794.794 0 0 1 .244.581.794.794 0 0 1-.243.581.794.794 0 0 1-.582.244.794.794 0 0 1-.58-.244.794.794 0 0 1-.244-.581zm6.15 3.1h-1.613v2.688c0 .166.004.33.012.493.009.163.04.309.094.438a.71.71 0 0 0 .25.312c.113.08.277.119.494.119.133 0 .27-.012.412-.037.142-.026.271-.071.388-.138v1.025a1.468 1.468 0 0 1-.519.156c-.212.03-.377.044-.494.044-.433 0-.768-.06-1.006-.181a1.236 1.236 0 0 1-.525-.469 1.516 1.516 0 0 1-.2-.644 8.221 8.221 0 0 1-.031-.718v-3.088h-1.3v-.975h1.3v-1.663h1.125v1.663h1.612v.975zm.537-.975h1.3l1.763 4.625h.024l1.675-4.625h1.213l-2.813 7.2c-.1.258-.204.494-.312.706a2.128 2.128 0 0 1-.388.544c-.15.15-.33.267-.543.35a2.147 2.147 0 0 1-.781.125 4.18 4.18 0 0 1-.507-.031 1.84 1.84 0 0 1-.494-.131l.138-1.025c.225.091.45.137.675.137.175 0 .323-.023.444-.069a.875.875 0 0 0 .312-.2c.088-.087.16-.19.219-.306.058-.117.117-.25.175-.4l.362-.938-2.462-5.962zM186.948 108.148h-.744v-.396h1.956v.396h-.744v2.076h-.468v-2.076zm1.686-.396h.714l.666 1.896h.018l.666-1.896h.714v2.472h-.468v-2.064h-.012l-.72 2.064h-.378l-.72-2.064h-.012v2.064h-.468v-2.472zM25.4 129.15c.217.325.494.565.831.719.338.154.686.231 1.044.231.2 0 .404-.031.613-.094a1.86 1.86 0 0 0 .568-.281c.171-.125.31-.28.419-.463a1.23 1.23 0 0 0 .163-.637c0-.342-.109-.602-.326-.781a2.806 2.806 0 0 0-.806-.45c-.32-.121-.67-.238-1.05-.35a4.27 4.27 0 0 1-1.05-.469c-.32-.2-.59-.469-.806-.806-.217-.338-.325-.794-.325-1.369 0-.258.056-.533.169-.825.112-.292.29-.558.531-.8.242-.242.552-.444.931-.606.38-.163.836-.244 1.369-.244.483 0 .946.067 1.387.2.442.133.83.404 1.163.813l-.975.887a1.618 1.618 0 0 0-.637-.563 2.018 2.018 0 0 0-.938-.212c-.333 0-.61.044-.831.131-.221.088-.398.2-.532.338a1.192 1.192 0 0 0-.28.444 1.36 1.36 0 0 0-.082.437c0 .375.108.662.325.862.217.2.485.363.806.488.321.125.671.237 1.05.338.38.1.73.24 1.05.418.321.18.59.421.806.725.217.304.326.723.326 1.257 0 .425-.082.808-.244 1.15-.163.341-.381.629-.656.862-.276.233-.6.412-.976.537a3.77 3.77 0 0 1-1.2.188c-.566 0-1.104-.1-1.612-.3a2.651 2.651 0 0 1-1.212-.925l.987-.85zm10.438-2.5a2.362 2.362 0 0 0-.657-.494 1.84 1.84 0 0 0-.819-.169 1.81 1.81 0 0 0-.806.17c-.229.112-.42.266-.575.462a2.08 2.08 0 0 0-.35.675c-.079.254-.118.518-.118.794 0 .275.045.535.137.78.092.247.22.461.388.644.166.184.366.328.6.432.233.104.495.156.787.156a1.8 1.8 0 0 0 .813-.169c.225-.112.433-.277.624-.494l.8.8a2.518 2.518 0 0 1-1.018.7 3.558 3.558 0 0 1-1.231.213c-.459 0-.878-.075-1.257-.225a2.79 2.79 0 0 1-1.619-1.606 3.387 3.387 0 0 1-.224-1.257c0-.458.074-.879.225-1.262.15-.383.36-.712.63-.987.272-.276.597-.49.976-.644a3.34 3.34 0 0 1 1.269-.231c.433 0 .847.077 1.243.23.396.155.74.39 1.032.707l-.85.775zm1.587-5.1h1.125v4.438h.025c.142-.317.387-.573.737-.77.35-.195.755-.293 1.213-.293.283 0 .556.044.819.131.262.088.491.223.687.407.196.183.352.418.469.706a2.7 2.7 0 0 1 .175 1.019V131H41.55v-3.5c0-.275-.037-.51-.112-.706a1.29 1.29 0 0 0-.3-.475 1.126 1.126 0 0 0-.432-.263 1.59 1.59 0 0 0-.506-.081c-.233 0-.45.038-.65.113-.2.075-.375.193-.525.356-.15.162-.267.368-.35.618-.083.25-.125.546-.125.888V131h-1.125v-9.45zm7.663 6.487c0 .3.045.578.137.832.092.254.22.47.387.65.167.179.371.32.613.425.242.104.512.156.813.156.3 0 .57-.052.812-.156.242-.104.446-.246.612-.425.167-.18.296-.396.388-.65.092-.254.137-.531.137-.832 0-.3-.045-.577-.137-.83a1.874 1.874 0 0 0-.388-.65c-.166-.18-.37-.322-.612-.426a2.033 2.033 0 0 0-.813-.156c-.3 0-.57.052-.812.156a1.794 1.794 0 0 0-.613.425c-.166.18-.295.396-.387.65a2.433 2.433 0 0 0-.138.831zm-1.2 0c0-.433.08-.837.243-1.212a3.12 3.12 0 0 1 1.669-1.656 3.138 3.138 0 0 1 1.238-.244 3.138 3.138 0 0 1 2.906 1.9c.162.375.243.78.243 1.212a3.066 3.066 0 0 1-.913 2.206 3.174 3.174 0 0 1-2.236.907 3.174 3.174 0 0 1-2.238-.906 3.066 3.066 0 0 1-.912-2.207zm8.425 0c0 .3.045.578.137.832.092.254.22.47.387.65.167.179.371.32.613.425.242.104.512.156.813.156.3 0 .57-.052.812-.156.242-.104.446-.246.612-.425.167-.18.296-.396.388-.65.092-.254.137-.531.137-.832 0-.3-.045-.577-.137-.83a1.874 1.874 0 0 0-.388-.65c-.166-.18-.37-.322-.612-.426a2.033 2.033 0 0 0-.813-.156c-.3 0-.57.052-.812.156a1.794 1.794 0 0 0-.613.425c-.166.18-.295.396-.387.65a2.433 2.433 0 0 0-.138.831zm-1.2 0c0-.433.08-.837.243-1.212a3.12 3.12 0 0 1 1.669-1.656 3.138 3.138 0 0 1 1.238-.244 3.138 3.138 0 0 1 2.906 1.9c.162.375.244.78.244 1.212 0 .434-.082.84-.244 1.22-.163.378-.386.708-.669.987a3.174 3.174 0 0 1-2.237.906 3.174 3.174 0 0 1-2.238-.906 3.066 3.066 0 0 1-.913-2.207zm7.6-6.487h1.124V131h-1.125v-9.45zm6.9 6.487c0 .3.045.578.137.832.092.254.22.47.388.65.166.179.37.32.612.425.242.104.512.156.813.156.3 0 .57-.052.812-.156.242-.104.446-.246.612-.425.167-.18.296-.396.388-.65.092-.254.138-.531.138-.832 0-.3-.046-.577-.138-.83a1.874 1.874 0 0 0-.388-.65c-.166-.18-.37-.322-.612-.426a2.033 2.033 0 0 0-.813-.156c-.3 0-.57.052-.812.156a1.794 1.794 0 0 0-.612.425c-.167.18-.296.396-.388.65a2.433 2.433 0 0 0-.138.831zm-1.2 0c0-.433.08-.837.243-1.212a3.12 3.12 0 0 1 1.669-1.656 3.138 3.138 0 0 1 1.237-.244 3.138 3.138 0 0 1 2.907 1.9c.162.375.244.78.244 1.212 0 .434-.082.84-.244 1.22-.163.378-.386.708-.669.987a3.174 3.174 0 0 1-2.237.906 3.174 3.174 0 0 1-2.237-.906 3.066 3.066 0 0 1-.914-2.207zm7.95-1.987h-1.275v-.975h1.275v-1.325c0-.792.152-1.381.456-1.769.304-.387.827-.581 1.569-.581.125 0 .256.004.393.012.138.009.286.034.444.075l-.125 1a1.61 1.61 0 0 0-.637-.112c-.209 0-.375.031-.5.094a.705.705 0 0 0-.294.269c-.071.116-.117.256-.138.418-.02.163-.031.348-.031.556v1.363h1.338v.975h-1.35V131h-1.126v-4.95zm7.087-3.9h5.712v1.125H80.65v2.637h4.2v1.125h-4.2v2.838h4.737V131H79.45v-8.85zM92.537 131h-1.125v-.85h-.025a2.143 2.143 0 0 1-.893.737 2.76 2.76 0 0 1-1.169.263c-.458 0-.873-.08-1.244-.238a2.749 2.749 0 0 1-.95-.662 2.993 2.993 0 0 1-.606-.988 3.439 3.439 0 0 1-.213-1.225c0-.441.071-.852.213-1.23a2.79 2.79 0 0 1 1.556-1.644c.371-.159.786-.238 1.244-.238.425 0 .825.09 1.2.269.375.179.662.423.862.731h.025v-4.375h1.125V131zm-3.075-.9c.3 0 .571-.052.813-.156.242-.104.446-.246.612-.425.167-.18.296-.396.388-.65.092-.254.137-.531.137-.832 0-.3-.045-.577-.137-.83a1.874 1.874 0 0 0-.388-.65c-.166-.18-.37-.322-.612-.426a2.033 2.033 0 0 0-.813-.156c-.3 0-.57.052-.812.156a1.794 1.794 0 0 0-.613.425c-.166.18-.295.396-.387.65a2.433 2.433 0 0 0-.138.831c0 .3.046.578.138.832.092.254.22.47.387.65.167.179.371.32.613.425.242.104.512.156.813.156zm9.825.9h-1.125v-.912h-.025c-.141.316-.387.572-.737.768-.35.196-.754.294-1.213.294-.291 0-.566-.044-.825-.131a1.856 1.856 0 0 1-.68-.406 1.959 1.959 0 0 1-.47-.707 2.7 2.7 0 0 1-.175-1.019v-3.812h1.125v3.5c0 .275.038.51.113.706.075.196.175.354.3.475s.269.209.431.263c.163.054.331.081.507.081.233 0 .45-.037.65-.112.2-.076.374-.194.525-.357.15-.162.266-.368.35-.619.083-.25.124-.545.124-.887v-3.05h1.125V131zm5.738-4.35a2.361 2.361 0 0 0-.656-.494 1.84 1.84 0 0 0-.819-.169 1.81 1.81 0 0 0-.806.17c-.23.112-.421.266-.575.462a2.08 2.08 0 0 0-.35.675c-.08.254-.119.518-.119.794 0 .275.046.535.138.78.091.247.22.461.387.644.167.184.367.328.6.432.233.104.496.156.787.156a1.8 1.8 0 0 0 .813-.169c.225-.112.433-.277.625-.494l.8.8a2.518 2.518 0 0 1-1.019.7 3.558 3.558 0 0 1-1.231.213c-.458 0-.877-.075-1.256-.225a2.79 2.79 0 0 1-1.619-1.606 3.387 3.387 0 0 1-.225-1.257c0-.458.075-.879.225-1.262.15-.383.36-.712.631-.987.271-.276.596-.49.975-.644a3.34 3.34 0 0 1 1.269-.231c.433 0 .848.077 1.244.23.396.155.74.39 1.031.707l-.85.775zm1.612-.85c.317-.292.684-.51 1.1-.656a3.763 3.763 0 0 1 1.25-.219c.434 0 .807.054 1.12.163.312.108.568.254.768.437.2.183.348.394.444.631.096.238.144.486.144.744v3.025c0 .208.004.4.012.575.008.175.02.342.038.5h-1c-.026-.3-.038-.6-.038-.9h-.025c-.25.383-.546.654-.888.813a2.797 2.797 0 0 1-1.187.237c-.275 0-.537-.037-.787-.113a1.922 1.922 0 0 1-.657-.337 1.611 1.611 0 0 1-.444-.556 1.725 1.725 0 0 1-.162-.769c0-.383.085-.704.256-.963a1.94 1.94 0 0 1 .7-.63c.296-.163.642-.28 1.038-.35.396-.072.818-.107 1.269-.107h.825v-.25a1.234 1.234 0 0 0-.788-1.144 1.662 1.662 0 0 0-.625-.106 2.305 2.305 0 0 0-1.013.219 1.948 1.948 0 0 0-.362.219l-.313.237-.674-.7zm3.175 2.35c-.266 0-.54.015-.818.044a3.2 3.2 0 0 0-.763.169c-.229.083-.416.2-.562.35a.79.79 0 0 0-.219.575c0 .341.115.587.344.737.229.15.54.225.931.225.308 0 .57-.052.788-.156a1.48 1.48 0 0 0 .524-.406c.134-.167.23-.353.288-.557.058-.204.087-.406.087-.606v-.375h-.6zm6.263-2.1h-1.612v2.688c0 .166.004.33.012.493.008.163.04.309.094.438a.71.71 0 0 0 .25.312c.112.08.277.119.493.119.134 0 .271-.012.413-.037.142-.025.27-.071.388-.138v1.025a1.468 1.468 0 0 1-.52.156c-.212.03-.376.044-.493.044-.433 0-.769-.06-1.006-.181a1.236 1.236 0 0 1-.525-.469 1.516 1.516 0 0 1-.2-.644 8.222 8.222 0 0 1-.031-.719v-3.087h-1.3v-.975h1.3v-1.663h1.125v1.663h1.612v.975zm1.337-.975h1.125V131h-1.125v-5.925zm-.262-2.125c0-.225.081-.419.244-.581a.794.794 0 0 1 .581-.244c.225 0 .419.081.581.244a.794.794 0 0 1 .244.581.794.794 0 0 1-.244.581.794.794 0 0 1-.581.244.794.794 0 0 1-.581-.244.794.794 0 0 1-.244-.581zm3.887 5.087c0 .3.046.578.138.832.092.254.22.47.388.65.166.179.37.32.612.425.242.104.512.156.813.156.3 0 .57-.052.812-.156.242-.104.446-.246.612-.425.167-.18.296-.396.388-.65.092-.254.138-.531.138-.832 0-.3-.046-.577-.138-.83a1.874 1.874 0 0 0-.388-.65c-.166-.18-.37-.322-.612-.426a2.033 2.033 0 0 0-.813-.156c-.3 0-.57.052-.812.156a1.794 1.794 0 0 0-.612.425c-.167.18-.296.396-.388.65a2.433 2.433 0 0 0-.138.831zm-1.2 0c0-.433.082-.837.244-1.212a3.12 3.12 0 0 1 1.669-1.656 3.138 3.138 0 0 1 1.237-.244 3.138 3.138 0 0 1 2.907 1.9c.162.375.243.78.243 1.212a3.066 3.066 0 0 1-.913 2.206 3.174 3.174 0 0 1-2.237.907 3.174 3.174 0 0 1-2.237-.906 3.066 3.066 0 0 1-.912-2.207zm7.513-2.962h1.125v.912h.025c.142-.316.387-.572.738-.768.35-.196.754-.294 1.212-.294.283 0 .556.044.819.131.262.088.491.223.687.407.196.183.352.418.469.706a2.7 2.7 0 0 1 .175 1.019V131h-1.125v-3.5c0-.275-.037-.51-.112-.706a1.29 1.29 0 0 0-.3-.475 1.126 1.126 0 0 0-.432-.263 1.59 1.59 0 0 0-.506-.081c-.233 0-.45.038-.65.113-.2.075-.375.193-.525.356-.15.162-.267.368-.35.618-.083.25-.125.546-.125.888V131h-1.125v-5.925zM145.425 131h-1.613l-1.087-1.175c-.375.45-.773.796-1.194 1.038-.42.241-.927.362-1.519.362-.5 0-.933-.073-1.3-.219a2.593 2.593 0 0 1-.906-.581 2.295 2.295 0 0 1-.525-.819 2.7 2.7 0 0 1-.168-.944c0-.308.054-.59.162-.843.108-.254.254-.486.438-.694.183-.208.397-.396.643-.563.246-.166.502-.312.769-.437a6.408 6.408 0 0 1-.731-.925c-.204-.317-.306-.692-.306-1.125 0-.333.064-.63.193-.888.13-.258.302-.474.519-.65.217-.175.467-.308.75-.4.283-.091.583-.137.9-.137.308 0 .602.042.881.125.28.083.523.208.732.375.208.167.372.375.493.625s.181.542.181.875c0 .275-.054.527-.162.756-.108.23-.25.438-.425.625-.175.188-.37.354-.588.5a6.755 6.755 0 0 1-.662.394l1.75 1.825 1.112-1.813h1.363l-1.713 2.65 2.013 2.063zm-3.888-7c0-.292-.1-.523-.3-.694-.2-.17-.458-.256-.774-.256-.317 0-.592.09-.826.269-.233.179-.35.435-.35.769 0 .15.028.291.082.425.054.133.125.262.212.387.088.125.181.242.282.35.1.108.2.212.3.313.15-.084.306-.175.468-.276.163-.1.31-.212.444-.337.133-.125.244-.265.331-.419.088-.154.131-.331.131-.531zm-1.662 2.825c-.175.1-.352.208-.531.325-.18.117-.34.246-.481.387a1.782 1.782 0 0 0-.344.482c-.088.179-.132.381-.132.606 0 .217.046.419.138.606a1.6 1.6 0 0 0 .375.494c.158.142.335.252.531.331.196.08.402.119.619.119.217 0 .419-.033.606-.1.188-.067.363-.152.525-.256.163-.104.313-.223.45-.356.138-.134.265-.271.381-.413l-2.137-2.225zm10.15 2.325c.217.325.494.565.831.719.338.154.686.231 1.044.231.2 0 .404-.031.612-.094a1.86 1.86 0 0 0 .57-.281c.17-.125.31-.28.418-.463a1.23 1.23 0 0 0 .162-.637c0-.342-.108-.602-.325-.781a2.806 2.806 0 0 0-.806-.45c-.32-.121-.67-.238-1.05-.35a4.27 4.27 0 0 1-1.05-.469c-.32-.2-.59-.469-.806-.806-.217-.338-.325-.794-.325-1.369 0-.258.056-.533.169-.825.112-.292.29-.558.531-.8.242-.242.552-.444.931-.606.38-.163.836-.244 1.369-.244.483 0 .946.067 1.387.2.442.133.83.404 1.163.813l-.975.887a1.618 1.618 0 0 0-.637-.563 2.018 2.018 0 0 0-.938-.212c-.333 0-.61.044-.831.131-.221.088-.398.2-.531.338a1.192 1.192 0 0 0-.282.444 1.36 1.36 0 0 0-.081.437c0 .375.108.662.325.862.217.2.485.363.806.488.321.125.671.237 1.05.338.38.1.73.24 1.05.418.321.18.59.421.806.725.217.304.326.723.326 1.257 0 .425-.082.808-.244 1.15-.163.341-.381.629-.656.862-.276.233-.6.412-.976.537a3.77 3.77 0 0 1-1.2.188c-.566 0-1.104-.1-1.612-.3a2.651 2.651 0 0 1-1.213-.925l.988-.85zm7.112-1.113c0 .3.046.578.138.832.092.254.22.47.387.65.167.179.371.32.613.425.242.104.512.156.813.156.3 0 .57-.052.812-.156.242-.104.446-.246.612-.425.167-.18.296-.396.388-.65.092-.254.137-.531.137-.832 0-.3-.045-.577-.137-.83a1.874 1.874 0 0 0-.388-.65c-.166-.18-.37-.322-.612-.426a2.033 2.033 0 0 0-.813-.156c-.3 0-.57.052-.812.156a1.794 1.794 0 0 0-.613.425c-.166.18-.295.396-.387.65a2.433 2.433 0 0 0-.138.831zm-1.2 0c0-.433.082-.837.244-1.212a3.12 3.12 0 0 1 1.669-1.656 3.138 3.138 0 0 1 1.238-.244 3.138 3.138 0 0 1 2.906 1.9c.162.375.244.78.244 1.212 0 .434-.082.84-.244 1.22-.163.378-.386.708-.669.987a3.174 3.174 0 0 1-2.237.906 3.174 3.174 0 0 1-2.238-.906 3.066 3.066 0 0 1-.912-2.207zm11.75-1.387a2.361 2.361 0 0 0-.656-.494 1.84 1.84 0 0 0-.819-.169 1.81 1.81 0 0 0-.806.17c-.229.112-.42.266-.575.462a2.08 2.08 0 0 0-.35.675c-.079.254-.118.518-.118.794 0 .275.045.535.137.78.092.247.22.461.387.644.167.184.367.328.6.432.234.104.496.156.788.156a1.8 1.8 0 0 0 .813-.169c.225-.112.433-.277.625-.494l.8.8a2.518 2.518 0 0 1-1.02.7 3.558 3.558 0 0 1-1.23.213c-.459 0-.878-.075-1.257-.225a2.79 2.79 0 0 1-1.619-1.606 3.387 3.387 0 0 1-.225-1.257c0-.458.075-.879.225-1.262.15-.383.36-.712.632-.987.27-.276.596-.49.975-.644a3.34 3.34 0 0 1 1.268-.231c.434 0 .848.077 1.244.23.396.155.74.39 1.031.707l-.85.775zm1.675-1.575h1.126V131h-1.125v-5.925zm-.262-2.125c0-.225.081-.419.244-.581a.794.794 0 0 1 .581-.244c.225 0 .419.081.581.244a.794.794 0 0 1 .244.581.794.794 0 0 1-.244.581.794.794 0 0 1-.581.244.794.794 0 0 1-.581-.244.794.794 0 0 1-.244-.581zm3 2.85c.317-.292.683-.51 1.1-.656a3.763 3.763 0 0 1 1.25-.219c.433 0 .806.054 1.119.163.312.108.568.254.769.437.2.183.347.394.443.631.096.238.144.486.144.744v3.025c0 .208.004.4.012.575.009.175.021.342.038.5h-1c-.025-.3-.037-.6-.037-.9h-.025c-.25.383-.546.654-.888.813a2.797 2.797 0 0 1-1.188.237c-.275 0-.537-.037-.787-.113a1.922 1.922 0 0 1-.656-.337 1.611 1.611 0 0 1-.444-.556 1.725 1.725 0 0 1-.162-.769c0-.383.085-.704.256-.963a1.94 1.94 0 0 1 .7-.63c.296-.163.641-.28 1.037-.35.396-.072.819-.107 1.269-.107h.825v-.25a1.234 1.234 0 0 0-.787-1.144 1.662 1.662 0 0 0-.625-.106 2.305 2.305 0 0 0-1.013.219 1.948 1.948 0 0 0-.362.219l-.313.237-.675-.7zm3.175 2.35c-.267 0-.54.015-.819.044a3.2 3.2 0 0 0-.762.169c-.23.083-.417.2-.563.35a.79.79 0 0 0-.219.575c0 .341.115.587.344.737.23.15.54.225.931.225.309 0 .571-.052.788-.156a1.48 1.48 0 0 0 .525-.406c.133-.167.23-.353.287-.557.059-.204.088-.406.088-.606v-.375h-.6zm3.175-6.6h1.125V131h-1.125v-9.45zm6.275.6h3.113c.566 0 1.033.077 1.4.231.366.154.656.35.868.588.213.237.36.504.444.8.083.296.125.581.125.856s-.042.56-.125.856a2.001 2.001 0 0 1-.444.8c-.212.238-.502.434-.868.588-.367.154-.834.231-1.4.231h-1.913v3.9h-1.2v-8.85zm1.2 3.9h1.575c.233 0 .465-.019.694-.056.229-.038.433-.106.612-.207.18-.1.323-.243.431-.43.109-.188.163-.432.163-.732s-.054-.544-.162-.731a1.128 1.128 0 0 0-.432-.431c-.179-.1-.383-.17-.612-.207a4.289 4.289 0 0 0-.694-.056h-1.575v2.85zm6.637 1.987c0 .3.046.578.138.832.092.254.22.47.388.65.166.179.37.32.612.425.242.104.512.156.813.156.3 0 .57-.052.812-.156.242-.104.446-.246.613-.425.166-.18.295-.396.387-.65.092-.254.138-.531.138-.832 0-.3-.046-.577-.138-.83a1.874 1.874 0 0 0-.387-.65c-.167-.18-.371-.322-.613-.426a2.033 2.033 0 0 0-.813-.156c-.3 0-.57.052-.812.156a1.794 1.794 0 0 0-.612.425c-.167.18-.296.396-.388.65a2.433 2.433 0 0 0-.137.831zm-1.2 0c0-.433.082-.837.244-1.212a3.12 3.12 0 0 1 1.669-1.656 3.138 3.138 0 0 1 1.237-.244 3.138 3.138 0 0 1 2.907 1.9c.162.375.243.78.243 1.212a3.066 3.066 0 0 1-.912 2.206 3.174 3.174 0 0 1-2.238.907 3.174 3.174 0 0 1-2.237-.906 3.066 3.066 0 0 1-.912-2.207zm7.6-6.487h1.126V131h-1.125v-9.45zm2.8 3.525h1.125V131h-1.125v-5.925zm-.262-2.125c0-.225.081-.419.244-.581a.794.794 0 0 1 .581-.244c.225 0 .419.081.581.244a.794.794 0 0 1 .244.581.794.794 0 0 1-.244.581.794.794 0 0 1-.581.244.794.794 0 0 1-.581-.244.794.794 0 0 1-.244-.581zm7.213 3.7a2.361 2.361 0 0 0-.657-.494 1.84 1.84 0 0 0-.819-.169 1.81 1.81 0 0 0-.806.17c-.229.112-.42.266-.575.462a2.08 2.08 0 0 0-.35.675c-.079.254-.119.518-.119.794 0 .275.046.535.138.78.092.247.22.461.387.644.167.184.367.328.6.432.234.104.496.156.788.156a1.8 1.8 0 0 0 .813-.169c.225-.112.433-.277.625-.494l.8.8a2.518 2.518 0 0 1-1.02.7 3.558 3.558 0 0 1-1.23.213c-.459 0-.878-.075-1.257-.225a2.79 2.79 0 0 1-1.619-1.606 3.387 3.387 0 0 1-.225-1.257c0-.458.075-.879.225-1.262.15-.383.36-.712.632-.987.27-.276.596-.49.975-.644a3.34 3.34 0 0 1 1.268-.231c.434 0 .848.077 1.244.23.396.155.74.39 1.031.707l-.85.775zm.875-1.575h1.3l1.762 4.625h.025l1.675-4.625h1.213l-2.813 7.2c-.1.258-.204.494-.313.706a2.128 2.128 0 0 1-.387.544c-.15.15-.331.267-.544.35a2.147 2.147 0 0 1-.781.125 4.18 4.18 0 0 1-.506-.031 1.84 1.84 0 0 1-.494-.131l.138-1.025c.225.091.45.137.674.137.176 0 .323-.023.444-.069a.875.875 0 0 0 .313-.2c.087-.087.16-.19.218-.306.059-.117.117-.25.175-.4l.363-.938-2.463-5.962z" fill="#5C2D91"/></g></svg>