<?xml version="1.0" encoding="UTF-8" standalone="no"?>
<svg width="238px" height="134px" viewBox="0 0 238 134" version="1.1" xmlns="http://www.w3.org/2000/svg" xmlns:xlink="http://www.w3.org/1999/xlink">
    <!-- Generator: Sketch 39.1 (31720) - http://www.bohemiancoding.com/sketch -->
    <title>logo-ctd</title>
    <desc>Created with Sketch.</desc>
    <defs></defs>
    <g id="logo-ctd" stroke="none" stroke-width="1" fill="none" fill-rule="evenodd">
        <g id="logo-ctd-flat" transform="translate(-131.000000, -179.000000)">
            <g id="logo-ctd" transform="translate(131.000000, 179.000000)">
                <g id="symbol" transform="translate(77.000000, 0.000000)">
                    <path d="M86,0 L66.4998779,0 C53.5237675,0 43,10.5213084 43,23.5 C43,36.4815453 53.5212537,47 66.4998779,47 L86,47 L86,34 L66.0088711,34 C60.4811242,34 56,29.5240618 56,24 C56,18.4771525 60.485214,14 66.0088711,14 L86,14 L86,-2.22044605e-16 Z" id="D" fill="#A6CE39" transform="translate(64.500000, 23.500000) scale(-1, 1) translate(-64.500000, -23.500000) "></path>
                    <path d="M43,0 L23.4998779,0 C10.5237675,0 0,10.5213084 0,23.5 C0,36.4815453 10.5212537,47 23.4998779,47 L43,47 L43,34 L23.0088711,34 C17.4811242,34 13,29.5240618 13,24 C13,18.4771525 17.485214,14 23.0088711,14 L43,14 L43,-2.22044605e-16 Z" id="C" fill="#5C2D91"></path>
                    <rect id="T" fill="#FADD03" transform="translate(34.000000, 7.000000) rotate(90.000000) translate(-34.000000, -7.000000) " x="27" y="-10" width="14" height="34" rx="7"></rect>
                    <path d="M50,0 L44,0 C40.1418733,0 37,3.13324519 37,6.99829902 L37,40.001701 C37,43.8615314 40.1340068,47 44,47 C47.8581267,47 51,43.8667548 51,40.001701 L51,14 L64.0088344,14 C67.8713003,14 71,10.8659932 71,7 C71,3.14187327 67.8699485,1.77436268e-15 64.0088344,1.54911876e-15 L50,7.31892249e-16 Z" id="T" fill="#EE4D9B"></path>
                </g>
                <path d="M9.46375,79.9215 C9.02824782,79.4524977 8.60671037,79.1398341 8.199125,78.9835 C7.79153963,78.8271659 7.38116873,78.749 6.968,78.749 C6.35383026,78.749 5.79829415,78.8578739 5.301375,79.075625 C4.80445585,79.2933761 4.37733512,79.5948731 4.02,79.980125 C3.66266488,80.3653769 3.38629264,80.8148308 3.190875,81.3285 C2.99545736,81.8421692 2.89775,82.3949137 2.89775,82.98675 C2.89775,83.6232532 2.99545736,84.2094973 3.190875,84.7455 C3.38629264,85.2815027 3.66266488,85.7449147 4.02,86.13575 C4.37733512,86.5265853 4.80445585,86.8336655 5.301375,87.057 C5.79829415,87.2803344 6.35383026,87.392 6.968,87.392 C7.44816907,87.392 7.91437274,87.2775428 8.366625,87.048625 C8.81887726,86.8197072 9.24041471,86.4540025 9.63125,85.9515 L11.37325,87.191 C10.8372473,87.9280037 10.1840039,88.4639983 9.4135,88.799 C8.64299615,89.1340017 7.82225435,89.3015 6.95125,89.3015 C6.03557875,89.3015 5.19529549,89.1535431 4.430375,88.857625 C3.66545451,88.5617069 3.00662776,88.142961 2.453875,87.601375 C1.90112224,87.059789 1.46841823,86.4093371 1.15575,85.65 C0.84308177,84.8906629 0.68675,84.047588 0.68675,83.12075 C0.68675,82.1715786 0.84308177,81.3089622 1.15575,80.532875 C1.46841823,79.7567878 1.90112224,79.0951694 2.453875,78.548 C3.00662776,78.0008306 3.66545451,77.5792931 4.430375,77.283375 C5.19529549,76.9874569 6.03557875,76.8395 6.95125,76.8395 C7.75525402,76.8395 8.50062157,76.9818736 9.187375,77.266625 C9.87412843,77.5513764 10.5134137,78.0343299 11.10525,78.7155 L9.46375,79.9215 Z M14.02075,85.6835 C14.0877503,86.286503 14.322248,86.7554983 14.72425,87.0905 C15.126252,87.4255017 15.6119971,87.593 16.1815,87.593 C16.6840025,87.593 17.10554,87.4897094 17.446125,87.283125 C17.78671,87.0765406 18.0854154,86.8169182 18.34225,86.50425 L19.78275,87.593 C19.3137477,88.1736696 18.7889196,88.5868321 18.20825,88.8325 C17.6275804,89.0781679 17.0190032,89.201 16.3825,89.201 C15.779497,89.201 15.2100027,89.100501 14.674,88.8995 C14.1379973,88.698499 13.6745853,88.4137518 13.28375,88.04525 C12.8929147,87.6767482 12.5830428,87.2328776 12.354125,86.713625 C12.1252072,86.1943724 12.01075,85.6165032 12.01075,84.98 C12.01075,84.3434968 12.1252072,83.7656276 12.354125,83.246375 C12.5830428,82.7271224 12.8929147,82.2832518 13.28375,81.91475 C13.6745853,81.5462482 14.1379973,81.261501 14.674,81.0605 C15.2100027,80.859499 15.779497,80.759 16.3825,80.759 C16.9408361,80.759 17.451706,80.8567074 17.915125,81.052125 C18.378544,81.2475426 18.7749567,81.5294982 19.104375,81.898 C19.4337933,82.2665018 19.6906241,82.721539 19.874875,83.263125 C20.0591259,83.804711 20.15125,84.4272465 20.15125,85.13075 L20.15125,85.6835 L14.02075,85.6835 Z M18.14125,84.176 C18.1300833,83.5841637 17.9458351,83.11796 17.5885,82.777375 C17.2311649,82.43679 16.7342532,82.2665 16.09775,82.2665 C15.494747,82.2665 15.0173768,82.4395816 14.665625,82.78575 C14.3138732,83.1319184 14.0989171,83.5953304 14.02075,84.176 L18.14125,84.176 Z M21.82725,80.96 L23.73675,80.96 L23.73675,82.24975 L23.77025,82.24975 C23.9600843,81.847748 24.2504147,81.4987931 24.64125,81.202875 C25.0320853,80.9069569 25.5624966,80.759 26.2325,80.759 C26.7685027,80.759 27.2235398,80.8483324 27.597625,81.027 C27.9717102,81.2056676 28.2759988,81.4401652 28.5105,81.7305 C28.7450012,82.0208348 28.9124995,82.3558314 29.013,82.7355 C29.1135005,83.1151686 29.16375,83.5115813 29.16375,83.92475 L29.16375,89 L27.15375,89 L27.15375,84.92975 C27.15375,84.7064155 27.1425834,84.4579597 27.12025,84.184375 C27.0979165,83.9107903 27.0392921,83.6539595 26.944375,83.413875 C26.8494579,83.1737905 26.701501,82.9727925 26.5005,82.810875 C26.299499,82.6489575 26.0259184,82.568 25.67975,82.568 C25.3447483,82.568 25.0627928,82.6238328 24.833875,82.7355 C24.6049572,82.8471672 24.4151257,82.9979157 24.264375,83.18775 C24.1136242,83.3775843 24.0047503,83.5953321 23.93775,83.841 C23.8707497,84.0866679 23.83725,84.3434987 23.83725,84.6115 L23.83725,89 L21.82725,89 L21.82725,80.96 Z M30.30375,82.6685 L30.30375,80.96 L31.962,80.96 L31.962,78.63175 L33.972,78.63175 L33.972,80.96 L36.183,80.96 L36.183,82.6685 L33.972,82.6685 L33.972,86.186 C33.972,86.588002 34.0473742,86.9062488 34.198125,87.14075 C34.3488757,87.3752512 34.6475811,87.4925 35.09425,87.4925 C35.2729176,87.4925 35.4683323,87.4729585 35.6805,87.433875 C35.8926677,87.3947915 36.060166,87.3305838 36.183,87.24125 L36.183,88.933 C35.9708323,89.0335005 35.7112099,89.1032915 35.404125,89.142375 C35.0970401,89.1814585 34.8262512,89.201 34.59175,89.201 C34.0557473,89.201 33.61746,89.1423756 33.276875,89.025125 C32.93629,88.9078744 32.6682926,88.7292095 32.472875,88.489125 C32.2774573,88.2490405 32.1434587,87.9503351 32.070875,87.593 C31.9982913,87.2356649 31.962,86.8225023 31.962,86.3535 L31.962,82.6685 L30.30375,82.6685 Z M39.1655,85.6835 C39.2325003,86.286503 39.466998,86.7554983 39.869,87.0905 C40.271002,87.4255017 40.7567471,87.593 41.32625,87.593 C41.8287525,87.593 42.25029,87.4897094 42.590875,87.283125 C42.93146,87.0765406 43.2301654,86.8169182 43.487,86.50425 L44.9275,87.593 C44.4584976,88.1736696 43.9336696,88.5868321 43.353,88.8325 C42.7723304,89.0781679 42.1637532,89.201 41.52725,89.201 C40.924247,89.201 40.3547527,89.100501 39.81875,88.8995 C39.2827473,88.698499 38.8193353,88.4137518 38.4285,88.04525 C38.0376647,87.6767482 37.7277928,87.2328776 37.498875,86.713625 C37.2699572,86.1943724 37.1555,85.6165032 37.1555,84.98 C37.1555,84.3434968 37.2699572,83.7656276 37.498875,83.246375 C37.7277928,82.7271224 38.0376647,82.2832518 38.4285,81.91475 C38.8193353,81.5462482 39.2827473,81.261501 39.81875,81.0605 C40.3547527,80.859499 40.924247,80.759 41.52725,80.759 C42.0855861,80.759 42.596456,80.8567074 43.059875,81.052125 C43.523294,81.2475426 43.9197067,81.5294982 44.249125,81.898 C44.5785433,82.2665018 44.8353741,82.721539 45.019625,83.263125 C45.2038759,83.804711 45.296,84.4272465 45.296,85.13075 L45.296,85.6835 L39.1655,85.6835 Z M43.286,84.176 C43.2748333,83.5841637 43.0905851,83.11796 42.73325,82.777375 C42.3759149,82.43679 41.8790032,82.2665 41.2425,82.2665 C40.639497,82.2665 40.1621267,82.4395816 39.810375,82.78575 C39.4586232,83.1319184 39.243667,83.5953304 39.1655,84.176 L43.286,84.176 Z M46.972,80.96 L48.982,80.96 L48.982,82.233 L49.0155,82.233 C49.2388344,81.7639977 49.5570813,81.4010846 49.97025,81.14425 C50.3834187,80.8874154 50.8579973,80.759 51.394,80.759 C51.5168339,80.759 51.6368744,80.7701666 51.754125,80.7925 C51.8713756,80.8148334 51.991416,80.8427498 52.11425,80.87625 L52.11425,82.81925 C51.9467491,82.7745831 51.7820425,82.7382918 51.620125,82.710375 C51.4582075,82.6824582 51.2990841,82.6685 51.14275,82.6685 C50.6737476,82.6685 50.2968764,82.7550408 50.012125,82.928125 C49.7273736,83.1012092 49.5096257,83.2994155 49.358875,83.52275 C49.2081242,83.7460845 49.1076252,83.9694156 49.057375,84.19275 C49.0071247,84.4160844 48.982,84.5835828 48.982,84.69525 L48.982,89 L46.972,89 L46.972,80.96 Z M58.766,82.6685 L57.10775,82.6685 L57.10775,80.96 L58.766,80.96 L58.766,79.821 C58.766,79.2626639 58.8050829,78.7573773 58.88325,78.305125 C58.961417,77.8528727 59.1093739,77.464835 59.327125,77.141 C59.5448761,76.817165 59.8491647,76.5687092 60.24,76.395625 C60.6308353,76.2225408 61.1389135,76.136 61.76425,76.136 C62.2220856,76.136 62.6464147,76.1750829 63.03725,76.25325 L62.90325,77.96175 C62.7580826,77.9282498 62.6185006,77.9003334 62.4845,77.878 C62.3504993,77.8556666 62.2109174,77.8445 62.06575,77.8445 C61.7865819,77.8445 61.5632508,77.8891662 61.39575,77.9785 C61.2282491,78.0678338 61.0970421,78.1878742 61.002125,78.338625 C60.9072078,78.4893758 60.8457918,78.665249 60.817875,78.86625 C60.7899582,79.067251 60.776,79.2794156 60.776,79.50275 L60.776,80.96 L62.63525,80.96 L62.63525,82.6685 L60.776,82.6685 L60.776,89 L58.766,89 L58.766,82.6685 Z M63.33975,84.98 C63.33975,84.3434968 63.4542072,83.7656276 63.683125,83.246375 C63.9120428,82.7271224 64.2219147,82.2832518 64.61275,81.91475 C65.0035853,81.5462482 65.4669973,81.261501 66.003,81.0605 C66.5390027,80.859499 67.108497,80.759 67.7115,80.759 C68.314503,80.759 68.8839973,80.859499 69.42,81.0605 C69.9560027,81.261501 70.4194147,81.5462482 70.81025,81.91475 C71.2010853,82.2832518 71.5109572,82.7271224 71.739875,83.246375 C71.9687928,83.7656276 72.08325,84.3434968 72.08325,84.98 C72.08325,85.6165032 71.9687928,86.1943724 71.739875,86.713625 C71.5109572,87.2328776 71.2010853,87.6767482 70.81025,88.04525 C70.4194147,88.4137518 69.9560027,88.698499 69.42,88.8995 C68.8839973,89.100501 68.314503,89.201 67.7115,89.201 C67.108497,89.201 66.5390027,89.100501 66.003,88.8995 C65.4669973,88.698499 65.0035853,88.4137518 64.61275,88.04525 C64.2219147,87.6767482 63.9120428,87.2328776 63.683125,86.713625 C63.4542072,86.1943724 63.33975,85.6165032 63.33975,84.98 L63.33975,84.98 Z M65.34975,84.98 C65.34975,85.2926682 65.4027911,85.5941652 65.508875,85.8845 C65.6149588,86.1748348 65.7712906,86.4316655 65.977875,86.655 C66.1844593,86.8783345 66.4329152,87.0569993 66.72325,87.191 C67.0135848,87.3250007 67.3429981,87.392 67.7115,87.392 C68.0800018,87.392 68.4094152,87.3250007 68.69975,87.191 C68.9900848,87.0569993 69.2385406,86.8783345 69.445125,86.655 C69.6517093,86.4316655 69.8080411,86.1748348 69.914125,85.8845 C70.0202088,85.5941652 70.07325,85.2926682 70.07325,84.98 C70.07325,84.6673318 70.0202088,84.3658348 69.914125,84.0755 C69.8080411,83.7851652 69.6517093,83.5283344 69.445125,83.305 C69.2385406,83.0816656 68.9900848,82.9030007 68.69975,82.769 C68.4094152,82.6349993 68.0800018,82.568 67.7115,82.568 C67.3429981,82.568 67.0135848,82.6349993 66.72325,82.769 C66.4329152,82.9030007 66.1844593,83.0816656 65.977875,83.305 C65.7712906,83.5283344 65.6149588,83.7851652 65.508875,84.0755 C65.4027911,84.3658348 65.34975,84.6673318 65.34975,84.98 L65.34975,84.98 Z M73.75925,80.96 L75.76925,80.96 L75.76925,82.233 L75.80275,82.233 C76.0260844,81.7639977 76.3443312,81.4010846 76.7575,81.14425 C77.1706687,80.8874154 77.6452473,80.759 78.18125,80.759 C78.3040839,80.759 78.4241244,80.7701666 78.541375,80.7925 C78.6586256,80.8148334 78.778666,80.8427498 78.9015,80.87625 L78.9015,82.81925 C78.7339991,82.7745831 78.5692924,82.7382918 78.407375,82.710375 C78.2454575,82.6824582 78.0863341,82.6685 77.93,82.6685 C77.4609976,82.6685 77.0841264,82.7550408 76.799375,82.928125 C76.5146235,83.1012092 76.2968757,83.2994155 76.146125,83.52275 C75.9953742,83.7460845 75.8948752,83.9694156 75.844625,84.19275 C75.7943747,84.4160844 75.76925,84.5835828 75.76925,84.69525 L75.76925,89 L73.75925,89 L73.75925,80.96 Z M87.446,79.0505 L83.81125,79.0505 L83.81125,77.141 L93.19125,77.141 L93.19125,79.0505 L89.5565,79.0505 L89.5565,89 L87.446,89 L87.446,79.0505 Z M97.5975,87.8945 L97.54725,87.8945 C97.2569152,88.3523356 96.8884189,88.6845406 96.44175,88.891125 C95.9950811,89.0977094 95.5037526,89.201 94.96775,89.201 C94.5992481,89.201 94.2391267,89.1507505 93.887375,89.05025 C93.5356232,88.9497495 93.2229597,88.799001 92.949375,88.598 C92.6757903,88.396999 92.4552508,88.1457515 92.28775,87.84425 C92.1202491,87.5427485 92.0365,87.191002 92.0365,86.789 C92.0365,86.3534978 92.1146658,85.9822099 92.271,85.675125 C92.4273341,85.3680401 92.636707,85.1112094 92.899125,84.904625 C93.1615429,84.6980406 93.4658316,84.5333339 93.812,84.4105 C94.1581684,84.2876661 94.5182898,84.195542 94.892375,84.134125 C95.2664602,84.072708 95.6433314,84.0336251 96.023,84.016875 C96.4026685,84.0001249 96.7599983,83.99175 97.095,83.99175 L97.5975,83.99175 L97.5975,83.774 C97.5975,83.2714975 97.4244184,82.8946263 97.07825,82.643375 C96.7320816,82.3921237 96.2910026,82.2665 95.755,82.2665 C95.3306645,82.2665 94.9342518,82.3418742 94.56575,82.492625 C94.1972481,82.6433758 93.8790013,82.8471654 93.611,83.104 L92.55575,82.04875 C93.0024189,81.5909144 93.5244553,81.261501 94.121875,81.0605 C94.7192946,80.859499 95.3362468,80.759 95.97275,80.759 C96.5422528,80.759 97.0224147,80.8232077 97.41325,80.951625 C97.8040853,81.0800423 98.1279153,81.244749 98.38475,81.44575 C98.6415846,81.646751 98.8397909,81.878457 98.979375,82.140875 C99.118959,82.403293 99.219458,82.6684987 99.280875,82.9365 C99.3422919,83.2045013 99.3785832,83.4641237 99.38975,83.715375 C99.4009167,83.9666263 99.4065,84.1871657 99.4065,84.377 L99.4065,89 L97.5975,89 L97.5975,87.8945 Z M97.48025,85.39875 L97.0615,85.39875 C96.7823319,85.39875 96.4696684,85.4099166 96.1235,85.43225 C95.7773316,85.4545834 95.4507098,85.5076246 95.143625,85.591375 C94.8365401,85.6751254 94.5769177,85.7979575 94.36475,85.959875 C94.1525822,86.1217925 94.0465,86.3479152 94.0465,86.63825 C94.0465,86.8280843 94.0883745,86.9872077 94.172125,87.115625 C94.2558754,87.2440423 94.3647493,87.3529162 94.49875,87.44225 C94.6327506,87.5315838 94.7834991,87.5957915 94.951,87.634875 C95.1185008,87.6739585 95.2859991,87.6935 95.4535,87.6935 C96.1458368,87.6935 96.6567067,87.5287933 96.986125,87.199375 C97.3155433,86.8699567 97.48025,86.4205028 97.48025,85.851 L97.48025,85.39875 Z M101.40075,76.337 L103.41075,76.337 L103.41075,89 L101.40075,89 L101.40075,76.337 Z M107.13025,85.6835 C107.19725,86.286503 107.431748,86.7554983 107.83375,87.0905 C108.235752,87.4255017 108.721497,87.593 109.291,87.593 C109.793502,87.593 110.21504,87.4897094 110.555625,87.283125 C110.89621,87.0765406 111.194915,86.8169182 111.45175,86.50425 L112.89225,87.593 C112.423248,88.1736696 111.89842,88.5868321 111.31775,88.8325 C110.73708,89.0781679 110.128503,89.201 109.492,89.201 C108.888997,89.201 108.319503,89.100501 107.7835,88.8995 C107.247497,88.698499 106.784085,88.4137518 106.39325,88.04525 C106.002415,87.6767482 105.692543,87.2328776 105.463625,86.713625 C105.234707,86.1943724 105.12025,85.6165032 105.12025,84.98 C105.12025,84.3434968 105.234707,83.7656276 105.463625,83.246375 C105.692543,82.7271224 106.002415,82.2832518 106.39325,81.91475 C106.784085,81.5462482 107.247497,81.261501 107.7835,81.0605 C108.319503,80.859499 108.888997,80.759 109.492,80.759 C110.050336,80.759 110.561206,80.8567074 111.024625,81.052125 C111.488044,81.2475426 111.884457,81.5294982 112.213875,81.898 C112.543293,82.2665018 112.800124,82.721539 112.984375,83.263125 C113.168626,83.804711 113.26075,84.4272465 113.26075,85.13075 L113.26075,85.6835 L107.13025,85.6835 Z M111.25075,84.176 C111.239583,83.5841637 111.055335,83.11796 110.698,82.777375 C110.340665,82.43679 109.843753,82.2665 109.20725,82.2665 C108.604247,82.2665 108.126877,82.4395816 107.775125,82.78575 C107.423373,83.1319184 107.208417,83.5953304 107.13025,84.176 L111.25075,84.176 Z M114.93675,80.96 L116.84625,80.96 L116.84625,82.24975 L116.87975,82.24975 C117.069584,81.847748 117.359915,81.4987931 117.75075,81.202875 C118.141585,80.9069569 118.671997,80.759 119.342,80.759 C119.878003,80.759 120.33304,80.8483324 120.707125,81.027 C121.08121,81.2056676 121.385499,81.4401652 121.62,81.7305 C121.854501,82.0208348 122.021999,82.3558314 122.1225,82.7355 C122.223,83.1151686 122.27325,83.5115813 122.27325,83.92475 L122.27325,89 L120.26325,89 L120.26325,84.92975 C120.26325,84.7064155 120.252083,84.4579597 120.22975,84.184375 C120.207417,83.9107903 120.148792,83.6539595 120.053875,83.413875 C119.958958,83.1737905 119.811001,82.9727925 119.61,82.810875 C119.408999,82.6489575 119.135418,82.568 118.78925,82.568 C118.454248,82.568 118.172293,82.6238328 117.943375,82.7355 C117.714457,82.8471672 117.524626,82.9979157 117.373875,83.18775 C117.223124,83.3775843 117.11425,83.5953321 117.04725,83.841 C116.98025,84.0866679 116.94675,84.3434987 116.94675,84.6115 L116.94675,89 L114.93675,89 L114.93675,80.96 Z M123.41325,82.6685 L123.41325,80.96 L125.0715,80.96 L125.0715,78.63175 L127.0815,78.63175 L127.0815,80.96 L129.2925,80.96 L129.2925,82.6685 L127.0815,82.6685 L127.0815,86.186 C127.0815,86.588002 127.156874,86.9062488 127.307625,87.14075 C127.458376,87.3752512 127.757081,87.4925 128.20375,87.4925 C128.382418,87.4925 128.577832,87.4729585 128.79,87.433875 C129.002168,87.3947915 129.169666,87.3305838 129.2925,87.24125 L129.2925,88.933 C129.080332,89.0335005 128.82071,89.1032915 128.513625,89.142375 C128.20654,89.1814585 127.935751,89.201 127.70125,89.201 C127.165247,89.201 126.72696,89.1423756 126.386375,89.025125 C126.04579,88.9078744 125.777793,88.7292095 125.582375,88.489125 C125.386957,88.2490405 125.252959,87.9503351 125.180375,87.593 C125.107791,87.2356649 125.0715,86.8225023 125.0715,86.3535 L125.0715,82.6685 L123.41325,82.6685 Z M135.60925,77.141 L140.2825,77.141 C141.064171,77.141 141.817913,77.2610405 142.54375,77.501125 C143.269587,77.7412095 143.911664,78.1069142 144.47,78.59825 C145.028336,79.0895858 145.474998,79.706538 145.81,80.449125 C146.145002,81.191712 146.3125,82.065495 146.3125,83.0705 C146.3125,84.0866717 146.119877,84.966038 145.734625,85.708625 C145.349373,86.451212 144.852461,87.0653726 144.243875,87.551125 C143.635289,88.0368774 142.959712,88.3997905 142.217125,88.639875 C141.474538,88.8799595 140.74592,89 140.03125,89 L135.60925,89 L135.60925,77.141 Z M139.29425,87.0905 C139.953087,87.0905 140.575622,87.0151258 141.161875,86.864375 C141.748128,86.7136242 142.258998,86.4791266 142.6945,86.160875 C143.130002,85.8426234 143.473374,85.4294609 143.724625,84.921375 C143.975876,84.4132891 144.1015,83.796337 144.1015,83.0705 C144.1015,82.3558298 143.989834,81.7416692 143.7665,81.228 C143.543165,80.7143308 143.233294,80.2983766 142.836875,79.980125 C142.440456,79.6618734 141.971461,79.4273758 141.429875,79.276625 C140.888289,79.1258742 140.29367,79.0505 139.646,79.0505 L137.71975,79.0505 L137.71975,87.0905 L139.29425,87.0905 Z M149.54625,85.6835 C149.61325,86.286503 149.847748,86.7554983 150.24975,87.0905 C150.651752,87.4255017 151.137497,87.593 151.707,87.593 C152.209502,87.593 152.63104,87.4897094 152.971625,87.283125 C153.31221,87.0765406 153.610915,86.8169182 153.86775,86.50425 L155.30825,87.593 C154.839248,88.1736696 154.31442,88.5868321 153.73375,88.8325 C153.15308,89.0781679 152.544503,89.201 151.908,89.201 C151.304997,89.201 150.735503,89.100501 150.1995,88.8995 C149.663497,88.698499 149.200085,88.4137518 148.80925,88.04525 C148.418415,87.6767482 148.108543,87.2328776 147.879625,86.713625 C147.650707,86.1943724 147.53625,85.6165032 147.53625,84.98 C147.53625,84.3434968 147.650707,83.7656276 147.879625,83.246375 C148.108543,82.7271224 148.418415,82.2832518 148.80925,81.91475 C149.200085,81.5462482 149.663497,81.261501 150.1995,81.0605 C150.735503,80.859499 151.304997,80.759 151.908,80.759 C152.466336,80.759 152.977206,80.8567074 153.440625,81.052125 C153.904044,81.2475426 154.300457,81.5294982 154.629875,81.898 C154.959293,82.2665018 155.216124,82.721539 155.400375,83.263125 C155.584626,83.804711 155.67675,84.4272465 155.67675,85.13075 L155.67675,85.6835 L149.54625,85.6835 Z M153.66675,84.176 C153.655583,83.5841637 153.471335,83.11796 153.114,82.777375 C152.756665,82.43679 152.259753,82.2665 151.62325,82.2665 C151.020247,82.2665 150.542877,82.4395816 150.191125,82.78575 C149.839373,83.1319184 149.624417,83.5953304 149.54625,84.176 L153.66675,84.176 Z M156.264,80.96 L158.45825,80.96 L160.60225,86.588 L160.63575,86.588 L162.7965,80.96 L164.85675,80.96 L161.691,89 L159.547,89 L156.264,80.96 Z M167.454,85.6835 C167.521,86.286503 167.755498,86.7554983 168.1575,87.0905 C168.559502,87.4255017 169.045247,87.593 169.61475,87.593 C170.117252,87.593 170.53879,87.4897094 170.879375,87.283125 C171.21996,87.0765406 171.518665,86.8169182 171.7755,86.50425 L173.216,87.593 C172.746998,88.1736696 172.22217,88.5868321 171.6415,88.8325 C171.06083,89.0781679 170.452253,89.201 169.81575,89.201 C169.212747,89.201 168.643253,89.100501 168.10725,88.8995 C167.571247,88.698499 167.107835,88.4137518 166.717,88.04525 C166.326165,87.6767482 166.016293,87.2328776 165.787375,86.713625 C165.558457,86.1943724 165.444,85.6165032 165.444,84.98 C165.444,84.3434968 165.558457,83.7656276 165.787375,83.246375 C166.016293,82.7271224 166.326165,82.2832518 166.717,81.91475 C167.107835,81.5462482 167.571247,81.261501 168.10725,81.0605 C168.643253,80.859499 169.212747,80.759 169.81575,80.759 C170.374086,80.759 170.884956,80.8567074 171.348375,81.052125 C171.811794,81.2475426 172.208207,81.5294982 172.537625,81.898 C172.867043,82.2665018 173.123874,82.721539 173.308125,83.263125 C173.492376,83.804711 173.5845,84.4272465 173.5845,85.13075 L173.5845,85.6835 L167.454,85.6835 Z M171.5745,84.176 C171.563333,83.5841637 171.379085,83.11796 171.02175,82.777375 C170.664415,82.43679 170.167503,82.2665 169.531,82.2665 C168.927997,82.2665 168.450627,82.4395816 168.098875,82.78575 C167.747123,83.1319184 167.532167,83.5953304 167.454,84.176 L171.5745,84.176 Z M175.294,76.337 L177.304,76.337 L177.304,89 L175.294,89 L175.294,76.337 Z M179.0135,84.98 C179.0135,84.3434968 179.127957,83.7656276 179.356875,83.246375 C179.585793,82.7271224 179.895665,82.2832518 180.2865,81.91475 C180.677335,81.5462482 181.140747,81.261501 181.67675,81.0605 C182.212753,80.859499 182.782247,80.759 183.38525,80.759 C183.988253,80.759 184.557747,80.859499 185.09375,81.0605 C185.629753,81.261501 186.093165,81.5462482 186.484,81.91475 C186.874835,82.2832518 187.184707,82.7271224 187.413625,83.246375 C187.642543,83.7656276 187.757,84.3434968 187.757,84.98 C187.757,85.6165032 187.642543,86.1943724 187.413625,86.713625 C187.184707,87.2328776 186.874835,87.6767482 186.484,88.04525 C186.093165,88.4137518 185.629753,88.698499 185.09375,88.8995 C184.557747,89.100501 183.988253,89.201 183.38525,89.201 C182.782247,89.201 182.212753,89.100501 181.67675,88.8995 C181.140747,88.698499 180.677335,88.4137518 180.2865,88.04525 C179.895665,87.6767482 179.585793,87.2328776 179.356875,86.713625 C179.127957,86.1943724 179.0135,85.6165032 179.0135,84.98 L179.0135,84.98 Z M181.0235,84.98 C181.0235,85.2926682 181.076541,85.5941652 181.182625,85.8845 C181.288709,86.1748348 181.445041,86.4316655 181.651625,86.655 C181.858209,86.8783345 182.106665,87.0569993 182.397,87.191 C182.687335,87.3250007 183.016748,87.392 183.38525,87.392 C183.753752,87.392 184.083165,87.3250007 184.3735,87.191 C184.663835,87.0569993 184.912291,86.8783345 185.118875,86.655 C185.325459,86.4316655 185.481791,86.1748348 185.587875,85.8845 C185.693959,85.5941652 185.747,85.2926682 185.747,84.98 C185.747,84.6673318 185.693959,84.3658348 185.587875,84.0755 C185.481791,83.7851652 185.325459,83.5283344 185.118875,83.305 C184.912291,83.0816656 184.663835,82.9030007 184.3735,82.769 C184.083165,82.6349993 183.753752,82.568 183.38525,82.568 C183.016748,82.568 182.687335,82.6349993 182.397,82.769 C182.106665,82.9030007 181.858209,83.0816656 181.651625,83.305 C181.445041,83.5283344 181.288709,83.7851652 181.182625,84.0755 C181.076541,84.3658348 181.0235,84.6673318 181.0235,84.98 L181.0235,84.98 Z M189.433,80.96 L191.3425,80.96 L191.3425,82.166 L191.376,82.166 C191.666335,81.6746642 192.057164,81.3173344 192.5485,81.094 C193.039836,80.8706656 193.570247,80.759 194.13975,80.759 C194.75392,80.759 195.306664,80.8678739 195.798,81.085625 C196.289336,81.3033761 196.708082,81.6020814 197.05425,81.98175 C197.400418,82.3614186 197.662832,82.8080808 197.8415,83.32175 C198.020167,83.8354192 198.1095,84.3881637 198.1095,84.98 C198.1095,85.5718363 198.014584,86.1245808 197.82475,86.63825 C197.634916,87.1519192 197.36971,87.5985814 197.029125,87.97825 C196.68854,88.3579186 196.278169,88.6566239 195.798,88.874375 C195.317831,89.0921261 194.793003,89.201 194.2235,89.201 C193.843831,89.201 193.508835,89.1619171 193.2185,89.08375 C192.928165,89.0055829 192.671334,88.9050839 192.448,88.78225 C192.224665,88.6594161 192.034834,88.528209 191.8785,88.388625 C191.722166,88.249041 191.59375,88.1122507 191.49325,87.97825 L191.443,87.97825 L191.443,92.819 L189.433,92.819 L189.433,80.96 Z M196.0995,84.98 C196.0995,84.6673318 196.046459,84.3658348 195.940375,84.0755 C195.834291,83.7851652 195.677959,83.5283344 195.471375,83.305 C195.264791,83.0816656 195.016335,82.9030007 194.726,82.769 C194.435665,82.6349993 194.106252,82.568 193.73775,82.568 C193.369248,82.568 193.039835,82.6349993 192.7495,82.769 C192.459165,82.9030007 192.210709,83.0816656 192.004125,83.305 C191.797541,83.5283344 191.641209,83.7851652 191.535125,84.0755 C191.429041,84.3658348 191.376,84.6673318 191.376,84.98 C191.376,85.2926682 191.429041,85.5941652 191.535125,85.8845 C191.641209,86.1748348 191.797541,86.4316655 192.004125,86.655 C192.210709,86.8783345 192.459165,87.0569993 192.7495,87.191 C193.039835,87.3250007 193.369248,87.392 193.73775,87.392 C194.106252,87.392 194.435665,87.3250007 194.726,87.191 C195.016335,87.0569993 195.264791,86.8783345 195.471375,86.655 C195.677959,86.4316655 195.834291,86.1748348 195.940375,85.8845 C196.046459,85.5941652 196.0995,85.2926682 196.0995,84.98 L196.0995,84.98 Z M199.70175,80.96 L201.61125,80.96 L201.61125,82.21625 L201.64475,82.21625 C201.823417,81.8365814 202.110956,81.4987931 202.507375,81.202875 C202.903794,80.9069569 203.436997,80.759 204.107,80.759 C205.36884,80.759 206.206331,81.2559117 206.6195,82.24975 C206.909835,81.7360808 207.272748,81.3592095 207.70825,81.119125 C208.143752,80.8790405 208.662997,80.759 209.266,80.759 C209.802003,80.759 210.254248,80.8483324 210.62275,81.027 C210.991252,81.2056676 211.289957,81.4513318 211.518875,81.764 C211.747793,82.0766682 211.912499,82.4423729 212.013,82.861125 C212.1135,83.2798771 212.16375,83.7293309 212.16375,84.2095 L212.16375,89 L210.15375,89 L210.15375,84.444 C210.15375,84.1983321 210.131417,83.9610428 210.08675,83.732125 C210.042083,83.5032072 209.963917,83.3022092 209.85225,83.129125 C209.740583,82.9560408 209.589834,82.8192505 209.4,82.71875 C209.210166,82.6182495 208.964501,82.568 208.663,82.568 C208.350332,82.568 208.085126,82.6266244 207.867375,82.743875 C207.649624,82.8611256 207.470959,83.0174574 207.331375,83.212875 C207.191791,83.4082926 207.091292,83.6316237 207.029875,83.882875 C206.968458,84.1341263 206.93775,84.3881654 206.93775,84.645 L206.93775,89 L204.92775,89 L204.92775,84.2095 C204.92775,83.7069975 204.821668,83.3077931 204.6095,83.011875 C204.397332,82.7159569 204.045586,82.568 203.55425,82.568 C203.219248,82.568 202.937293,82.6238328 202.708375,82.7355 C202.479457,82.8471672 202.289626,82.9979157 202.138875,83.18775 C201.988124,83.3775843 201.87925,83.5953321 201.81225,83.841 C201.74525,84.0866679 201.71175,84.3434987 201.71175,84.6115 L201.71175,89 L199.70175,89 L199.70175,80.96 Z M215.766,85.6835 C215.833,86.286503 216.067498,86.7554983 216.4695,87.0905 C216.871502,87.4255017 217.357247,87.593 217.92675,87.593 C218.429252,87.593 218.85079,87.4897094 219.191375,87.283125 C219.53196,87.0765406 219.830665,86.8169182 220.0875,86.50425 L221.528,87.593 C221.058998,88.1736696 220.534169,88.5868321 219.9535,88.8325 C219.37283,89.0781679 218.764253,89.201 218.12775,89.201 C217.524747,89.201 216.955253,89.100501 216.41925,88.8995 C215.883247,88.698499 215.419835,88.4137518 215.029,88.04525 C214.638165,87.6767482 214.328293,87.2328776 214.099375,86.713625 C213.870457,86.1943724 213.756,85.6165032 213.756,84.98 C213.756,84.3434968 213.870457,83.7656276 214.099375,83.246375 C214.328293,82.7271224 214.638165,82.2832518 215.029,81.91475 C215.419835,81.5462482 215.883247,81.261501 216.41925,81.0605 C216.955253,80.859499 217.524747,80.759 218.12775,80.759 C218.686086,80.759 219.196956,80.8567074 219.660375,81.052125 C220.123794,81.2475426 220.520207,81.5294982 220.849625,81.898 C221.179043,82.2665018 221.435874,82.721539 221.620125,83.263125 C221.804376,83.804711 221.8965,84.4272465 221.8965,85.13075 L221.8965,85.6835 L215.766,85.6835 Z M219.8865,84.176 C219.875333,83.5841637 219.691085,83.11796 219.33375,82.777375 C218.976415,82.43679 218.479503,82.2665 217.843,82.2665 C217.239997,82.2665 216.762627,82.4395816 216.410875,82.78575 C216.059123,83.1319184 215.844167,83.5953304 215.766,84.176 L219.8865,84.176 Z M223.5725,80.96 L225.482,80.96 L225.482,82.24975 L225.5155,82.24975 C225.705334,81.847748 225.995665,81.4987931 226.3865,81.202875 C226.777335,80.9069569 227.307747,80.759 227.97775,80.759 C228.513753,80.759 228.96879,80.8483324 229.342875,81.027 C229.71696,81.2056676 230.021249,81.4401652 230.25575,81.7305 C230.490251,82.0208348 230.657749,82.3558314 230.75825,82.7355 C230.85875,83.1151686 230.909,83.5115813 230.909,83.92475 L230.909,89 L228.899,89 L228.899,84.92975 C228.899,84.7064155 228.887833,84.4579597 228.8655,84.184375 C228.843166,83.9107903 228.784542,83.6539595 228.689625,83.413875 C228.594708,83.1737905 228.446751,82.9727925 228.24575,82.810875 C228.044749,82.6489575 227.771168,82.568 227.425,82.568 C227.089998,82.568 226.808043,82.6238328 226.579125,82.7355 C226.350207,82.8471672 226.160376,82.9979157 226.009625,83.18775 C225.858874,83.3775843 225.75,83.5953321 225.683,83.841 C225.616,84.0866679 225.5825,84.3434987 225.5825,84.6115 L225.5825,89 L223.5725,89 L223.5725,80.96 Z M232.049,82.6685 L232.049,80.96 L233.70725,80.96 L233.70725,78.63175 L235.71725,78.63175 L235.71725,80.96 L237.92825,80.96 L237.92825,82.6685 L235.71725,82.6685 L235.71725,86.186 C235.71725,86.588002 235.792624,86.9062488 235.943375,87.14075 C236.094126,87.3752512 236.392831,87.4925 236.8395,87.4925 C237.018167,87.4925 237.213582,87.4729585 237.42575,87.433875 C237.637918,87.3947915 237.805416,87.3305838 237.92825,87.24125 L237.92825,88.933 C237.716082,89.0335005 237.45646,89.1032915 237.149375,89.142375 C236.84229,89.1814585 236.571501,89.201 236.337,89.201 C235.800997,89.201 235.36271,89.1423756 235.022125,89.025125 C234.68154,88.9078744 234.413543,88.7292095 234.218125,88.489125 C234.022707,88.2490405 233.888709,87.9503351 233.816125,87.593 C233.743541,87.2356649 233.70725,86.8225023 233.70725,86.3535 L233.70725,82.6685 L232.049,82.6685 Z" id="Center-for-Talent-De" fill="#5C2D91"></path>
                <path d="M52.1375,101.15 L53.7125,101.15 L58.5875,108.425 L58.6125,108.425 L58.6125,101.15 L59.8125,101.15 L59.8125,110 L58.2875,110 L53.3625,102.725 L53.3375,102.725 L53.3375,110 L52.1375,110 L52.1375,101.15 Z M62.5125,107.0375 C62.5125,107.337501 62.5583329,107.614582 62.65,107.86875 C62.7416671,108.122918 62.8708325,108.339582 63.0375,108.51875 C63.2041675,108.697918 63.4083321,108.839583 63.65,108.94375 C63.8916679,109.047917 64.1624985,109.1 64.4625,109.1 C64.7625015,109.1 65.0333321,109.047917 65.275,108.94375 C65.5166679,108.839583 65.7208325,108.697918 65.8875,108.51875 C66.0541675,108.339582 66.1833329,108.122918 66.275,107.86875 C66.3666671,107.614582 66.4125,107.337501 66.4125,107.0375 C66.4125,106.737499 66.3666671,106.460418 66.275,106.20625 C66.1833329,105.952082 66.0541675,105.735418 65.8875,105.55625 C65.7208325,105.377082 65.5166679,105.235417 65.275,105.13125 C65.0333321,105.027083 64.7625015,104.975 64.4625,104.975 C64.1624985,104.975 63.8916679,105.027083 63.65,105.13125 C63.4083321,105.235417 63.2041675,105.377082 63.0375,105.55625 C62.8708325,105.735418 62.7416671,105.952082 62.65,106.20625 C62.5583329,106.460418 62.5125,106.737499 62.5125,107.0375 L62.5125,107.0375 Z M61.3125,107.0375 C61.3125,106.604165 61.3937492,106.200002 61.55625,105.825 C61.7187508,105.449998 61.9416652,105.120835 62.225,104.8375 C62.5083347,104.554165 62.8416647,104.331251 63.225,104.16875 C63.6083352,104.006249 64.0208311,103.925 64.4625,103.925 C64.9041689,103.925 65.3166647,104.006249 65.7,104.16875 C66.0833352,104.331251 66.4166652,104.554165 66.7,104.8375 C66.9833347,105.120835 67.2062492,105.449998 67.36875,105.825 C67.5312508,106.200002 67.6125,106.604165 67.6125,107.0375 C67.6125,107.470836 67.5312508,107.877081 67.36875,108.25625 C67.2062492,108.635419 66.9833347,108.964582 66.7,109.24375 C66.4166652,109.522918 66.0833352,109.743749 65.7,109.90625 C65.3166647,110.068751 64.9041689,110.15 64.4625,110.15 C64.0208311,110.15 63.6083352,110.068751 63.225,109.90625 C62.8416647,109.743749 62.5083347,109.522918 62.225,109.24375 C61.9416652,108.964582 61.7187508,108.635419 61.55625,108.25625 C61.3937492,107.877081 61.3125,107.470836 61.3125,107.0375 L61.3125,107.0375 Z M68.825,104.075 L69.95,104.075 L69.95,104.9875 L69.975,104.9875 C70.0500004,104.829166 70.1499994,104.685417 70.275,104.55625 C70.4000006,104.427083 70.5395826,104.316667 70.69375,104.225 C70.8479174,104.133333 71.0166657,104.060417 71.2,104.00625 C71.3833342,103.952083 71.5666657,103.925 71.75,103.925 C71.9333342,103.925 72.0999992,103.95 72.25,104 L72.2,105.2125 C72.1083329,105.1875 72.0166671,105.166667 71.925,105.15 C71.8333329,105.133333 71.7416671,105.125 71.65,105.125 C71.0999972,105.125 70.6791681,105.279165 70.3875,105.5875 C70.0958319,105.895835 69.95,106.374997 69.95,107.025 L69.95,110 L68.825,110 L68.825,104.075 Z M76.425,105.05 L74.8125,105.05 L74.8125,107.7375 C74.8125,107.904167 74.8166666,108.068749 74.825,108.23125 C74.8333334,108.393751 74.8645831,108.539583 74.91875,108.66875 C74.9729169,108.797917 75.0562494,108.902083 75.16875,108.98125 C75.2812506,109.060417 75.4458322,109.1 75.6625,109.1 C75.795834,109.1 75.9333326,109.0875 76.075,109.0625 C76.2166674,109.0375 76.3458327,108.991667 76.4625,108.925 L76.4625,109.95 C76.329166,110.025 76.1562511,110.077083 75.94375,110.10625 C75.7312489,110.135417 75.5666672,110.15 75.45,110.15 C75.0166645,110.15 74.6812512,110.089584 74.44375,109.96875 C74.2062488,109.847916 74.0312506,109.691668 73.91875,109.5 C73.8062494,109.308332 73.7395834,109.093751 73.71875,108.85625 C73.6979166,108.618749 73.6875,108.379168 73.6875,108.1375 L73.6875,105.05 L72.3875,105.05 L72.3875,104.075 L73.6875,104.075 L73.6875,102.4125 L74.8125,102.4125 L74.8125,104.075 L76.425,104.075 L76.425,105.05 Z M77.675,100.55 L78.8,100.55 L78.8,104.9875 L78.825,104.9875 C78.9666674,104.670832 79.2124982,104.414584 79.5625,104.21875 C79.9125017,104.022916 80.3166644,103.925 80.775,103.925 C81.0583347,103.925 81.3312487,103.96875 81.59375,104.05625 C81.8562513,104.14375 82.0854157,104.279166 82.28125,104.4625 C82.4770843,104.645834 82.6333327,104.881249 82.75,105.16875 C82.8666672,105.456251 82.925,105.795831 82.925,106.1875 L82.925,110 L81.8,110 L81.8,106.5 C81.8,106.224999 81.7625004,105.989584 81.6875,105.79375 C81.6124996,105.597916 81.5125006,105.439584 81.3875,105.31875 C81.2624994,105.197916 81.1187508,105.110417 80.95625,105.05625 C80.7937492,105.002083 80.6250009,104.975 80.45,104.975 C80.2166655,104.975 80.000001,105.0125 79.8,105.0875 C79.599999,105.1625 79.4250007,105.281249 79.275,105.44375 C79.1249992,105.606251 79.0083337,105.812499 78.925,106.0625 C78.8416662,106.312501 78.8,106.608332 78.8,106.95 L78.8,110 L77.675,110 L77.675,100.55 Z M83.7125,104.075 L84.975,104.075 L86.3125,108.5 L86.3375,108.5 L87.75,104.075 L88.9375,104.075 L90.4375,108.5 L90.4625,108.5 L91.7375,104.075 L92.925,104.075 L91.0125,110 L89.875,110 L88.3125,105.575 L88.2875,105.575 L86.875,110 L85.6625,110 L83.7125,104.075 Z M94.5625,107.45 C94.5625,107.708335 94.6187494,107.943749 94.73125,108.15625 C94.8437505,108.368751 94.9916657,108.549999 95.175,108.7 C95.3583342,108.850001 95.5708321,108.966666 95.8125,109.05 C96.0541679,109.133334 96.3041654,109.175 96.5625,109.175 C96.9125017,109.175 97.2166654,109.093751 97.475,108.93125 C97.7333346,108.768749 97.9708322,108.554168 98.1875,108.2875 L99.0375,108.9375 C98.4124969,109.745837 97.5375056,110.15 96.4125,110.15 C95.945831,110.15 95.5229185,110.070834 95.14375,109.9125 C94.7645814,109.754166 94.4437513,109.535418 94.18125,109.25625 C93.9187487,108.977082 93.7166674,108.647919 93.575,108.26875 C93.4333326,107.889581 93.3625,107.479169 93.3625,107.0375 C93.3625,106.595831 93.4395825,106.185419 93.59375,105.80625 C93.7479174,105.427081 93.9604153,105.097918 94.23125,104.81875 C94.5020847,104.539582 94.8249981,104.320834 95.2,104.1625 C95.5750019,104.004166 95.9833311,103.925 96.425,103.925 C96.9500026,103.925 97.3937482,104.016666 97.75625,104.2 C98.1187518,104.383334 98.4166655,104.622915 98.65,104.91875 C98.8833345,105.214585 99.0520828,105.547915 99.15625,105.91875 C99.2604172,106.289585 99.3125,106.666665 99.3125,107.05 L99.3125,107.45 L94.5625,107.45 Z M98.1125,106.55 C98.1041666,106.299999 98.0645837,106.070834 97.99375,105.8625 C97.9229163,105.654166 97.8166674,105.472917 97.675,105.31875 C97.5333326,105.164583 97.356251,105.04375 97.14375,104.95625 C96.9312489,104.86875 96.6833347,104.825 96.4,104.825 C96.1249986,104.825 95.8729178,104.877083 95.64375,104.98125 C95.4145822,105.085417 95.2208341,105.220832 95.0625,105.3875 C94.9041659,105.554168 94.7812504,105.739582 94.69375,105.94375 C94.6062495,106.147918 94.5625,106.349999 94.5625,106.55 L98.1125,106.55 Z M103.6125,105.5625 C103.479166,105.395832 103.314584,105.256251 103.11875,105.14375 C102.922916,105.031249 102.683335,104.975 102.4,104.975 C102.133332,104.975 101.902084,105.031249 101.70625,105.14375 C101.510416,105.256251 101.4125,105.420832 101.4125,105.6375 C101.4125,105.812501 101.468749,105.954166 101.58125,106.0625 C101.693751,106.170834 101.827083,106.258333 101.98125,106.325 C102.135417,106.391667 102.299999,106.441666 102.475,106.475 C102.650001,106.508333 102.799999,106.5375 102.925,106.5625 C103.166668,106.620834 103.393749,106.691666 103.60625,106.775 C103.818751,106.858334 104.002083,106.966666 104.15625,107.1 C104.310417,107.233334 104.43125,107.395832 104.51875,107.5875 C104.60625,107.779168 104.65,108.012499 104.65,108.2875 C104.65,108.620835 104.579167,108.906249 104.4375,109.14375 C104.295833,109.381251 104.112501,109.574999 103.8875,109.725 C103.662499,109.875001 103.406251,109.983333 103.11875,110.05 C102.831249,110.116667 102.541668,110.15 102.25,110.15 C101.758331,110.15 101.327085,110.075001 100.95625,109.925 C100.585415,109.774999 100.254168,109.500002 99.9625,109.1 L100.8125,108.4 C100.995834,108.583334 101.199999,108.745833 101.425,108.8875 C101.650001,109.029167 101.924998,109.1 102.25,109.1 C102.391667,109.1 102.535416,109.085417 102.68125,109.05625 C102.827084,109.027083 102.956249,108.98125 103.06875,108.91875 C103.181251,108.85625 103.272916,108.777084 103.34375,108.68125 C103.414584,108.585416 103.45,108.475001 103.45,108.35 C103.45,108.183333 103.397917,108.045834 103.29375,107.9375 C103.189583,107.829166 103.064584,107.74375 102.91875,107.68125 C102.772916,107.61875 102.618751,107.56875 102.45625,107.53125 C102.293749,107.49375 102.150001,107.4625 102.025,107.4375 C101.783332,107.379166 101.554168,107.3125 101.3375,107.2375 C101.120832,107.1625 100.929167,107.062501 100.7625,106.9375 C100.595832,106.812499 100.4625,106.654168 100.3625,106.4625 C100.262499,106.270832 100.2125,106.033335 100.2125,105.75 C100.2125,105.441665 100.277083,105.172918 100.40625,104.94375 C100.535417,104.714582 100.706249,104.525001 100.91875,104.375 C101.131251,104.224999 101.372915,104.1125 101.64375,104.0375 C101.914585,103.9625 102.187499,103.925 102.4625,103.925 C102.862502,103.925 103.245831,103.999999 103.6125,104.15 C103.979168,104.300001 104.270832,104.549998 104.4875,104.9 L103.6125,105.5625 Z M108.9875,105.05 L107.375,105.05 L107.375,107.7375 C107.375,107.904167 107.379167,108.068749 107.3875,108.23125 C107.395833,108.393751 107.427083,108.539583 107.48125,108.66875 C107.535417,108.797917 107.618749,108.902083 107.73125,108.98125 C107.843751,109.060417 108.008332,109.1 108.225,109.1 C108.358334,109.1 108.495833,109.0875 108.6375,109.0625 C108.779167,109.0375 108.908333,108.991667 109.025,108.925 L109.025,109.95 C108.891666,110.025 108.718751,110.077083 108.50625,110.10625 C108.293749,110.135417 108.129167,110.15 108.0125,110.15 C107.579164,110.15 107.243751,110.089584 107.00625,109.96875 C106.768749,109.847916 106.593751,109.691668 106.48125,109.5 C106.368749,109.308332 106.302083,109.093751 106.28125,108.85625 C106.260417,108.618749 106.25,108.379168 106.25,108.1375 L106.25,105.05 L104.95,105.05 L104.95,104.075 L106.25,104.075 L106.25,102.4125 L107.375,102.4125 L107.375,104.075 L108.9875,104.075 L108.9875,105.05 Z M111.0875,107.45 C111.0875,107.708335 111.143749,107.943749 111.25625,108.15625 C111.368751,108.368751 111.516666,108.549999 111.7,108.7 C111.883334,108.850001 112.095832,108.966666 112.3375,109.05 C112.579168,109.133334 112.829165,109.175 113.0875,109.175 C113.437502,109.175 113.741665,109.093751 114,108.93125 C114.258335,108.768749 114.495832,108.554168 114.7125,108.2875 L115.5625,108.9375 C114.937497,109.745837 114.062506,110.15 112.9375,110.15 C112.470831,110.15 112.047919,110.070834 111.66875,109.9125 C111.289581,109.754166 110.968751,109.535418 110.70625,109.25625 C110.443749,108.977082 110.241667,108.647919 110.1,108.26875 C109.958333,107.889581 109.8875,107.479169 109.8875,107.0375 C109.8875,106.595831 109.964583,106.185419 110.11875,105.80625 C110.272917,105.427081 110.485415,105.097918 110.75625,104.81875 C111.027085,104.539582 111.349998,104.320834 111.725,104.1625 C112.100002,104.004166 112.508331,103.925 112.95,103.925 C113.475003,103.925 113.918748,104.016666 114.28125,104.2 C114.643752,104.383334 114.941665,104.622915 115.175,104.91875 C115.408334,105.214585 115.577083,105.547915 115.68125,105.91875 C115.785417,106.289585 115.8375,106.666665 115.8375,107.05 L115.8375,107.45 L111.0875,107.45 Z M114.6375,106.55 C114.629167,106.299999 114.589584,106.070834 114.51875,105.8625 C114.447916,105.654166 114.341667,105.472917 114.2,105.31875 C114.058333,105.164583 113.881251,105.04375 113.66875,104.95625 C113.456249,104.86875 113.208335,104.825 112.925,104.825 C112.649999,104.825 112.397918,104.877083 112.16875,104.98125 C111.939582,105.085417 111.745834,105.220832 111.5875,105.3875 C111.429166,105.554168 111.30625,105.739582 111.21875,105.94375 C111.13125,106.147918 111.0875,106.349999 111.0875,106.55 L114.6375,106.55 Z M116.9875,104.075 L118.1125,104.075 L118.1125,104.9875 L118.1375,104.9875 C118.2125,104.829166 118.312499,104.685417 118.4375,104.55625 C118.562501,104.427083 118.702083,104.316667 118.85625,104.225 C119.010417,104.133333 119.179166,104.060417 119.3625,104.00625 C119.545834,103.952083 119.729166,103.925 119.9125,103.925 C120.095834,103.925 120.262499,103.95 120.4125,104 L120.3625,105.2125 C120.270833,105.1875 120.179167,105.166667 120.0875,105.15 C119.995833,105.133333 119.904167,105.125 119.8125,105.125 C119.262497,105.125 118.841668,105.279165 118.55,105.5875 C118.258332,105.895835 118.1125,106.374997 118.1125,107.025 L118.1125,110 L116.9875,110 L116.9875,104.075 Z M121.4125,104.075 L122.5375,104.075 L122.5375,104.9875 L122.5625,104.9875 C122.704167,104.670832 122.949998,104.414584 123.3,104.21875 C123.650002,104.022916 124.054164,103.925 124.5125,103.925 C124.795835,103.925 125.068749,103.96875 125.33125,104.05625 C125.593751,104.14375 125.822916,104.279166 126.01875,104.4625 C126.214584,104.645834 126.370833,104.881249 126.4875,105.16875 C126.604167,105.456251 126.6625,105.795831 126.6625,106.1875 L126.6625,110 L125.5375,110 L125.5375,106.5 C125.5375,106.224999 125.5,105.989584 125.425,105.79375 C125.35,105.597916 125.250001,105.439584 125.125,105.31875 C124.999999,105.197916 124.856251,105.110417 124.69375,105.05625 C124.531249,105.002083 124.362501,104.975 124.1875,104.975 C123.954165,104.975 123.737501,105.0125 123.5375,105.0875 C123.337499,105.1625 123.162501,105.281249 123.0125,105.44375 C122.862499,105.606251 122.745834,105.812499 122.6625,106.0625 C122.579166,106.312501 122.5375,106.608332 122.5375,106.95 L122.5375,110 L121.4125,110 L121.4125,104.075 Z M132.7625,101.15 L132.7625,106.575 C132.7625,106.850001 132.8,107.135415 132.875,107.43125 C132.95,107.727085 133.074999,107.999999 133.25,108.25 C133.425001,108.500001 133.654165,108.704166 133.9375,108.8625 C134.220835,109.020834 134.570831,109.1 134.9875,109.1 C135.404169,109.1 135.754165,109.020834 136.0375,108.8625 C136.320835,108.704166 136.549999,108.500001 136.725,108.25 C136.900001,107.999999 137.025,107.727085 137.1,107.43125 C137.175,107.135415 137.2125,106.850001 137.2125,106.575 L137.2125,101.15 L138.4125,101.15 L138.4125,106.7625 C138.4125,107.279169 138.325001,107.747915 138.15,108.16875 C137.974999,108.589585 137.733335,108.954165 137.425,109.2625 C137.116665,109.570835 136.754169,109.808333 136.3375,109.975 C135.920831,110.141667 135.470836,110.225 134.9875,110.225 C134.504164,110.225 134.054169,110.141667 133.6375,109.975 C133.220831,109.808333 132.858335,109.570835 132.55,109.2625 C132.241665,108.954165 132.000001,108.589585 131.825,108.16875 C131.649999,107.747915 131.5625,107.279169 131.5625,106.7625 L131.5625,101.15 L132.7625,101.15 Z M140.0375,104.075 L141.1625,104.075 L141.1625,104.9875 L141.1875,104.9875 C141.329167,104.670832 141.574998,104.414584 141.925,104.21875 C142.275002,104.022916 142.679164,103.925 143.1375,103.925 C143.420835,103.925 143.693749,103.96875 143.95625,104.05625 C144.218751,104.14375 144.447916,104.279166 144.64375,104.4625 C144.839584,104.645834 144.995833,104.881249 145.1125,105.16875 C145.229167,105.456251 145.2875,105.795831 145.2875,106.1875 L145.2875,110 L144.1625,110 L144.1625,106.5 C144.1625,106.224999 144.125,105.989584 144.05,105.79375 C143.975,105.597916 143.875001,105.439584 143.75,105.31875 C143.624999,105.197916 143.481251,105.110417 143.31875,105.05625 C143.156249,105.002083 142.987501,104.975 142.8125,104.975 C142.579165,104.975 142.362501,105.0125 142.1625,105.0875 C141.962499,105.1625 141.787501,105.281249 141.6375,105.44375 C141.487499,105.606251 141.370834,105.812499 141.2875,106.0625 C141.204166,106.312501 141.1625,106.608332 141.1625,106.95 L141.1625,110 L140.0375,110 L140.0375,104.075 Z M146.875,104.075 L148,104.075 L148,110 L146.875,110 L146.875,104.075 Z M146.6125,101.95 C146.6125,101.724999 146.693749,101.531251 146.85625,101.36875 C147.018751,101.206249 147.212499,101.125 147.4375,101.125 C147.662501,101.125 147.856249,101.206249 148.01875,101.36875 C148.181251,101.531251 148.2625,101.724999 148.2625,101.95 C148.2625,102.175001 148.181251,102.368749 148.01875,102.53125 C147.856249,102.693751 147.662501,102.775 147.4375,102.775 C147.212499,102.775 147.018751,102.693751 146.85625,102.53125 C146.693749,102.368749 146.6125,102.175001 146.6125,101.95 L146.6125,101.95 Z M148.875,104.075 L150.175,104.075 L151.95,108.6125 L153.65,104.075 L154.85,104.075 L152.525,110 L151.2875,110 L148.875,104.075 Z M156.4875,107.45 C156.4875,107.708335 156.543749,107.943749 156.65625,108.15625 C156.768751,108.368751 156.916666,108.549999 157.1,108.7 C157.283334,108.850001 157.495832,108.966666 157.7375,109.05 C157.979168,109.133334 158.229165,109.175 158.4875,109.175 C158.837502,109.175 159.141665,109.093751 159.4,108.93125 C159.658335,108.768749 159.895832,108.554168 160.1125,108.2875 L160.9625,108.9375 C160.337497,109.745837 159.462506,110.15 158.3375,110.15 C157.870831,110.15 157.447919,110.070834 157.06875,109.9125 C156.689581,109.754166 156.368751,109.535418 156.10625,109.25625 C155.843749,108.977082 155.641667,108.647919 155.5,108.26875 C155.358333,107.889581 155.2875,107.479169 155.2875,107.0375 C155.2875,106.595831 155.364583,106.185419 155.51875,105.80625 C155.672917,105.427081 155.885415,105.097918 156.15625,104.81875 C156.427085,104.539582 156.749998,104.320834 157.125,104.1625 C157.500002,104.004166 157.908331,103.925 158.35,103.925 C158.875003,103.925 159.318748,104.016666 159.68125,104.2 C160.043752,104.383334 160.341665,104.622915 160.575,104.91875 C160.808334,105.214585 160.977083,105.547915 161.08125,105.91875 C161.185417,106.289585 161.2375,106.666665 161.2375,107.05 L161.2375,107.45 L156.4875,107.45 Z M160.0375,106.55 C160.029167,106.299999 159.989584,106.070834 159.91875,105.8625 C159.847916,105.654166 159.741667,105.472917 159.6,105.31875 C159.458333,105.164583 159.281251,105.04375 159.06875,104.95625 C158.856249,104.86875 158.608335,104.825 158.325,104.825 C158.049999,104.825 157.797918,104.877083 157.56875,104.98125 C157.339582,105.085417 157.145834,105.220832 156.9875,105.3875 C156.829166,105.554168 156.70625,105.739582 156.61875,105.94375 C156.53125,106.147918 156.4875,106.349999 156.4875,106.55 L160.0375,106.55 Z M162.3875,104.075 L163.5125,104.075 L163.5125,104.9875 L163.5375,104.9875 C163.6125,104.829166 163.712499,104.685417 163.8375,104.55625 C163.962501,104.427083 164.102083,104.316667 164.25625,104.225 C164.410417,104.133333 164.579166,104.060417 164.7625,104.00625 C164.945834,103.952083 165.129166,103.925 165.3125,103.925 C165.495834,103.925 165.662499,103.95 165.8125,104 L165.7625,105.2125 C165.670833,105.1875 165.579167,105.166667 165.4875,105.15 C165.395833,105.133333 165.304167,105.125 165.2125,105.125 C164.662497,105.125 164.241668,105.279165 163.95,105.5875 C163.658332,105.895835 163.5125,106.374997 163.5125,107.025 L163.5125,110 L162.3875,110 L162.3875,104.075 Z M169.9625,105.5625 C169.829166,105.395832 169.664584,105.256251 169.46875,105.14375 C169.272916,105.031249 169.033335,104.975 168.75,104.975 C168.483332,104.975 168.252084,105.031249 168.05625,105.14375 C167.860416,105.256251 167.7625,105.420832 167.7625,105.6375 C167.7625,105.812501 167.818749,105.954166 167.93125,106.0625 C168.043751,106.170834 168.177083,106.258333 168.33125,106.325 C168.485417,106.391667 168.649999,106.441666 168.825,106.475 C169.000001,106.508333 169.149999,106.5375 169.275,106.5625 C169.516668,106.620834 169.743749,106.691666 169.95625,106.775 C170.168751,106.858334 170.352083,106.966666 170.50625,107.1 C170.660417,107.233334 170.78125,107.395832 170.86875,107.5875 C170.95625,107.779168 171,108.012499 171,108.2875 C171,108.620835 170.929167,108.906249 170.7875,109.14375 C170.645833,109.381251 170.462501,109.574999 170.2375,109.725 C170.012499,109.875001 169.756251,109.983333 169.46875,110.05 C169.181249,110.116667 168.891668,110.15 168.6,110.15 C168.108331,110.15 167.677085,110.075001 167.30625,109.925 C166.935415,109.774999 166.604168,109.500002 166.3125,109.1 L167.1625,108.4 C167.345834,108.583334 167.549999,108.745833 167.775,108.8875 C168.000001,109.029167 168.274998,109.1 168.6,109.1 C168.741667,109.1 168.885416,109.085417 169.03125,109.05625 C169.177084,109.027083 169.306249,108.98125 169.41875,108.91875 C169.531251,108.85625 169.622916,108.777084 169.69375,108.68125 C169.764584,108.585416 169.8,108.475001 169.8,108.35 C169.8,108.183333 169.747917,108.045834 169.64375,107.9375 C169.539583,107.829166 169.414584,107.74375 169.26875,107.68125 C169.122916,107.61875 168.968751,107.56875 168.80625,107.53125 C168.643749,107.49375 168.500001,107.4625 168.375,107.4375 C168.133332,107.379166 167.904168,107.3125 167.6875,107.2375 C167.470832,107.1625 167.279167,107.062501 167.1125,106.9375 C166.945832,106.812499 166.8125,106.654168 166.7125,106.4625 C166.612499,106.270832 166.5625,106.033335 166.5625,105.75 C166.5625,105.441665 166.627083,105.172918 166.75625,104.94375 C166.885417,104.714582 167.056249,104.525001 167.26875,104.375 C167.481251,104.224999 167.722915,104.1125 167.99375,104.0375 C168.264585,103.9625 168.537499,103.925 168.8125,103.925 C169.212502,103.925 169.595831,103.999999 169.9625,104.15 C170.329168,104.300001 170.620832,104.549998 170.8375,104.9 L169.9625,105.5625 Z M172.25,104.075 L173.375,104.075 L173.375,110 L172.25,110 L172.25,104.075 Z M171.9875,101.95 C171.9875,101.724999 172.068749,101.531251 172.23125,101.36875 C172.393751,101.206249 172.587499,101.125 172.8125,101.125 C173.037501,101.125 173.231249,101.206249 173.39375,101.36875 C173.556251,101.531251 173.6375,101.724999 173.6375,101.95 C173.6375,102.175001 173.556251,102.368749 173.39375,102.53125 C173.231249,102.693751 173.037501,102.775 172.8125,102.775 C172.587499,102.775 172.393751,102.693751 172.23125,102.53125 C172.068749,102.368749 171.9875,102.175001 171.9875,101.95 L171.9875,101.95 Z M178.1375,105.05 L176.525,105.05 L176.525,107.7375 C176.525,107.904167 176.529167,108.068749 176.5375,108.23125 C176.545833,108.393751 176.577083,108.539583 176.63125,108.66875 C176.685417,108.797917 176.768749,108.902083 176.88125,108.98125 C176.99375,109.060417 177.158332,109.1 177.375,109.1 C177.508334,109.1 177.645833,109.0875 177.7875,109.0625 C177.929167,109.0375 178.058333,108.991667 178.175,108.925 L178.175,109.95 C178.041666,110.025 177.868751,110.077083 177.65625,110.10625 C177.443749,110.135417 177.279167,110.15 177.1625,110.15 C176.729164,110.15 176.393751,110.089584 176.15625,109.96875 C175.918749,109.847916 175.74375,109.691668 175.63125,109.5 C175.518749,109.308332 175.452083,109.093751 175.43125,108.85625 C175.410416,108.618749 175.4,108.379168 175.4,108.1375 L175.4,105.05 L174.1,105.05 L174.1,104.075 L175.4,104.075 L175.4,102.4125 L176.525,102.4125 L176.525,104.075 L178.1375,104.075 L178.1375,105.05 Z M178.675,104.075 L179.975,104.075 L181.7375,108.7 L181.7625,108.7 L183.4375,104.075 L184.65,104.075 L181.8375,111.275 C181.737499,111.533335 181.633334,111.768749 181.525,111.98125 C181.416666,112.193751 181.287501,112.374999 181.1375,112.525 C180.987499,112.675001 180.806251,112.791666 180.59375,112.875 C180.381249,112.958334 180.120835,113 179.8125,113 C179.645832,113 179.477084,112.989583 179.30625,112.96875 C179.135416,112.947917 178.970834,112.904167 178.8125,112.8375 L178.95,111.8125 C179.175001,111.904167 179.399999,111.95 179.625,111.95 C179.800001,111.95 179.947916,111.927084 180.06875,111.88125 C180.189584,111.835416 180.293749,111.76875 180.38125,111.68125 C180.46875,111.59375 180.541666,111.491667 180.6,111.375 C180.658334,111.258333 180.716666,111.125001 180.775,110.975 L181.1375,110.0375 L178.675,104.075 Z" id="Northwestern-Univers" fill="#5C2D91"></path>
                <path d="M186.948,108.148 L186.204,108.148 L186.204,107.752 L188.16,107.752 L188.16,108.148 L187.416,108.148 L187.416,110.224 L186.948,110.224 L186.948,108.148 Z M188.634,107.752 L189.348,107.752 L190.014,109.648 L190.032,109.648 L190.698,107.752 L191.412,107.752 L191.412,110.224 L190.944,110.224 L190.944,108.16 L190.932,108.16 L190.212,110.224 L189.834,110.224 L189.114,108.16 L189.102,108.16 L189.102,110.224 L188.634,110.224 L188.634,107.752 Z" id="" fill="#5C2D91"></path>
                <path d="M25.4,129.15 C25.6166678,129.475002 25.8937483,129.714583 26.23125,129.86875 C26.5687517,130.022917 26.9166649,130.1 27.275,130.1 C27.475001,130.1 27.6791656,130.06875 27.8875,130.00625 C28.0958344,129.94375 28.2854158,129.850001 28.45625,129.725 C28.6270842,129.599999 28.7666661,129.445834 28.875,129.2625 C28.9833339,129.079166 29.0375,128.866668 29.0375,128.625 C29.0375,128.283332 28.9291678,128.022918 28.7125,127.84375 C28.4958323,127.664582 28.2270849,127.514584 27.90625,127.39375 C27.5854151,127.272916 27.2354186,127.156251 26.85625,127.04375 C26.4770814,126.931249 26.1270849,126.775001 25.80625,126.575 C25.4854151,126.374999 25.2166678,126.106252 25,125.76875 C24.7833323,125.431248 24.675,124.975003 24.675,124.4 C24.675,124.141665 24.7312494,123.866668 24.84375,123.575 C24.9562506,123.283332 25.1333321,123.016668 25.375,122.775 C25.6166679,122.533332 25.9270814,122.331251 26.30625,122.16875 C26.6854186,122.006249 27.141664,121.925 27.675,121.925 C28.1583358,121.925 28.6208311,121.991666 29.0625,122.125 C29.5041689,122.258334 29.891665,122.529165 30.225,122.9375 L29.25,123.825 C29.0999993,123.591665 28.8875014,123.404167 28.6125,123.2625 C28.3374986,123.120833 28.0250018,123.05 27.675,123.05 C27.341665,123.05 27.0645844,123.09375 26.84375,123.18125 C26.6229156,123.26875 26.445834,123.381249 26.3125,123.51875 C26.179166,123.656251 26.0854169,123.804166 26.03125,123.9625 C25.9770831,124.120834 25.95,124.266666 25.95,124.4 C25.95,124.775002 26.0583323,125.062499 26.275,125.2625 C26.4916678,125.462501 26.7604151,125.624999 27.08125,125.75 C27.4020849,125.875001 27.7520814,125.9875 28.13125,126.0875 C28.5104186,126.1875 28.8604151,126.327082 29.18125,126.50625 C29.5020849,126.685418 29.7708323,126.927082 29.9875,127.23125 C30.2041678,127.535418 30.3125,127.954164 30.3125,128.4875 C30.3125,128.912502 30.2312508,129.295832 30.06875,129.6375 C29.9062492,129.979168 29.6875014,130.266665 29.4125,130.5 C29.1374986,130.733335 28.8125019,130.912499 28.4375,131.0375 C28.0624981,131.162501 27.6625021,131.225 27.2375,131.225 C26.6708305,131.225 26.1333359,131.125001 25.625,130.925 C25.1166641,130.724999 24.7125015,130.416669 24.4125,130 L25.4,129.15 Z M35.8375,126.65 C35.6291656,126.433332 35.4104178,126.268751 35.18125,126.15625 C34.9520822,126.043749 34.6791682,125.9875 34.3625,125.9875 C34.0541651,125.9875 33.7854178,126.043749 33.55625,126.15625 C33.3270822,126.268751 33.1354174,126.422916 32.98125,126.61875 C32.8270826,126.814584 32.7104171,127.039582 32.63125,127.29375 C32.5520829,127.547918 32.5125,127.812499 32.5125,128.0875 C32.5125,128.362501 32.5583329,128.622915 32.65,128.86875 C32.7416671,129.114585 32.8708325,129.329166 33.0375,129.5125 C33.2041675,129.695834 33.4041655,129.839583 33.6375,129.94375 C33.8708345,130.047917 34.1333319,130.1 34.425,130.1 C34.7416682,130.1 35.0124989,130.043751 35.2375,129.93125 C35.4625011,129.818749 35.6708324,129.654168 35.8625,129.4375 L36.6625,130.2375 C36.3708319,130.562502 36.0312519,130.795833 35.64375,130.9375 C35.2562481,131.079167 34.8458355,131.15 34.4125,131.15 C33.9541644,131.15 33.5354186,131.075001 33.15625,130.925 C32.7770814,130.774999 32.4500014,130.564585 32.175,130.29375 C31.8999986,130.022915 31.6875007,129.697919 31.5375,129.31875 C31.3874992,128.939581 31.3125,128.520836 31.3125,128.0625 C31.3125,127.604164 31.3874992,127.183335 31.5375,126.8 C31.6875007,126.416665 31.8979153,126.087501 32.16875,125.8125 C32.4395847,125.537499 32.7645814,125.322917 33.14375,125.16875 C33.5229186,125.014583 33.945831,124.9375 34.4125,124.9375 C34.8458355,124.9375 35.2604147,125.014583 35.65625,125.16875 C36.0520853,125.322917 36.3958319,125.558332 36.6875,125.875 L35.8375,126.65 Z M37.425,121.55 L38.55,121.55 L38.55,125.9875 L38.575,125.9875 C38.7166674,125.670832 38.9624982,125.414584 39.3125,125.21875 C39.6625017,125.022916 40.0666644,124.925 40.525,124.925 C40.8083347,124.925 41.0812487,124.96875 41.34375,125.05625 C41.6062513,125.14375 41.8354157,125.279166 42.03125,125.4625 C42.2270843,125.645834 42.3833327,125.881249 42.5,126.16875 C42.6166672,126.456251 42.675,126.795831 42.675,127.1875 L42.675,131 L41.55,131 L41.55,127.5 C41.55,127.224999 41.5125004,126.989584 41.4375,126.79375 C41.3624996,126.597916 41.2625006,126.439584 41.1375,126.31875 C41.0124994,126.197916 40.8687508,126.110417 40.70625,126.05625 C40.5437492,126.002083 40.3750009,125.975 40.2,125.975 C39.9666655,125.975 39.750001,126.0125 39.55,126.0875 C39.349999,126.1625 39.1750007,126.281249 39.025,126.44375 C38.8749992,126.606251 38.7583337,126.812499 38.675,127.0625 C38.5916662,127.312501 38.55,127.608332 38.55,127.95 L38.55,131 L37.425,131 L37.425,121.55 Z M45.0875,128.0375 C45.0875,128.337501 45.1333329,128.614582 45.225,128.86875 C45.3166671,129.122918 45.4458325,129.339582 45.6125,129.51875 C45.7791675,129.697918 45.9833321,129.839583 46.225,129.94375 C46.4666679,130.047917 46.7374985,130.1 47.0375,130.1 C47.3375015,130.1 47.6083321,130.047917 47.85,129.94375 C48.0916679,129.839583 48.2958325,129.697918 48.4625,129.51875 C48.6291675,129.339582 48.7583329,129.122918 48.85,128.86875 C48.9416671,128.614582 48.9875,128.337501 48.9875,128.0375 C48.9875,127.737499 48.9416671,127.460418 48.85,127.20625 C48.7583329,126.952082 48.6291675,126.735418 48.4625,126.55625 C48.2958325,126.377082 48.0916679,126.235417 47.85,126.13125 C47.6083321,126.027083 47.3375015,125.975 47.0375,125.975 C46.7374985,125.975 46.4666679,126.027083 46.225,126.13125 C45.9833321,126.235417 45.7791675,126.377082 45.6125,126.55625 C45.4458325,126.735418 45.3166671,126.952082 45.225,127.20625 C45.1333329,127.460418 45.0875,127.737499 45.0875,128.0375 L45.0875,128.0375 Z M43.8875,128.0375 C43.8875,127.604165 43.9687492,127.200002 44.13125,126.825 C44.2937508,126.449998 44.5166652,126.120835 44.8,125.8375 C45.0833347,125.554165 45.4166647,125.331251 45.8,125.16875 C46.1833352,125.006249 46.5958311,124.925 47.0375,124.925 C47.4791689,124.925 47.8916647,125.006249 48.275,125.16875 C48.6583352,125.331251 48.9916652,125.554165 49.275,125.8375 C49.5583347,126.120835 49.7812492,126.449998 49.94375,126.825 C50.1062508,127.200002 50.1875,127.604165 50.1875,128.0375 C50.1875,128.470836 50.1062508,128.877081 49.94375,129.25625 C49.7812492,129.635419 49.5583347,129.964582 49.275,130.24375 C48.9916652,130.522918 48.6583352,130.743749 48.275,130.90625 C47.8916647,131.068751 47.4791689,131.15 47.0375,131.15 C46.5958311,131.15 46.1833352,131.068751 45.8,130.90625 C45.4166647,130.743749 45.0833347,130.522918 44.8,130.24375 C44.5166652,129.964582 44.2937508,129.635419 44.13125,129.25625 C43.9687492,128.877081 43.8875,128.470836 43.8875,128.0375 L43.8875,128.0375 Z M52.3125,128.0375 C52.3125,128.337501 52.3583329,128.614582 52.45,128.86875 C52.5416671,129.122918 52.6708325,129.339582 52.8375,129.51875 C53.0041675,129.697918 53.2083321,129.839583 53.45,129.94375 C53.6916679,130.047917 53.9624985,130.1 54.2625,130.1 C54.5625015,130.1 54.8333321,130.047917 55.075,129.94375 C55.3166679,129.839583 55.5208325,129.697918 55.6875,129.51875 C55.8541675,129.339582 55.9833329,129.122918 56.075,128.86875 C56.1666671,128.614582 56.2125,128.337501 56.2125,128.0375 C56.2125,127.737499 56.1666671,127.460418 56.075,127.20625 C55.9833329,126.952082 55.8541675,126.735418 55.6875,126.55625 C55.5208325,126.377082 55.3166679,126.235417 55.075,126.13125 C54.8333321,126.027083 54.5625015,125.975 54.2625,125.975 C53.9624985,125.975 53.6916679,126.027083 53.45,126.13125 C53.2083321,126.235417 53.0041675,126.377082 52.8375,126.55625 C52.6708325,126.735418 52.5416671,126.952082 52.45,127.20625 C52.3583329,127.460418 52.3125,127.737499 52.3125,128.0375 L52.3125,128.0375 Z M51.1125,128.0375 C51.1125,127.604165 51.1937492,127.200002 51.35625,126.825 C51.5187508,126.449998 51.7416652,126.120835 52.025,125.8375 C52.3083347,125.554165 52.6416647,125.331251 53.025,125.16875 C53.4083352,125.006249 53.8208311,124.925 54.2625,124.925 C54.7041689,124.925 55.1166647,125.006249 55.5,125.16875 C55.8833352,125.331251 56.2166652,125.554165 56.5,125.8375 C56.7833347,126.120835 57.0062492,126.449998 57.16875,126.825 C57.3312508,127.200002 57.4125,127.604165 57.4125,128.0375 C57.4125,128.470836 57.3312508,128.877081 57.16875,129.25625 C57.0062492,129.635419 56.7833347,129.964582 56.5,130.24375 C56.2166652,130.522918 55.8833352,130.743749 55.5,130.90625 C55.1166647,131.068751 54.7041689,131.15 54.2625,131.15 C53.8208311,131.15 53.4083352,131.068751 53.025,130.90625 C52.6416647,130.743749 52.3083347,130.522918 52.025,130.24375 C51.7416652,129.964582 51.5187508,129.635419 51.35625,129.25625 C51.1937492,128.877081 51.1125,128.470836 51.1125,128.0375 L51.1125,128.0375 Z M58.7125,121.55 L59.8375,121.55 L59.8375,131 L58.7125,131 L58.7125,121.55 Z M65.6125,128.0375 C65.6125,128.337501 65.6583329,128.614582 65.75,128.86875 C65.8416671,129.122918 65.9708325,129.339582 66.1375,129.51875 C66.3041675,129.697918 66.5083321,129.839583 66.75,129.94375 C66.9916679,130.047917 67.2624985,130.1 67.5625,130.1 C67.8625015,130.1 68.1333321,130.047917 68.375,129.94375 C68.6166679,129.839583 68.8208325,129.697918 68.9875,129.51875 C69.1541675,129.339582 69.2833329,129.122918 69.375,128.86875 C69.4666671,128.614582 69.5125,128.337501 69.5125,128.0375 C69.5125,127.737499 69.4666671,127.460418 69.375,127.20625 C69.2833329,126.952082 69.1541675,126.735418 68.9875,126.55625 C68.8208325,126.377082 68.6166679,126.235417 68.375,126.13125 C68.1333321,126.027083 67.8625015,125.975 67.5625,125.975 C67.2624985,125.975 66.9916679,126.027083 66.75,126.13125 C66.5083321,126.235417 66.3041675,126.377082 66.1375,126.55625 C65.9708325,126.735418 65.8416671,126.952082 65.75,127.20625 C65.6583329,127.460418 65.6125,127.737499 65.6125,128.0375 L65.6125,128.0375 Z M64.4125,128.0375 C64.4125,127.604165 64.4937492,127.200002 64.65625,126.825 C64.8187508,126.449998 65.0416652,126.120835 65.325,125.8375 C65.6083347,125.554165 65.9416647,125.331251 66.325,125.16875 C66.7083352,125.006249 67.1208311,124.925 67.5625,124.925 C68.0041689,124.925 68.4166647,125.006249 68.8,125.16875 C69.1833352,125.331251 69.5166652,125.554165 69.8,125.8375 C70.0833347,126.120835 70.3062492,126.449998 70.46875,126.825 C70.6312508,127.200002 70.7125,127.604165 70.7125,128.0375 C70.7125,128.470836 70.6312508,128.877081 70.46875,129.25625 C70.3062492,129.635419 70.0833347,129.964582 69.8,130.24375 C69.5166652,130.522918 69.1833352,130.743749 68.8,130.90625 C68.4166647,131.068751 68.0041689,131.15 67.5625,131.15 C67.1208311,131.15 66.7083352,131.068751 66.325,130.90625 C65.9416647,130.743749 65.6083347,130.522918 65.325,130.24375 C65.0416652,129.964582 64.8187508,129.635419 64.65625,129.25625 C64.4937492,128.877081 64.4125,128.470836 64.4125,128.0375 L64.4125,128.0375 Z M72.3625,126.05 L71.0875,126.05 L71.0875,125.075 L72.3625,125.075 L72.3625,123.75 C72.3625,122.958329 72.5145818,122.368752 72.81875,121.98125 C73.1229182,121.593748 73.6458296,121.4 74.3875,121.4 C74.5125006,121.4 74.6437493,121.404167 74.78125,121.4125 C74.9187507,121.420833 75.0666659,121.445833 75.225,121.4875 L75.1,122.4875 C74.9916661,122.445833 74.8875005,122.416667 74.7875,122.4 C74.6874995,122.383333 74.5791672,122.375 74.4625,122.375 C74.2541656,122.375 74.0875006,122.40625 73.9625,122.46875 C73.8374994,122.53125 73.7395837,122.620833 73.66875,122.7375 C73.5979163,122.854167 73.5520834,122.993749 73.53125,123.15625 C73.5104165,123.318751 73.5,123.504166 73.5,123.7125 L73.5,125.075 L74.8375,125.075 L74.8375,126.05 L73.4875,126.05 L73.4875,131 L72.3625,131 L72.3625,126.05 Z M79.45,122.15 L85.1625,122.15 L85.1625,123.275 L80.65,123.275 L80.65,125.9125 L84.85,125.9125 L84.85,127.0375 L80.65,127.0375 L80.65,129.875 L85.3875,129.875 L85.3875,131 L79.45,131 L79.45,122.15 Z M92.5375,131 L91.4125,131 L91.4125,130.15 L91.3875,130.15 C91.1708322,130.466668 90.8729185,130.712499 90.49375,130.8875 C90.1145814,131.062501 89.725002,131.15 89.325,131.15 C88.8666643,131.15 88.4520852,131.070834 88.08125,130.9125 C87.7104148,130.754166 87.3937513,130.533335 87.13125,130.25 C86.8687487,129.966665 86.6666673,129.637502 86.525,129.2625 C86.3833326,128.887498 86.3125,128.479169 86.3125,128.0375 C86.3125,127.595831 86.3833326,127.185419 86.525,126.80625 C86.6666673,126.427081 86.8687487,126.097918 87.13125,125.81875 C87.3937513,125.539582 87.7104148,125.320834 88.08125,125.1625 C88.4520852,125.004166 88.8666643,124.925 89.325,124.925 C89.7500021,124.925 90.1499981,125.014582 90.525,125.19375 C90.9000018,125.372918 91.187499,125.616665 91.3875,125.925 L91.4125,125.925 L91.4125,121.55 L92.5375,121.55 L92.5375,131 Z M89.4625,130.1 C89.7625015,130.1 90.0333321,130.047917 90.275,129.94375 C90.5166678,129.839583 90.7208325,129.697918 90.8875,129.51875 C91.0541675,129.339582 91.1833328,129.122918 91.275,128.86875 C91.3666671,128.614582 91.4125,128.337501 91.4125,128.0375 C91.4125,127.737499 91.3666671,127.460418 91.275,127.20625 C91.1833328,126.952082 91.0541675,126.735418 90.8875,126.55625 C90.7208325,126.377082 90.5166678,126.235417 90.275,126.13125 C90.0333321,126.027083 89.7625015,125.975 89.4625,125.975 C89.1624985,125.975 88.8916678,126.027083 88.65,126.13125 C88.4083321,126.235417 88.2041675,126.377082 88.0375,126.55625 C87.8708325,126.735418 87.7416671,126.952082 87.65,127.20625 C87.5583328,127.460418 87.5125,127.737499 87.5125,128.0375 C87.5125,128.337501 87.5583328,128.614582 87.65,128.86875 C87.7416671,129.122918 87.8708325,129.339582 88.0375,129.51875 C88.2041675,129.697918 88.4083321,129.839583 88.65,129.94375 C88.8916678,130.047917 89.1624985,130.1 89.4625,130.1 L89.4625,130.1 Z M99.2875,131 L98.1625,131 L98.1625,130.0875 L98.1375,130.0875 C97.9958326,130.404168 97.7500017,130.660416 97.4,130.85625 C97.0499982,131.052084 96.6458356,131.15 96.1875,131.15 C95.8958318,131.15 95.6208346,131.10625 95.3625,131.01875 C95.1041653,130.93125 94.8770843,130.795834 94.68125,130.6125 C94.4854157,130.429166 94.3291672,130.193751 94.2125,129.90625 C94.0958327,129.618749 94.0375,129.279169 94.0375,128.8875 L94.0375,125.075 L95.1625,125.075 L95.1625,128.575 C95.1625,128.850001 95.1999996,129.085416 95.275,129.28125 C95.3500003,129.477084 95.4499993,129.635416 95.575,129.75625 C95.7000006,129.877084 95.8437492,129.964583 96.00625,130.01875 C96.1687508,130.072917 96.3374991,130.1 96.5125,130.1 C96.7458345,130.1 96.962499,130.0625 97.1625,129.9875 C97.362501,129.9125 97.5374992,129.793751 97.6875,129.63125 C97.8375007,129.468749 97.9541662,129.262501 98.0375,129.0125 C98.1208337,128.762499 98.1625,128.466668 98.1625,128.125 L98.1625,125.075 L99.2875,125.075 L99.2875,131 Z M105.025,126.65 C104.816666,126.433332 104.597918,126.268751 104.36875,126.15625 C104.139582,126.043749 103.866668,125.9875 103.55,125.9875 C103.241665,125.9875 102.972918,126.043749 102.74375,126.15625 C102.514582,126.268751 102.322917,126.422916 102.16875,126.61875 C102.014583,126.814584 101.897917,127.039582 101.81875,127.29375 C101.739583,127.547918 101.7,127.812499 101.7,128.0875 C101.7,128.362501 101.745833,128.622915 101.8375,128.86875 C101.929167,129.114585 102.058332,129.329166 102.225,129.5125 C102.391667,129.695834 102.591665,129.839583 102.825,129.94375 C103.058334,130.047917 103.320832,130.1 103.6125,130.1 C103.929168,130.1 104.199999,130.043751 104.425,129.93125 C104.650001,129.818749 104.858332,129.654168 105.05,129.4375 L105.85,130.2375 C105.558332,130.562502 105.218752,130.795833 104.83125,130.9375 C104.443748,131.079167 104.033335,131.15 103.6,131.15 C103.141664,131.15 102.722919,131.075001 102.34375,130.925 C101.964581,130.774999 101.637501,130.564585 101.3625,130.29375 C101.087499,130.022915 100.875001,129.697919 100.725,129.31875 C100.574999,128.939581 100.5,128.520836 100.5,128.0625 C100.5,127.604164 100.574999,127.183335 100.725,126.8 C100.875001,126.416665 101.085415,126.087501 101.35625,125.8125 C101.627085,125.537499 101.952081,125.322917 102.33125,125.16875 C102.710419,125.014583 103.133331,124.9375 103.6,124.9375 C104.033335,124.9375 104.447915,125.014583 104.84375,125.16875 C105.239585,125.322917 105.583332,125.558332 105.875,125.875 L105.025,126.65 Z M106.6375,125.8 C106.954168,125.508332 107.320831,125.289584 107.7375,125.14375 C108.154169,124.997916 108.570831,124.925 108.9875,124.925 C109.420835,124.925 109.793748,124.979166 110.10625,125.0875 C110.418752,125.195834 110.674999,125.341666 110.875,125.525 C111.075001,125.708334 111.222916,125.918749 111.31875,126.15625 C111.414584,126.393751 111.4625,126.641665 111.4625,126.9 L111.4625,129.925 C111.4625,130.133334 111.466667,130.324999 111.475,130.5 C111.483333,130.675001 111.495833,130.841666 111.5125,131 L110.5125,131 C110.4875,130.699998 110.475,130.400001 110.475,130.1 L110.45,130.1 C110.199999,130.483335 109.904168,130.754166 109.5625,130.9125 C109.220832,131.070834 108.825002,131.15 108.375,131.15 C108.099999,131.15 107.837501,131.1125 107.5875,131.0375 C107.337499,130.9625 107.118751,130.850001 106.93125,130.7 C106.743749,130.549999 106.595834,130.364584 106.4875,130.14375 C106.379166,129.922916 106.325,129.666668 106.325,129.375 C106.325,128.991665 106.410416,128.670835 106.58125,128.4125 C106.752084,128.154165 106.985415,127.943751 107.28125,127.78125 C107.577085,127.618749 107.922915,127.502084 108.31875,127.43125 C108.714585,127.360416 109.137498,127.325 109.5875,127.325 L110.4125,127.325 L110.4125,127.075 C110.4125,126.924999 110.383334,126.775001 110.325,126.625 C110.266666,126.474999 110.179167,126.339584 110.0625,126.21875 C109.945833,126.097916 109.800001,126.002084 109.625,125.93125 C109.449999,125.860416 109.241668,125.825 109,125.825 C108.783332,125.825 108.593751,125.845833 108.43125,125.8875 C108.268749,125.929167 108.120834,125.98125 107.9875,126.04375 C107.854166,126.10625 107.733334,126.179166 107.625,126.2625 C107.516666,126.345834 107.4125,126.425 107.3125,126.5 L106.6375,125.8 Z M109.8125,128.15 C109.545832,128.15 109.272918,128.164583 108.99375,128.19375 C108.714582,128.222917 108.460418,128.279166 108.23125,128.3625 C108.002082,128.445834 107.814584,128.562499 107.66875,128.7125 C107.522916,128.862501 107.45,129.054166 107.45,129.2875 C107.45,129.629168 107.564582,129.874999 107.79375,130.025 C108.022918,130.175001 108.333331,130.25 108.725,130.25 C109.033335,130.25 109.295832,130.197917 109.5125,130.09375 C109.729168,129.989583 109.904166,129.854168 110.0375,129.6875 C110.170834,129.520832 110.266666,129.335418 110.325,129.13125 C110.383334,128.927082 110.4125,128.725001 110.4125,128.525 L110.4125,128.15 L109.8125,128.15 Z M116.075,126.05 L114.4625,126.05 L114.4625,128.7375 C114.4625,128.904167 114.466667,129.068749 114.475,129.23125 C114.483333,129.393751 114.514583,129.539583 114.56875,129.66875 C114.622917,129.797917 114.706249,129.902083 114.81875,129.98125 C114.931251,130.060417 115.095832,130.1 115.3125,130.1 C115.445834,130.1 115.583333,130.0875 115.725,130.0625 C115.866667,130.0375 115.995833,129.991667 116.1125,129.925 L116.1125,130.95 C115.979166,131.025 115.806251,131.077083 115.59375,131.10625 C115.381249,131.135417 115.216667,131.15 115.1,131.15 C114.666664,131.15 114.331251,131.089584 114.09375,130.96875 C113.856249,130.847916 113.681251,130.691668 113.56875,130.5 C113.456249,130.308332 113.389583,130.093751 113.36875,129.85625 C113.347917,129.618749 113.3375,129.379168 113.3375,129.1375 L113.3375,126.05 L112.0375,126.05 L112.0375,125.075 L113.3375,125.075 L113.3375,123.4125 L114.4625,123.4125 L114.4625,125.075 L116.075,125.075 L116.075,126.05 Z M117.4125,125.075 L118.5375,125.075 L118.5375,131 L117.4125,131 L117.4125,125.075 Z M117.15,122.95 C117.15,122.724999 117.231249,122.531251 117.39375,122.36875 C117.556251,122.206249 117.749999,122.125 117.975,122.125 C118.200001,122.125 118.393749,122.206249 118.55625,122.36875 C118.718751,122.531251 118.8,122.724999 118.8,122.95 C118.8,123.175001 118.718751,123.368749 118.55625,123.53125 C118.393749,123.693751 118.200001,123.775 117.975,123.775 C117.749999,123.775 117.556251,123.693751 117.39375,123.53125 C117.231249,123.368749 117.15,123.175001 117.15,122.95 L117.15,122.95 Z M121.0375,128.0375 C121.0375,128.337501 121.083333,128.614582 121.175,128.86875 C121.266667,129.122918 121.395832,129.339582 121.5625,129.51875 C121.729167,129.697918 121.933332,129.839583 122.175,129.94375 C122.416668,130.047917 122.687498,130.1 122.9875,130.1 C123.287501,130.1 123.558332,130.047917 123.8,129.94375 C124.041668,129.839583 124.245832,129.697918 124.4125,129.51875 C124.579167,129.339582 124.708333,129.122918 124.8,128.86875 C124.891667,128.614582 124.9375,128.337501 124.9375,128.0375 C124.9375,127.737499 124.891667,127.460418 124.8,127.20625 C124.708333,126.952082 124.579167,126.735418 124.4125,126.55625 C124.245832,126.377082 124.041668,126.235417 123.8,126.13125 C123.558332,126.027083 123.287501,125.975 122.9875,125.975 C122.687498,125.975 122.416668,126.027083 122.175,126.13125 C121.933332,126.235417 121.729167,126.377082 121.5625,126.55625 C121.395832,126.735418 121.266667,126.952082 121.175,127.20625 C121.083333,127.460418 121.0375,127.737499 121.0375,128.0375 L121.0375,128.0375 Z M119.8375,128.0375 C119.8375,127.604165 119.918749,127.200002 120.08125,126.825 C120.243751,126.449998 120.466665,126.120835 120.75,125.8375 C121.033335,125.554165 121.366665,125.331251 121.75,125.16875 C122.133335,125.006249 122.545831,124.925 122.9875,124.925 C123.429169,124.925 123.841665,125.006249 124.225,125.16875 C124.608335,125.331251 124.941665,125.554165 125.225,125.8375 C125.508335,126.120835 125.731249,126.449998 125.89375,126.825 C126.056251,127.200002 126.1375,127.604165 126.1375,128.0375 C126.1375,128.470836 126.056251,128.877081 125.89375,129.25625 C125.731249,129.635419 125.508335,129.964582 125.225,130.24375 C124.941665,130.522918 124.608335,130.743749 124.225,130.90625 C123.841665,131.068751 123.429169,131.15 122.9875,131.15 C122.545831,131.15 122.133335,131.068751 121.75,130.90625 C121.366665,130.743749 121.033335,130.522918 120.75,130.24375 C120.466665,129.964582 120.243751,129.635419 120.08125,129.25625 C119.918749,128.877081 119.8375,128.470836 119.8375,128.0375 L119.8375,128.0375 Z M127.35,125.075 L128.475,125.075 L128.475,125.9875 L128.5,125.9875 C128.641667,125.670832 128.887498,125.414584 129.2375,125.21875 C129.587502,125.022916 129.991664,124.925 130.45,124.925 C130.733335,124.925 131.006249,124.96875 131.26875,125.05625 C131.531251,125.14375 131.760416,125.279166 131.95625,125.4625 C132.152084,125.645834 132.308333,125.881249 132.425,126.16875 C132.541667,126.456251 132.6,126.795831 132.6,127.1875 L132.6,131 L131.475,131 L131.475,127.5 C131.475,127.224999 131.4375,126.989584 131.3625,126.79375 C131.2875,126.597916 131.187501,126.439584 131.0625,126.31875 C130.937499,126.197916 130.793751,126.110417 130.63125,126.05625 C130.468749,126.002083 130.300001,125.975 130.125,125.975 C129.891665,125.975 129.675001,126.0125 129.475,126.0875 C129.274999,126.1625 129.100001,126.281249 128.95,126.44375 C128.799999,126.606251 128.683334,126.812499 128.6,127.0625 C128.516666,127.312501 128.475,127.608332 128.475,127.95 L128.475,131 L127.35,131 L127.35,125.075 Z M145.425,131 L143.8125,131 L142.725,129.825 C142.349998,130.275002 141.952085,130.620832 141.53125,130.8625 C141.110415,131.104168 140.60417,131.225 140.0125,131.225 C139.512497,131.225 139.079168,131.152084 138.7125,131.00625 C138.345831,130.860416 138.043751,130.666668 137.80625,130.425 C137.568749,130.183332 137.393751,129.910418 137.28125,129.60625 C137.168749,129.302082 137.1125,128.987502 137.1125,128.6625 C137.1125,128.354165 137.166666,128.072918 137.275,127.81875 C137.383334,127.564582 137.529166,127.333334 137.7125,127.125 C137.895834,126.916666 138.110415,126.729168 138.35625,126.5625 C138.602085,126.395832 138.858332,126.250001 139.125,126.125 C138.841665,125.824998 138.597918,125.516668 138.39375,125.2 C138.189582,124.883332 138.0875,124.508335 138.0875,124.075 C138.0875,123.741665 138.152083,123.445835 138.28125,123.1875 C138.410417,122.929165 138.583332,122.712501 138.8,122.5375 C139.016668,122.362499 139.266665,122.229167 139.55,122.1375 C139.833335,122.045833 140.133332,122 140.45,122 C140.758335,122 141.052082,122.041666 141.33125,122.125 C141.610418,122.208334 141.854166,122.333332 142.0625,122.5 C142.270834,122.666668 142.435416,122.874999 142.55625,123.125 C142.677084,123.375001 142.7375,123.666665 142.7375,124 C142.7375,124.275001 142.683334,124.527082 142.575,124.75625 C142.466666,124.985418 142.325001,125.193749 142.15,125.38125 C141.974999,125.568751 141.779168,125.735416 141.5625,125.88125 C141.345832,126.027084 141.125001,126.158333 140.9,126.275 L142.65,128.1 L143.7625,126.2875 L145.125,126.2875 L143.4125,128.9375 L145.425,131 Z M141.5375,124 C141.5375,123.708332 141.437501,123.477084 141.2375,123.30625 C141.037499,123.135416 140.779168,123.05 140.4625,123.05 C140.145832,123.05 139.870834,123.139582 139.6375,123.31875 C139.404165,123.497918 139.2875,123.754165 139.2875,124.0875 C139.2875,124.237501 139.314583,124.379166 139.36875,124.5125 C139.422917,124.645834 139.49375,124.774999 139.58125,124.9 C139.66875,125.025001 139.762499,125.141666 139.8625,125.25 C139.9625,125.358334 140.062499,125.462499 140.1625,125.5625 C140.312501,125.479166 140.468749,125.3875 140.63125,125.2875 C140.793751,125.1875 140.941666,125.075001 141.075,124.95 C141.208334,124.824999 141.31875,124.685417 141.40625,124.53125 C141.49375,124.377083 141.5375,124.200001 141.5375,124 L141.5375,124 Z M139.875,126.825 C139.699999,126.925001 139.522918,127.033333 139.34375,127.15 C139.164582,127.266667 139.004167,127.395833 138.8625,127.5375 C138.720833,127.679167 138.60625,127.839582 138.51875,128.01875 C138.43125,128.197918 138.3875,128.399999 138.3875,128.625 C138.3875,128.841668 138.433333,129.043749 138.525,129.23125 C138.616667,129.418751 138.741666,129.583333 138.9,129.725 C139.058334,129.866667 139.235416,129.977083 139.43125,130.05625 C139.627084,130.135417 139.833332,130.175 140.05,130.175 C140.266668,130.175 140.468749,130.141667 140.65625,130.075 C140.843751,130.008333 141.018749,129.922917 141.18125,129.81875 C141.343751,129.714583 141.493749,129.595834 141.63125,129.4625 C141.768751,129.329166 141.895833,129.191667 142.0125,129.05 L139.875,126.825 Z M150.025,129.15 C150.241668,129.475002 150.518748,129.714583 150.85625,129.86875 C151.193752,130.022917 151.541665,130.1 151.9,130.1 C152.100001,130.1 152.304166,130.06875 152.5125,130.00625 C152.720834,129.94375 152.910416,129.850001 153.08125,129.725 C153.252084,129.599999 153.391666,129.445834 153.5,129.2625 C153.608334,129.079166 153.6625,128.866668 153.6625,128.625 C153.6625,128.283332 153.554168,128.022918 153.3375,127.84375 C153.120832,127.664582 152.852085,127.514584 152.53125,127.39375 C152.210415,127.272916 151.860418,127.156251 151.48125,127.04375 C151.102081,126.931249 150.752085,126.775001 150.43125,126.575 C150.110415,126.374999 149.841668,126.106252 149.625,125.76875 C149.408332,125.431248 149.3,124.975003 149.3,124.4 C149.3,124.141665 149.356249,123.866668 149.46875,123.575 C149.58125,123.283332 149.758332,123.016668 150,122.775 C150.241668,122.533332 150.552081,122.331251 150.93125,122.16875 C151.310418,122.006249 151.766664,121.925 152.3,121.925 C152.783336,121.925 153.245831,121.991666 153.6875,122.125 C154.129169,122.258334 154.516665,122.529165 154.85,122.9375 L153.875,123.825 C153.724999,123.591665 153.512501,123.404167 153.2375,123.2625 C152.962499,123.120833 152.650002,123.05 152.3,123.05 C151.966665,123.05 151.689584,123.09375 151.46875,123.18125 C151.247915,123.26875 151.070834,123.381249 150.9375,123.51875 C150.804166,123.656251 150.710417,123.804166 150.65625,123.9625 C150.602083,124.120834 150.575,124.266666 150.575,124.4 C150.575,124.775002 150.683332,125.062499 150.9,125.2625 C151.116668,125.462501 151.385415,125.624999 151.70625,125.75 C152.027085,125.875001 152.377081,125.9875 152.75625,126.0875 C153.135418,126.1875 153.485415,126.327082 153.80625,126.50625 C154.127085,126.685418 154.395832,126.927082 154.6125,127.23125 C154.829168,127.535418 154.9375,127.954164 154.9375,128.4875 C154.9375,128.912502 154.856251,129.295832 154.69375,129.6375 C154.531249,129.979168 154.312501,130.266665 154.0375,130.5 C153.762499,130.733335 153.437502,130.912499 153.0625,131.0375 C152.687498,131.162501 152.287502,131.225 151.8625,131.225 C151.29583,131.225 150.758336,131.125001 150.25,130.925 C149.741664,130.724999 149.337501,130.416669 149.0375,130 L150.025,129.15 Z M157.1375,128.0375 C157.1375,128.337501 157.183333,128.614582 157.275,128.86875 C157.366667,129.122918 157.495832,129.339582 157.6625,129.51875 C157.829167,129.697918 158.033332,129.839583 158.275,129.94375 C158.516668,130.047917 158.787498,130.1 159.0875,130.1 C159.387501,130.1 159.658332,130.047917 159.9,129.94375 C160.141668,129.839583 160.345832,129.697918 160.5125,129.51875 C160.679167,129.339582 160.808333,129.122918 160.9,128.86875 C160.991667,128.614582 161.0375,128.337501 161.0375,128.0375 C161.0375,127.737499 160.991667,127.460418 160.9,127.20625 C160.808333,126.952082 160.679167,126.735418 160.5125,126.55625 C160.345832,126.377082 160.141668,126.235417 159.9,126.13125 C159.658332,126.027083 159.387501,125.975 159.0875,125.975 C158.787498,125.975 158.516668,126.027083 158.275,126.13125 C158.033332,126.235417 157.829167,126.377082 157.6625,126.55625 C157.495832,126.735418 157.366667,126.952082 157.275,127.20625 C157.183333,127.460418 157.1375,127.737499 157.1375,128.0375 L157.1375,128.0375 Z M155.9375,128.0375 C155.9375,127.604165 156.018749,127.200002 156.18125,126.825 C156.343751,126.449998 156.566665,126.120835 156.85,125.8375 C157.133335,125.554165 157.466665,125.331251 157.85,125.16875 C158.233335,125.006249 158.645831,124.925 159.0875,124.925 C159.529169,124.925 159.941665,125.006249 160.325,125.16875 C160.708335,125.331251 161.041665,125.554165 161.325,125.8375 C161.608335,126.120835 161.831249,126.449998 161.99375,126.825 C162.156251,127.200002 162.2375,127.604165 162.2375,128.0375 C162.2375,128.470836 162.156251,128.877081 161.99375,129.25625 C161.831249,129.635419 161.608335,129.964582 161.325,130.24375 C161.041665,130.522918 160.708335,130.743749 160.325,130.90625 C159.941665,131.068751 159.529169,131.15 159.0875,131.15 C158.645831,131.15 158.233335,131.068751 157.85,130.90625 C157.466665,130.743749 157.133335,130.522918 156.85,130.24375 C156.566665,129.964582 156.343751,129.635419 156.18125,129.25625 C156.018749,128.877081 155.9375,128.470836 155.9375,128.0375 L155.9375,128.0375 Z M167.6875,126.65 C167.479166,126.433332 167.260418,126.268751 167.03125,126.15625 C166.802082,126.043749 166.529168,125.9875 166.2125,125.9875 C165.904165,125.9875 165.635418,126.043749 165.40625,126.15625 C165.177082,126.268751 164.985417,126.422916 164.83125,126.61875 C164.677082,126.814584 164.560417,127.039582 164.48125,127.29375 C164.402083,127.547918 164.3625,127.812499 164.3625,128.0875 C164.3625,128.362501 164.408333,128.622915 164.5,128.86875 C164.591667,129.114585 164.720832,129.329166 164.8875,129.5125 C165.054167,129.695834 165.254165,129.839583 165.4875,129.94375 C165.720834,130.047917 165.983332,130.1 166.275,130.1 C166.591668,130.1 166.862499,130.043751 167.0875,129.93125 C167.312501,129.818749 167.520832,129.654168 167.7125,129.4375 L168.5125,130.2375 C168.220832,130.562502 167.881252,130.795833 167.49375,130.9375 C167.106248,131.079167 166.695835,131.15 166.2625,131.15 C165.804164,131.15 165.385418,131.075001 165.00625,130.925 C164.627081,130.774999 164.300001,130.564585 164.025,130.29375 C163.749999,130.022915 163.537501,129.697919 163.3875,129.31875 C163.237499,128.939581 163.1625,128.520836 163.1625,128.0625 C163.1625,127.604164 163.237499,127.183335 163.3875,126.8 C163.537501,126.416665 163.747915,126.087501 164.01875,125.8125 C164.289585,125.537499 164.614581,125.322917 164.99375,125.16875 C165.372918,125.014583 165.795831,124.9375 166.2625,124.9375 C166.695835,124.9375 167.110415,125.014583 167.50625,125.16875 C167.902085,125.322917 168.245832,125.558332 168.5375,125.875 L167.6875,126.65 Z M169.3625,125.075 L170.4875,125.075 L170.4875,131 L169.3625,131 L169.3625,125.075 Z M169.1,122.95 C169.1,122.724999 169.181249,122.531251 169.34375,122.36875 C169.506251,122.206249 169.699999,122.125 169.925,122.125 C170.150001,122.125 170.343749,122.206249 170.50625,122.36875 C170.668751,122.531251 170.75,122.724999 170.75,122.95 C170.75,123.175001 170.668751,123.368749 170.50625,123.53125 C170.343749,123.693751 170.150001,123.775 169.925,123.775 C169.699999,123.775 169.506251,123.693751 169.34375,123.53125 C169.181249,123.368749 169.1,123.175001 169.1,122.95 L169.1,122.95 Z M172.1,125.8 C172.416668,125.508332 172.783331,125.289584 173.2,125.14375 C173.616669,124.997916 174.033331,124.925 174.45,124.925 C174.883335,124.925 175.256248,124.979166 175.56875,125.0875 C175.881251,125.195834 176.137499,125.341666 176.3375,125.525 C176.537501,125.708334 176.685416,125.918749 176.78125,126.15625 C176.877084,126.393751 176.925,126.641665 176.925,126.9 L176.925,129.925 C176.925,130.133334 176.929167,130.324999 176.9375,130.5 C176.945833,130.675001 176.958333,130.841666 176.975,131 L175.975,131 C175.95,130.699998 175.9375,130.400001 175.9375,130.1 L175.9125,130.1 C175.662499,130.483335 175.366668,130.754166 175.025,130.9125 C174.683332,131.070834 174.287502,131.15 173.8375,131.15 C173.562499,131.15 173.300001,131.1125 173.05,131.0375 C172.799999,130.9625 172.581251,130.850001 172.39375,130.7 C172.206249,130.549999 172.058334,130.364584 171.95,130.14375 C171.841666,129.922916 171.7875,129.666668 171.7875,129.375 C171.7875,128.991665 171.872916,128.670835 172.04375,128.4125 C172.214584,128.154165 172.447915,127.943751 172.74375,127.78125 C173.039585,127.618749 173.385415,127.502084 173.78125,127.43125 C174.177085,127.360416 174.599998,127.325 175.05,127.325 L175.875,127.325 L175.875,127.075 C175.875,126.924999 175.845834,126.775001 175.7875,126.625 C175.729166,126.474999 175.641667,126.339584 175.525,126.21875 C175.408333,126.097916 175.262501,126.002084 175.0875,125.93125 C174.912499,125.860416 174.704168,125.825 174.4625,125.825 C174.245832,125.825 174.056251,125.845833 173.89375,125.8875 C173.731249,125.929167 173.583334,125.98125 173.45,126.04375 C173.316666,126.10625 173.195834,126.179166 173.0875,126.2625 C172.979166,126.345834 172.875,126.425 172.775,126.5 L172.1,125.8 Z M175.275,128.15 C175.008332,128.15 174.735418,128.164583 174.45625,128.19375 C174.177082,128.222917 173.922918,128.279166 173.69375,128.3625 C173.464582,128.445834 173.277084,128.562499 173.13125,128.7125 C172.985416,128.862501 172.9125,129.054166 172.9125,129.2875 C172.9125,129.629168 173.027082,129.874999 173.25625,130.025 C173.485418,130.175001 173.795831,130.25 174.1875,130.25 C174.495835,130.25 174.758332,130.197917 174.975,130.09375 C175.191668,129.989583 175.366666,129.854168 175.5,129.6875 C175.633334,129.520832 175.729166,129.335418 175.7875,129.13125 C175.845834,128.927082 175.875,128.725001 175.875,128.525 L175.875,128.15 L175.275,128.15 Z M178.45,121.55 L179.575,121.55 L179.575,131 L178.45,131 L178.45,121.55 Z M184.725,122.15 L187.8375,122.15 C188.404169,122.15 188.870831,122.227083 189.2375,122.38125 C189.604168,122.535417 189.893749,122.731249 190.10625,122.96875 C190.318751,123.206251 190.466666,123.472915 190.55,123.76875 C190.633334,124.064585 190.675,124.349999 190.675,124.625 C190.675,124.900001 190.633334,125.185415 190.55,125.48125 C190.466666,125.777085 190.318751,126.043749 190.10625,126.28125 C189.893749,126.518751 189.604168,126.714583 189.2375,126.86875 C188.870831,127.022917 188.404169,127.1 187.8375,127.1 L185.925,127.1 L185.925,131 L184.725,131 L184.725,122.15 Z M185.925,126.05 L187.5,126.05 C187.733334,126.05 187.964582,126.03125 188.19375,125.99375 C188.422918,125.95625 188.627082,125.8875 188.80625,125.7875 C188.985417,125.6875 189.129166,125.543751 189.2375,125.35625 C189.345834,125.168749 189.4,124.925002 189.4,124.625 C189.4,124.324998 189.345834,124.081251 189.2375,123.89375 C189.129166,123.706249 188.985417,123.5625 188.80625,123.4625 C188.627082,123.3625 188.422918,123.29375 188.19375,123.25625 C187.964582,123.21875 187.733334,123.2 187.5,123.2 L185.925,123.2 L185.925,126.05 Z M192.5625,128.0375 C192.5625,128.337501 192.608333,128.614582 192.7,128.86875 C192.791667,129.122918 192.920832,129.339582 193.0875,129.51875 C193.254167,129.697918 193.458332,129.839583 193.7,129.94375 C193.941668,130.047917 194.212498,130.1 194.5125,130.1 C194.812501,130.1 195.083332,130.047917 195.325,129.94375 C195.566668,129.839583 195.770832,129.697918 195.9375,129.51875 C196.104167,129.339582 196.233333,129.122918 196.325,128.86875 C196.416667,128.614582 196.4625,128.337501 196.4625,128.0375 C196.4625,127.737499 196.416667,127.460418 196.325,127.20625 C196.233333,126.952082 196.104167,126.735418 195.9375,126.55625 C195.770832,126.377082 195.566668,126.235417 195.325,126.13125 C195.083332,126.027083 194.812501,125.975 194.5125,125.975 C194.212498,125.975 193.941668,126.027083 193.7,126.13125 C193.458332,126.235417 193.254167,126.377082 193.0875,126.55625 C192.920832,126.735418 192.791667,126.952082 192.7,127.20625 C192.608333,127.460418 192.5625,127.737499 192.5625,128.0375 L192.5625,128.0375 Z M191.3625,128.0375 C191.3625,127.604165 191.443749,127.200002 191.60625,126.825 C191.768751,126.449998 191.991665,126.120835 192.275,125.8375 C192.558335,125.554165 192.891665,125.331251 193.275,125.16875 C193.658335,125.006249 194.070831,124.925 194.5125,124.925 C194.954169,124.925 195.366665,125.006249 195.75,125.16875 C196.133335,125.331251 196.466665,125.554165 196.75,125.8375 C197.033335,126.120835 197.256249,126.449998 197.41875,126.825 C197.581251,127.200002 197.6625,127.604165 197.6625,128.0375 C197.6625,128.470836 197.581251,128.877081 197.41875,129.25625 C197.256249,129.635419 197.033335,129.964582 196.75,130.24375 C196.466665,130.522918 196.133335,130.743749 195.75,130.90625 C195.366665,131.068751 194.954169,131.15 194.5125,131.15 C194.070831,131.15 193.658335,131.068751 193.275,130.90625 C192.891665,130.743749 192.558335,130.522918 192.275,130.24375 C191.991665,129.964582 191.768751,129.635419 191.60625,129.25625 C191.443749,128.877081 191.3625,128.470836 191.3625,128.0375 L191.3625,128.0375 Z M198.9625,121.55 L200.0875,121.55 L200.0875,131 L198.9625,131 L198.9625,121.55 Z M201.7625,125.075 L202.8875,125.075 L202.8875,131 L201.7625,131 L201.7625,125.075 Z M201.5,122.95 C201.5,122.724999 201.581249,122.531251 201.74375,122.36875 C201.906251,122.206249 202.099999,122.125 202.325,122.125 C202.550001,122.125 202.743749,122.206249 202.90625,122.36875 C203.068751,122.531251 203.15,122.724999 203.15,122.95 C203.15,123.175001 203.068751,123.368749 202.90625,123.53125 C202.743749,123.693751 202.550001,123.775 202.325,123.775 C202.099999,123.775 201.906251,123.693751 201.74375,123.53125 C201.581249,123.368749 201.5,123.175001 201.5,122.95 L201.5,122.95 Z M208.7125,126.65 C208.504166,126.433332 208.285418,126.268751 208.05625,126.15625 C207.827082,126.043749 207.554168,125.9875 207.2375,125.9875 C206.929165,125.9875 206.660418,126.043749 206.43125,126.15625 C206.202082,126.268751 206.010417,126.422916 205.85625,126.61875 C205.702082,126.814584 205.585417,127.039582 205.50625,127.29375 C205.427083,127.547918 205.3875,127.812499 205.3875,128.0875 C205.3875,128.362501 205.433333,128.622915 205.525,128.86875 C205.616667,129.114585 205.745832,129.329166 205.9125,129.5125 C206.079167,129.695834 206.279165,129.839583 206.5125,129.94375 C206.745834,130.047917 207.008332,130.1 207.3,130.1 C207.616668,130.1 207.887499,130.043751 208.1125,129.93125 C208.337501,129.818749 208.545832,129.654168 208.7375,129.4375 L209.5375,130.2375 C209.245832,130.562502 208.906252,130.795833 208.51875,130.9375 C208.131248,131.079167 207.720835,131.15 207.2875,131.15 C206.829164,131.15 206.410418,131.075001 206.03125,130.925 C205.652081,130.774999 205.325001,130.564585 205.05,130.29375 C204.774999,130.022915 204.562501,129.697919 204.4125,129.31875 C204.262499,128.939581 204.1875,128.520836 204.1875,128.0625 C204.1875,127.604164 204.262499,127.183335 204.4125,126.8 C204.562501,126.416665 204.772915,126.087501 205.04375,125.8125 C205.314585,125.537499 205.639581,125.322917 206.01875,125.16875 C206.397918,125.014583 206.820831,124.9375 207.2875,124.9375 C207.720835,124.9375 208.135415,125.014583 208.53125,125.16875 C208.927085,125.322917 209.270832,125.558332 209.5625,125.875 L208.7125,126.65 Z M209.5875,125.075 L210.8875,125.075 L212.65,129.7 L212.675,129.7 L214.35,125.075 L215.5625,125.075 L212.75,132.275 C212.649999,132.533335 212.545834,132.768749 212.4375,132.98125 C212.329166,133.193751 212.200001,133.374999 212.05,133.525 C211.899999,133.675001 211.718751,133.791666 211.50625,133.875 C211.293749,133.958334 211.033335,134 210.725,134 C210.558332,134 210.389584,133.989583 210.21875,133.96875 C210.047916,133.947917 209.883334,133.904167 209.725,133.8375 L209.8625,132.8125 C210.087501,132.904167 210.312499,132.95 210.5375,132.95 C210.712501,132.95 210.860416,132.927084 210.98125,132.88125 C211.102084,132.835416 211.206249,132.76875 211.29375,132.68125 C211.38125,132.59375 211.454166,132.491667 211.5125,132.375 C211.570834,132.258333 211.629166,132.125001 211.6875,131.975 L212.05,131.0375 L209.5875,125.075 Z" id="School-of-Education" fill="#5C2D91"></path>
            </g>
        </g>
    </g>
</svg>