<svg width="27" height="17" viewBox="0 0 27 17" xmlns="http://www.w3.org/2000/svg"><title>logo</title><path d="M0 8h1v1H0V8zm10-6h1v1h-1V2zm0 12h1v1h-1v-1zM3 5h1v7H3V5zM2 6h1v5H2V6zM1 7h1v3H1V7zm8 6h1v3H9v-3zM9 1h1v3H9V1zM5 9h1v5H5V9zm1 1h1v5H6v-5zm1 1h1v5H7v-5zm1 1h1v5H8v-5zM4 4h1v9H4V4zm1-1h1v5H5V3zm1-1h1v5H6V2zm1-1h1v5H7V1zm1-1h1v5H8V0zm19 8h-1v1h1V8zM17 2h-1v1h1V2zm0 12h-1v1h1v-1zm8-8h-1v5h1V6zm-1-1h-1v7h1V5zm2 2h-1v3h1V7zm-8 6h-1v3h1v-3zm0-12h-1v3h1V1zm4 8h-1v5h1V9zm-1 1h-1v5h1v-5zm-1 1h-1v5h1v-5zm-1 1h-1v5h1v-5zm4-8h-1v9h1V4zm-1-1h-1v5h1V3zm-1-1h-1v5h1V2zm-1-1h-1v5h1V1zm-1-1h-1v5h1V0z" fill="#5A3592" fill-rule="evenodd"/></svg>